<svg width="84" height="80" viewBox="0 0 84 80" fill="none" xmlns="http://www.w3.org/2000/svg">
<path d="M36.9708 11.9424C37.3555 12.2983 37.6694 12.6082 37.723 13.1498C37.7334 13.6476 37.6994 13.9902 37.4102 14.4143C37.0799 14.7447 36.8646 14.8993 36.4154 15.0125C36.1501 15.104 36.0657 15.1517 35.9351 15.4043C35.8524 15.6918 35.7977 15.9744 35.7501 16.2698C35.7314 16.3719 35.7128 16.474 35.6936 16.5792C35.1478 19.9049 35.6829 23.1542 36.9891 26.2369C37.0309 26.3372 37.0309 26.3372 37.0735 26.4397C37.1449 26.6018 37.2279 26.7587 37.3126 26.9143C37.6879 27.0395 37.8728 26.9608 38.2586 26.8716C40.0942 26.5019 42.2138 26.6045 44.0509 26.9143C44.0589 26.7975 44.067 26.6807 44.0753 26.5603C44.145 25.9096 44.3484 25.2918 44.5391 24.6682C45.003 24.5584 45.003 24.5584 45.2227 24.6682C45.1912 25.3663 45.0382 25.9805 44.8165 26.6424C44.7204 26.9137 44.7204 26.9137 44.7345 27.2073C44.8348 27.2439 44.9351 27.2806 45.0385 27.3183C45.8311 27.6102 46.6086 27.9164 47.3712 28.2815C47.3974 28.2162 47.4235 28.1509 47.4505 28.0835C48.8213 24.7242 50.8997 21.2544 54.2865 19.6023C54.6001 19.4257 54.679 19.3558 54.7774 19.0038C54.804 18.7811 54.8263 18.5579 54.8442 18.3343C54.9125 17.8843 55.1224 17.6195 55.4766 17.344C55.9531 17.0437 56.4961 17.0884 57.0391 17.1487C57.387 17.3257 57.387 17.3257 57.6251 17.5393C57.6815 17.5857 57.7379 17.632 57.796 17.6797C58.1155 18.0791 58.1514 18.4887 58.1374 18.984C58.0838 19.4646 57.8822 19.7264 57.5396 20.054C57.0225 20.4263 56.7069 20.5037 56.0832 20.4198C55.7907 20.3542 55.5469 20.2143 55.2813 20.0784C53.717 20.2669 51.8187 22.4416 50.8868 23.594C49.9068 24.8589 49.1351 26.1763 48.5369 27.659C48.5065 27.733 48.4761 27.8071 48.4447 27.8834C48.3278 28.1863 48.2499 28.4226 48.2508 28.7492C48.3848 29.0477 48.5576 29.1526 48.8299 29.3313C49.6917 29.9266 50.411 30.6133 51.1004 31.4C51.2201 31.5365 51.3444 31.6689 51.4727 31.7972C51.4902 31.7284 51.5077 31.6597 51.5258 31.5889C51.7283 31.1902 52.0244 30.9929 52.3822 30.7351C52.4471 30.6853 52.5119 30.6354 52.5788 30.5841C53.062 30.2304 53.062 30.2304 53.424 30.2522C53.489 30.2786 53.5541 30.3051 53.6212 30.3323C53.665 30.5898 53.665 30.5898 53.6212 30.9182C53.4176 31.1502 53.1736 31.3134 52.9193 31.4859C52.8206 31.5575 52.8206 31.5575 52.72 31.6306C52.3764 31.873 52.098 32.0526 51.668 32.0901C51.7095 32.1529 51.7509 32.2158 51.7936 32.2805C52.2477 32.9801 52.6489 33.6953 53.0352 34.4339C53.0934 34.4177 53.1517 34.4014 53.2116 34.3847C57.2065 33.2884 61.2681 33.2109 65.2423 34.4339C65.3808 34.4755 65.5194 34.5171 65.6581 34.5586C65.9434 34.6452 66.2279 34.7334 66.5118 34.8245C66.5823 34.748 66.6528 34.6714 66.7254 34.5926C67.1595 34.1875 67.5467 34.0837 68.1315 34.0974C68.6878 34.2 69.1104 34.5499 69.4476 34.9893C69.6177 35.5905 69.6531 36.1548 69.3743 36.7227C69.0425 37.0904 68.7201 37.4379 68.2101 37.4845C67.7456 37.4955 67.3875 37.5024 66.9574 37.3147C66.424 36.7943 66.2046 36.3498 66.1212 35.6057C64.3865 35.03 64.3865 35.03 62.6055 34.6292C62.4566 34.6011 62.4566 34.6011 62.3046 34.5723C59.3789 34.0806 56.2518 34.3201 53.4259 35.2151C53.5196 35.6448 53.6159 36.0736 53.7177 36.5014C53.7349 36.5739 53.7521 36.6463 53.7699 36.721C53.8045 36.8663 53.8392 37.0116 53.8742 37.1568C54.0491 37.8917 54.1316 38.599 54.1644 39.3533C54.1686 39.4438 54.1728 39.5343 54.1772 39.6276C54.1875 39.8495 54.1974 40.0713 54.2071 40.2932C54.3242 40.2442 54.3242 40.2442 54.4436 40.1941C54.8791 40.0743 55.2496 40.0914 55.6964 40.1223C55.7759 40.1263 55.8555 40.1302 55.9375 40.1342C56.5255 40.1702 56.5255 40.1702 56.7462 40.3909C56.6919 40.8358 56.6919 40.8358 56.5509 40.9768C56.213 40.9859 55.8752 40.9625 55.5377 40.9463C55.4428 40.9429 55.3478 40.9394 55.25 40.9358C55.1589 40.9316 55.0678 40.9274 54.9739 40.9231C54.8901 40.9194 54.8063 40.9157 54.72 40.9119C54.5001 40.8792 54.5001 40.8792 54.2071 40.6839C54.2008 40.7403 54.1945 40.7966 54.188 40.8547C54.0561 41.9977 53.8796 43.0812 53.5224 44.1762C53.4116 44.4841 53.4116 44.4841 53.4259 44.7854C53.4901 44.7972 53.5543 44.8089 53.6205 44.821C55.6038 45.1876 57.4648 45.6651 59.2852 46.5432C59.3456 46.5722 59.4059 46.6011 59.4681 46.6308C60.8114 47.2843 62.0208 48.1441 63.1549 49.1128C63.2118 49.1615 63.2688 49.2101 63.3275 49.2602C63.6235 49.5183 63.8784 49.7851 64.1253 50.0894C64.2679 50.2568 64.2679 50.2568 64.461 50.3518C64.789 50.3578 65.0967 50.3204 65.4216 50.2763C65.8718 50.2441 66.1669 50.3594 66.5118 50.6448C66.9644 51.2135 67.0656 51.6949 67.0001 52.4026C66.8218 52.9176 66.5502 53.164 66.1212 53.4768C65.5695 53.6607 64.9014 53.69 64.3695 53.428C63.9453 53.0818 63.7192 52.7305 63.6531 52.1806C63.6469 51.8172 63.6785 51.5283 63.7774 51.1758C63.7774 50.7795 63.7265 50.7363 63.46 50.4617C63.3079 50.3246 63.1531 50.1905 62.9962 50.0589C62.9136 49.9883 62.831 49.9176 62.7459 49.8449C62.4749 49.6183 62.1994 49.3986 61.922 49.18C61.7913 49.0744 61.7913 49.0744 61.658 48.9667C59.3857 47.1864 56.5791 46.0476 53.7188 45.6643C53.6034 45.6428 53.488 45.6213 53.369 45.5991C53.0355 45.6296 53.0355 45.6296 52.8812 45.8353C52.7213 46.0817 52.5808 46.3326 52.4432 46.5921C52.3469 46.7663 52.2501 46.9402 52.1529 47.1139C52.1059 47.1984 52.059 47.2829 52.0106 47.3699C51.7938 47.7345 51.542 48.0677 51.2774 48.3987C51.335 48.4255 51.3926 48.4524 51.4519 48.48C51.7966 48.6618 52.0746 48.9157 52.37 49.1678C52.4326 49.2195 52.4952 49.2712 52.5597 49.3245C52.6193 49.3753 52.6789 49.426 52.7404 49.4783C52.7946 49.5241 52.8489 49.5699 52.9048 49.6171C53.0611 49.7954 53.1029 49.9227 53.1329 50.1565C53.1007 50.221 53.0684 50.2854 53.0352 50.3518C52.7453 50.3932 52.5316 50.4017 52.2759 50.2467C52.0911 50.0988 51.9157 49.9444 51.7413 49.7842C51.6804 49.7308 51.6194 49.6773 51.5567 49.6223C51.2906 49.3858 51.0861 49.1859 50.8868 48.887C50.8169 48.9603 50.7471 49.0335 50.6751 49.109C49.8994 49.9101 49.0814 50.6114 48.1524 51.2307C48.2974 51.5901 48.4935 51.7612 48.7994 51.9937C49.5364 52.5674 50.1931 53.1468 50.7891 53.8675C50.8503 53.9396 50.9115 54.0117 50.9745 54.086C52.4082 55.8172 53.6502 57.9759 54.0423 60.209C54.0916 60.4812 54.0916 60.4812 54.2071 60.7034C54.4483 60.8556 54.6715 60.932 54.9449 61.0112C55.3965 61.1678 55.5639 61.5031 55.8062 61.8997C55.9318 62.4522 55.8551 62.9673 55.6109 63.4744C55.2619 63.8602 54.9138 64.0502 54.4146 64.2129C53.8407 64.2244 53.3836 64.0531 52.9437 63.688C52.5371 63.1829 52.5047 62.8011 52.5157 62.1602C52.5694 61.6711 52.7902 61.4122 53.1573 61.1062C53.2137 61.07 53.2701 61.0337 53.3282 60.9964C53.2727 60.4302 53.1626 59.9233 52.9803 59.385C52.9547 59.3092 52.9292 59.2333 52.9028 59.1552C52.6266 58.3644 52.264 57.6289 51.8634 56.8948C51.7771 56.7347 51.7771 56.7347 51.689 56.5713C51.1025 55.5238 50.3355 54.6448 49.5196 53.7698C49.4192 53.6614 49.4192 53.6614 49.3167 53.5508C48.8832 53.0997 48.4198 52.6861 47.9388 52.2867C47.8819 52.2372 47.8251 52.1877 47.7665 52.1368C47.5815 51.9803 47.5815 51.9803 47.2735 51.8167C46.9672 51.8542 46.9672 51.8542 46.6876 52.012C46.549 52.0764 46.549 52.0764 46.4076 52.1421C46.3106 52.1898 46.2137 52.2375 46.1138 52.2867C45.3833 52.6304 44.6296 52.8616 43.8555 53.0862C43.9002 53.1824 43.9449 53.2786 43.991 53.3777C44.1585 53.7692 44.2488 54.1578 44.3255 54.5755C44.3398 54.6445 44.3541 54.7134 44.3688 54.7845C44.4653 55.2966 44.4653 55.2966 44.2462 55.6253C44.0142 55.607 44.0142 55.607 43.7579 55.5276C43.5499 55.1262 43.4793 54.6868 43.3978 54.2459C43.3769 54.1411 43.3769 54.1411 43.3556 54.0342C43.2939 53.7057 43.2599 53.506 43.3673 53.1839C43.2486 53.1989 43.1298 53.2138 43.0075 53.2293C42.4105 53.2956 41.8127 53.3153 41.2127 53.3365C41.1002 53.3407 40.9878 53.3449 40.8719 53.3492C40.5969 53.3595 40.3219 53.3695 40.047 53.3792C40.0572 53.493 40.0572 53.493 40.0677 53.6091C40.3301 56.617 39.9058 59.5749 38.122 62.0833C37.8226 62.481 37.8226 62.481 37.7032 62.9495C37.7653 63.0812 37.8307 63.2113 37.8985 63.3401C37.9717 63.9159 37.9448 64.4164 37.6055 64.9026C37.1995 65.3181 36.8253 65.5421 36.2384 65.5862C35.6611 65.5428 35.2735 65.3237 34.8712 64.9026C34.5584 64.3501 34.4727 63.842 34.632 63.2318C34.8414 62.7037 35.1654 62.4772 35.6734 62.2453C35.9734 62.1603 36.1863 62.1731 36.4947 62.2049C36.8396 62.2194 36.9676 62.2126 37.2336 61.9859C37.4508 61.6994 37.6269 61.4088 37.8009 61.094C37.8342 61.0349 37.8676 60.9759 37.9019 60.915C38.8849 59.1535 39.3026 57.3671 39.2901 55.3506C39.2909 55.2266 39.2916 55.1025 39.2924 54.9747C39.2912 54.3753 39.2828 53.8454 39.0704 53.2815C38.95 53.2579 38.8297 53.2342 38.7057 53.2098C37.7943 53.0267 36.918 52.8195 36.043 52.5003C35.8723 52.4428 35.7014 52.3858 35.5304 52.3294C35.4095 52.2891 35.2887 52.2488 35.1641 52.2073C35.1279 52.3282 35.0916 52.449 35.0543 52.5735C34.9214 52.967 34.7653 53.3442 34.5904 53.721C34.5443 53.8207 34.4983 53.9204 34.4508 54.0231C34.2852 54.2581 34.2852 54.2581 34.0342 54.3527C33.9559 54.3537 33.8776 54.3547 33.797 54.3557C33.7325 54.2913 33.668 54.2268 33.6016 54.1604C33.6311 53.6916 33.8696 53.2846 34.0777 52.8726C34.1121 52.8019 34.1464 52.7312 34.1819 52.6584C34.2157 52.5907 34.2496 52.5231 34.2845 52.4534C34.315 52.392 34.3456 52.3307 34.3771 52.2675C34.4805 52.1097 34.4805 52.1097 34.7735 51.9143C34.6966 51.8763 34.6197 51.8383 34.5404 51.7991C33.3874 51.2069 32.4239 50.4524 31.4746 49.5714C31.247 49.3654 31.011 49.1742 30.7696 48.9847C30.7104 49.0827 30.6513 49.1808 30.5903 49.2818C29.0064 51.8798 26.9926 54.0448 24.0008 54.9783C23.5682 55.1303 23.5682 55.1303 23.3012 55.4857C23.2395 55.6738 23.1831 55.8638 23.1326 56.0552C23.006 56.4677 22.84 56.5801 22.4688 56.7972C21.8666 57.0273 21.4104 57.0178 20.8087 56.7972C20.3789 56.5202 20.1033 56.2229 19.9778 55.7191C19.8901 55.1757 19.9357 54.7345 20.2227 54.2581C20.5417 53.8885 20.9161 53.6683 21.3946 53.5745C21.9936 53.5659 22.3821 53.6853 22.8595 54.0628C22.9145 54.1201 22.9695 54.1773 23.0262 54.2363C23.2587 54.3914 23.2587 54.3914 23.582 54.2836C23.7123 54.2348 23.8417 54.1833 23.9703 54.1299C24.0391 54.1025 24.1079 54.0751 24.1788 54.0469C25.2814 53.5932 26.2554 52.9908 27.1563 52.2073C27.2387 52.1379 27.321 52.0686 27.4058 51.9971C28.2349 51.2802 28.8503 50.4743 29.4329 49.5523C29.474 49.4873 29.5151 49.4224 29.5575 49.3554C29.6727 49.1688 29.7832 48.9805 29.8907 48.7893C29.9248 48.7288 29.959 48.6683 29.9942 48.6059C30.0989 48.41 30.0989 48.41 30.1837 48.1057C30.0968 47.8521 30.0968 47.8521 29.9029 47.6419C29.6192 47.281 29.3593 46.9205 29.1156 46.531C29.0583 46.4402 29.001 46.3493 28.942 46.2556C28.8799 46.1563 28.8799 46.1563 28.8165 46.055C28.7097 46.1255 28.603 46.196 28.493 46.2686C27.1948 47.0771 27.1948 47.0771 26.4727 47.0315C26.4056 46.8057 26.4056 46.8057 26.3751 46.5432C26.6171 46.202 27.0195 46.0607 27.3883 45.8902C27.4527 45.8589 27.5172 45.8276 27.5836 45.7954C27.9504 45.624 28.2197 45.5509 28.6212 45.5667C28.5985 45.5003 28.5759 45.4339 28.5526 45.3655C28.4488 45.0604 28.3458 44.7551 28.2428 44.4497C28.1893 44.2931 28.1893 44.2931 28.1348 44.1333C27.9354 43.5405 27.7672 42.9574 27.6446 42.344C27.5265 42.377 27.4084 42.41 27.2868 42.444C24.3825 43.2424 21.4935 43.3609 18.7036 42.0966C18.6269 42.0627 18.5501 42.0288 18.471 41.9938C18.4037 41.9626 18.3363 41.9313 18.2669 41.8991C18.0093 41.8411 17.904 41.9156 17.6837 42.0511C17.1131 42.3284 16.6448 42.4147 16.0235 42.2464C15.5537 42.007 15.2863 41.7397 15.047 41.2698C14.9072 40.754 14.9086 40.284 15.1244 39.7912C15.4236 39.3303 15.8456 39.0746 16.3653 38.9261C16.9354 38.9261 17.3293 39.0194 17.8118 39.3289C18.315 39.8672 18.383 40.3494 18.3673 41.0745C21.2803 42.2985 24.0173 42.5352 27.0587 41.6604C27.19 41.5975 27.3204 41.5329 27.4493 41.4651C27.453 41.3308 27.453 41.3308 27.4567 41.1938C27.4661 40.857 27.4758 40.5203 27.4857 40.1836C27.4898 40.0387 27.4939 39.8938 27.4979 39.7489C27.5197 38.9501 27.5514 38.158 27.6446 37.3636C27.5826 37.3591 27.5207 37.3546 27.4568 37.35C26.9603 37.3119 26.4731 37.24 25.9845 37.1438C25.8777 37.1232 25.771 37.1025 25.661 37.0813C25.3985 36.9729 25.3985 36.9729 25.2581 36.7303C25.2032 36.4847 25.2032 36.4847 25.3009 36.2893C26.156 36.238 27.0774 36.3769 27.8399 36.7776C27.857 36.7232 27.8742 36.6687 27.8918 36.6126C28.2588 35.4553 28.6591 34.3463 29.2071 33.262C29.1473 33.2424 29.0874 33.2228 29.0257 33.2027C27.7638 32.7864 26.5638 32.3392 25.3985 31.6995C25.2803 31.6367 25.162 31.5739 25.0437 31.5111C23.2895 30.5621 21.4505 29.0981 20.362 27.4103C19.9251 26.6738 19.9251 26.6738 19.2378 26.2304C18.9364 26.2145 18.9364 26.2145 18.6412 26.2307C18.1973 26.2307 17.8998 26.0461 17.586 25.7425C17.277 25.2404 17.2078 24.7557 17.293 24.18C17.43 23.6715 17.6547 23.3792 18.1048 23.1057C18.6436 22.8447 19.0296 22.8395 19.6002 23.0264C20.0232 23.2536 20.3035 23.4953 20.5462 23.9114C20.7348 24.6655 20.609 25.1763 20.2227 25.8401C22.5558 29.0569 25.3135 31.1367 29.1095 32.3831C29.218 32.4192 29.3265 32.4554 29.4383 32.4926C29.7235 32.5066 29.7235 32.5066 29.9636 32.24C30.0531 32.1286 30.1407 32.0154 30.2264 31.9009C30.3205 31.7828 30.4146 31.6646 30.5087 31.5465C30.5536 31.4887 30.5984 31.4309 30.6447 31.3714C31.12 30.762 31.6406 30.24 32.2345 29.7464C32.1657 29.696 32.097 29.6457 32.0262 29.5938C31.6971 29.314 31.4395 29.0099 31.1724 28.6722C31.1226 28.612 31.0727 28.5518 31.0214 28.4898C30.8802 28.312 30.8802 28.312 30.672 27.9886C30.7078 27.773 30.7078 27.773 30.7696 27.5979C30.9859 27.5213 30.9859 27.5213 31.2579 27.5003C31.4841 27.6838 31.4841 27.6838 31.7034 27.9458C31.7792 28.0357 31.855 28.1256 31.9331 28.2182C32.1495 28.493 32.3454 28.7643 32.5274 29.0628C32.5919 29.1595 32.6563 29.2561 32.7227 29.3557C32.8047 29.2953 32.8047 29.2953 32.8883 29.2337C34.0377 28.4058 35.2085 27.7941 36.5313 27.305C36.4916 27.2109 36.4916 27.2109 36.451 27.1149C34.743 23.0448 34.2646 19.2494 35.1641 14.9026C35.0896 14.8503 35.0151 14.7979 34.9383 14.7439C34.5868 14.4333 34.4164 14.1695 34.3516 13.6987C34.3247 13.113 34.4103 12.6388 34.7735 12.1682C35.4012 11.6452 36.2361 11.5882 36.9708 11.9424ZM37.6055 29.0628C37.5395 29.0837 37.4735 29.1046 37.4054 29.1262C34.5097 30.0674 32.1137 32.0237 30.7078 34.744C29.3138 37.6237 29.0095 40.6916 30.0494 43.7478C30.6119 45.304 31.4295 46.5804 32.5274 47.8128C32.6028 47.8981 32.6782 47.9835 32.7559 48.0714C33.3501 48.7021 34.0547 49.1907 34.7735 49.6682C34.8338 49.709 34.8941 49.7497 34.9563 49.7916C35.45 50.1142 35.9584 50.3453 36.5069 50.5594C36.5926 50.5932 36.6783 50.627 36.7666 50.6618C38.8887 51.4828 41.5554 51.6954 43.7579 51.0354C43.9295 50.989 43.9295 50.989 44.1046 50.9416C45.7244 50.4593 47.1851 49.6157 48.4454 48.4964C48.5323 48.4193 48.6191 48.3423 48.7086 48.2629C50.9365 46.1537 52.1577 43.2052 52.254 40.1578C52.2893 37.1766 51.1317 34.3689 49.129 32.1878C49.0221 32.0688 49.0221 32.0688 48.9131 31.9475C47.6749 30.6356 46.0114 29.6934 44.3133 29.1177C44.2457 29.0948 44.1782 29.0718 44.1086 29.0482C43.0437 28.7106 41.9767 28.634 40.8648 28.6355C40.8007 28.6356 40.7366 28.6356 40.6705 28.6357C39.6004 28.6398 38.6232 28.7322 37.6055 29.0628Z" fill="#FEFEFE"/>
<path d="M48.9336 3.37871C48.7079 4.4534 48.4812 5.52784 48.25 6.60137C47.8818 6.73125 47.5857 6.67282 47.2055 6.60861C47.0731 6.58698 46.9407 6.56539 46.8083 6.54384C46.7389 6.53227 46.6695 6.52071 46.598 6.5088C37.373 4.98579 28.337 7.18691 20.7109 12.5584C20.4431 12.3004 20.2124 12.0378 19.9934 11.7375C19.9343 11.6568 19.8752 11.5761 19.8143 11.493C19.7234 11.3678 19.7234 11.3678 19.6306 11.24C19.5094 11.0742 19.3883 10.9084 19.2671 10.7426C19.1872 10.6328 19.1872 10.6328 19.1057 10.5208C18.9587 10.3199 18.8099 10.1205 18.6602 9.92168C18.8044 9.55727 18.992 9.40727 19.3151 9.19231C19.4097 9.12908 19.5043 9.06584 19.6017 9.00069C19.7039 8.93401 19.8061 8.86733 19.9114 8.79863C20.0169 8.72925 20.1223 8.65986 20.231 8.58837C21.2142 7.94784 22.2163 7.35175 23.25 6.79668C23.3755 6.72898 23.3755 6.72898 23.5036 6.65992C30.7177 2.81135 40.9245 0.903384 48.9336 3.37871Z" fill="white"/>
<path d="M10.6523 56.2109C11.0953 56.354 11.2281 56.6957 11.4275 57.0837C12.4494 58.9806 13.7731 60.7887 15.2422 62.3633C15.3567 62.493 15.4706 62.6232 15.584 62.7539C15.6979 62.8841 15.8118 63.0143 15.9258 63.1445C15.9951 63.2242 16.0645 63.3039 16.136 63.386C16.522 63.8235 16.9107 64.2308 17.3571 64.6063C17.5992 64.8162 17.8309 65.0346 18.0634 65.2551C18.6959 65.8531 19.3446 66.406 20.0467 66.9213C20.2369 67.0612 20.4254 67.2033 20.614 67.3453C21.7702 68.2062 22.9862 68.9545 24.2266 69.6875C24.0976 70.1121 23.9318 70.479 23.7131 70.8647C23.6521 70.973 23.591 71.0812 23.5281 71.1928C23.4645 71.3043 23.4009 71.4158 23.3354 71.5308C23.2704 71.6457 23.2054 71.7606 23.1405 71.8756C22.9822 72.1556 22.8233 72.4353 22.6641 72.7148C22.3053 72.6592 22.0495 72.565 21.7413 72.3746C21.6594 72.3242 21.5774 72.2737 21.493 72.2218C21.4062 72.167 21.3193 72.1121 21.2297 72.0557C21.1389 71.9988 21.0481 71.942 20.9546 71.8834C20.1384 71.3667 19.3521 70.815 18.5789 70.2364C18.3668 70.0779 18.1536 69.921 17.9403 69.7642C17.034 69.0911 16.2049 68.364 15.3911 67.5824C15.2102 67.4111 15.0232 67.2484 14.8333 67.0874C14.028 66.3929 13.2926 65.6147 12.6055 64.8047C12.5218 64.7101 12.438 64.6156 12.3518 64.5182C11.0133 63 9.86739 61.3441 8.79688 59.6289C8.74687 59.5489 8.69686 59.4688 8.64534 59.3863C8.50306 59.1568 8.36266 58.9263 8.22314 58.6951C8.18063 58.6259 8.13811 58.5567 8.0943 58.4854C7.99503 58.3176 7.90658 58.1436 7.82031 57.9688C7.94955 57.581 8.09159 57.5578 8.45126 57.3763C8.55978 57.3209 8.66829 57.2654 8.78009 57.2083C8.89439 57.1511 9.0087 57.0939 9.12646 57.0349C9.35109 56.921 9.57565 56.8069 9.80014 56.6927C9.90027 56.6424 10.0004 56.5921 10.1036 56.5403C10.3713 56.4057 10.3713 56.4057 10.6523 56.2109Z" fill="white"/>
<path d="M52.4492 4.35547C53.2094 4.54583 53.9325 4.78819 54.6587 5.08179C54.8162 5.14535 54.8162 5.14535 54.9769 5.2102C56.8783 5.98949 58.6958 6.9116 60.457 7.96875C60.5585 8.02955 60.66 8.09035 60.7645 8.153C63.926 10.1135 67.0371 12.6511 69.3438 15.5859C69.443 15.7064 69.5425 15.8265 69.6428 15.946C69.7365 16.0578 69.7365 16.0578 69.832 16.1719C69.4642 16.5494 69.0794 16.8981 68.6785 17.24C68.6185 17.2913 68.5585 17.3426 68.4966 17.3955C68.0749 17.7541 67.6447 18.0944 67.1953 18.418C66.8788 18.1061 66.573 17.7872 66.2723 17.4601C65.0599 16.1435 63.8298 14.8257 62.4102 13.7305C62.3072 13.6451 62.2046 13.5594 62.1023 13.4734C58.994 10.8819 55.3108 8.93365 51.4727 7.67578C51.5285 7.21091 51.6216 6.7917 51.7721 6.34865C51.8114 6.23189 51.8508 6.11513 51.8913 5.99483C51.9324 5.8748 51.9735 5.75477 52.0159 5.6311C52.0578 5.50721 52.0997 5.38329 52.1416 5.25936C52.2436 4.95788 52.3462 4.65659 52.4492 4.35547Z" fill="white"/>
<path d="M15.7305 12.0703C16.1114 12.447 16.4816 12.8324 16.8474 13.2239C16.9276 13.3086 16.9276 13.3086 17.0093 13.395C17.3969 13.8101 17.7417 14.2468 18.0742 14.707C17.9989 14.7813 17.9237 14.8555 17.8461 14.932C17.5622 15.2123 17.279 15.4934 16.996 15.7746C16.8743 15.8953 16.7524 16.0158 16.6303 16.1362C15.8912 16.8653 15.2002 17.6004 14.5586 18.418C14.4633 18.5327 14.3676 18.647 14.2713 18.7609C11.3227 22.3075 9.33974 26.5275 8.01562 30.918C6.91992 30.6279 5.82422 30.3379 4.69531 30.0391C4.82824 29.3744 4.96857 28.759 5.18359 28.1226C5.21315 28.0349 5.24271 27.9473 5.27317 27.857C6.43674 24.4816 8.056 21.2062 10.1641 18.3203C10.2122 18.2544 10.2602 18.1885 10.3098 18.1206C11.1633 16.9565 12.0572 15.8405 13.0396 14.7826C13.2415 14.5634 13.4375 14.3416 13.6309 14.115C14.2718 13.377 14.9757 12.6909 15.7305 12.0703Z" fill="white"/>
<path d="M65.7305 63.1445C66.1953 63.3581 66.5267 63.6813 66.9023 64.0234C66.9541 64.0702 67.0058 64.117 67.0591 64.1652C67.231 64.321 67.4025 64.4773 67.5737 64.6338C67.6575 64.7099 67.6575 64.7099 67.7429 64.7875C67.9855 65.0107 68.1834 65.2126 68.3672 65.4883C67.5446 66.4784 66.6185 67.3955 65.6328 68.2227C65.5388 68.3036 65.4447 68.3845 65.3479 68.4679C63.6057 69.9644 61.7493 71.253 59.7734 72.4219C59.7106 72.4593 59.6478 72.4968 59.583 72.5354C57.0355 74.0461 54.291 75.1461 51.4727 76.0352C51.3508 76.0756 51.2289 76.116 51.1034 76.1576C50.7808 76.2324 50.6161 76.2078 50.3008 76.1328C50.1892 75.7053 50.078 75.2778 49.967 74.8501C49.9292 74.7046 49.8913 74.5591 49.8533 74.4136C49.7988 74.2047 49.7446 73.9958 49.6904 73.7868C49.6648 73.689 49.6648 73.689 49.6386 73.5892C49.5195 73.1277 49.5195 73.1277 49.5195 72.9102C49.5837 72.8916 49.6478 72.8731 49.7139 72.8539C55.4487 71.1799 60.6534 68.3061 64.8516 64.0234C65.1445 63.7305 65.4375 63.4375 65.7305 63.1445Z" fill="white"/>
<path d="M74.8125 42.7344C75.9571 42.6901 77.0926 42.821 78.2305 42.9298C77.8712 47.879 76.5221 52.6858 74.2314 57.0875C74.1199 57.3026 74.0105 57.5188 73.9012 57.735C73.3958 58.725 72.8455 59.6692 72.2216 60.5892C72.1213 60.7371 72.0218 60.8855 71.9228 61.0343C71.7665 61.2688 71.6083 61.5019 71.4495 61.7347C71.401 61.8075 71.3526 61.8802 71.3026 61.9552C71.2335 62.0547 71.2335 62.0547 71.163 62.1562C71.1027 62.2447 71.1027 62.2447 71.0411 62.335C70.9062 62.461 70.9062 62.461 70.5156 62.461C70.2997 62.3327 70.2997 62.3327 70.0674 62.1543C69.9827 62.09 69.8981 62.0256 69.8109 61.9594C69.7232 61.8913 69.6355 61.8232 69.5452 61.753C69.4579 61.6864 69.3706 61.6198 69.2806 61.5512C68.8746 61.2408 68.4714 60.9272 68.0742 60.6055C68.1345 60.2852 68.2463 60.0827 68.4393 59.8216C68.4946 59.7453 68.55 59.669 68.607 59.5904C68.6669 59.5085 68.7267 59.4265 68.7883 59.3421C69.4512 58.4142 70.0306 57.4576 70.5764 56.4571C70.7036 56.2244 70.8332 55.9932 70.9631 55.762C72.9269 52.2128 74.0039 48.2497 74.5806 44.2565C74.6309 43.9095 74.6851 43.5631 74.7393 43.2166C74.7638 43.0559 74.7882 42.8952 74.8125 42.7344Z" fill="white"/>
<path d="M71.9804 19.1992C72.2331 19.4405 72.4397 19.6708 72.6209 19.9694C72.6659 20.0436 72.711 20.1178 72.7574 20.1943C72.829 20.315 72.829 20.315 72.902 20.4382C72.9783 20.5667 72.9783 20.5667 73.0561 20.6978C75.1649 24.2938 76.6931 28.107 77.5468 32.1875C77.5688 32.2901 77.5908 32.3927 77.6134 32.4984C77.9874 34.2757 78.1553 36.0512 78.2811 37.86C78.2884 37.9642 78.2884 37.9642 78.2958 38.0705C78.321 38.4539 78.3326 38.8345 78.328 39.2188C77.5734 39.3134 76.8297 39.3283 76.0697 39.3225C75.9017 39.3218 75.9017 39.3218 75.7302 39.3212C75.4568 39.32 75.1834 39.3184 74.9101 39.3164C74.9003 39.2069 74.8905 39.0974 74.8804 38.9845C74.6245 36.0088 74.6245 36.0088 74.1288 33.0664C74.1095 32.9736 74.0902 32.8808 74.0703 32.7852C73.2631 28.9712 71.8199 25.058 69.5598 21.8579C69.2458 21.4024 69.2458 21.4024 69.2467 21.1586C69.3941 20.8523 69.6517 20.7117 69.93 20.5344C70.0176 20.4767 70.0176 20.4767 70.1069 20.4178C70.2933 20.2954 70.4807 20.1745 70.6681 20.0537C70.7948 19.9709 70.9214 19.888 71.0479 19.805C71.3579 19.6019 71.6689 19.4002 71.9804 19.1992Z" fill="white"/>
<path d="M3.81641 33.5547C4.94434 33.748 6.07227 33.9414 7.23438 34.1406C7.12747 35.3167 7.12747 35.3167 7.0631 35.8935C6.45862 41.5668 7.02383 47.4527 9.28211 52.738C9.38282 52.9883 9.38282 52.9883 9.38282 53.1836C8.95544 53.3648 8.52788 53.5456 8.10013 53.726C7.95458 53.7874 7.80908 53.849 7.66363 53.9107C7.45482 53.9993 7.24582 54.0874 7.03678 54.1754C6.93896 54.2171 6.93896 54.2171 6.83917 54.2596C6.37772 54.4531 6.37772 54.4531 6.16016 54.4531C4.30327 49.6631 3.30955 44.7953 3.30372 39.646C3.30355 39.5686 3.30339 39.4913 3.30322 39.4116C3.30298 37.4329 3.51542 35.5112 3.81641 33.5547Z" fill="white"/>
<path d="M27.2539 71.25C27.3931 71.3039 27.3931 71.3039 27.5351 71.3589C33.159 73.5247 38.9335 74.4669 44.9316 73.7555C45.3588 73.705 45.7695 73.6764 46.1992 73.6914C46.3404 74.2777 46.4512 74.8673 46.5532 75.4614C46.5664 75.536 46.5796 75.6106 46.5932 75.6874C46.6682 76.1331 46.7099 76.5578 46.6875 77.0117C46.5133 77.186 46.2524 77.1552 46.0157 77.1796C45.8964 77.192 45.777 77.2044 45.654 77.2172C45.5257 77.23 45.3975 77.2427 45.2654 77.2559C45.2001 77.2624 45.1347 77.2689 45.0674 77.2757C44.631 77.3192 44.1944 77.3611 43.7578 77.4023C43.6406 77.4137 43.6406 77.4137 43.5211 77.4254C37.6159 77.981 31.3951 76.8461 25.9844 74.4727C26.0413 74.025 26.1622 73.6632 26.3479 73.2527C26.4005 73.1356 26.453 73.0186 26.5072 72.8979C26.5628 72.7759 26.6184 72.6538 26.6741 72.5317C26.7301 72.4074 26.7862 72.283 26.8421 72.1587C26.9788 71.8555 27.116 71.5526 27.2539 71.25Z" fill="white"/>
<path d="M82.1915 39.9084C82.6797 40.1836 83.0319 40.5374 83.2108 41.0742C83.2659 41.6301 83.2408 42.0654 82.9178 42.539C82.4864 42.9911 82.0798 43.1801 81.453 43.2226C81.0146 43.1912 80.7413 43.083 80.3971 42.8076C80.1804 42.5352 80.0399 42.2662 79.8905 41.9531C79.6663 41.841 79.4924 41.8254 79.2435 41.8005C79.1637 41.7923 79.0839 41.7842 79.0017 41.7757C78.9099 41.7668 78.9099 41.7668 78.8163 41.7578C78.7064 41.2939 78.7064 41.2939 78.8163 41.0742C78.987 41.0645 79.158 41.0615 79.329 41.062C79.735 41.0447 79.735 41.0447 80.0427 40.8106C80.1167 40.6721 80.1887 40.5324 80.2586 40.3918C80.6704 39.7185 81.5126 39.7059 82.1915 39.9084Z" fill="white"/>
<path d="M73.3783 14.6706C73.7489 14.8832 73.9465 15.0942 74.129 15.4885C74.286 16.0909 74.2634 16.5941 73.9745 17.1502C73.728 17.4951 73.4535 17.6909 73.0548 17.8322C72.4758 17.9243 71.9823 17.8811 71.4923 17.5393C71.0965 17.1344 70.815 16.7602 70.8057 16.1774C70.8518 15.5705 71.0941 15.1833 71.5472 14.7744C72.1 14.3917 72.7753 14.3985 73.3783 14.6706Z" fill="white"/>
<path d="M71.5166 63.6446C72.036 63.9988 72.33 64.3783 72.4543 64.9916C72.4919 65.5196 72.3103 66.0551 71.9805 66.4645C71.4949 66.8388 71.0999 66.9229 70.4886 66.8993C69.96 66.8114 69.6018 66.5479 69.2522 66.1532C69.0297 65.5642 68.9682 65.0197 69.2034 64.4259C69.6551 63.5381 70.6284 63.3372 71.5166 63.6446Z" fill="white"/>
<path d="M49.4422 76.5952C49.8664 76.7872 50.1431 77.0038 50.3986 77.4024C50.5743 77.9297 50.5647 78.4703 50.3863 78.9954C50.1052 79.3983 49.7996 79.6854 49.3243 79.8438C48.6953 79.9195 48.1796 79.8345 47.6642 79.4532C47.2941 78.9883 47.1375 78.6058 47.1496 78.0067C47.207 77.5403 47.3918 77.1747 47.7355 76.8542C48.2795 76.4688 48.8076 76.3841 49.4422 76.5952Z" fill="white"/>
<path d="M17.0975 7.67599C17.5353 8.2639 17.6523 8.71579 17.5858 9.43381C17.411 9.93873 17.1404 10.202 16.7069 10.508C16.2421 10.7303 15.8329 10.7354 15.3397 10.6057C14.8791 10.4338 14.5542 10.1918 14.3303 9.73822C14.1724 9.23475 14.1644 8.71916 14.3551 8.22493C14.6563 7.69561 14.9966 7.50356 15.5655 7.30368C16.092 7.26695 16.6439 7.40536 17.0975 7.67599Z" fill="white"/>
<path d="M51.5701 0.156395C52.0866 0.328571 52.3318 0.606742 52.6443 1.0353C52.808 1.52647 52.8472 2.04473 52.65 2.53219C52.4197 2.92216 52.1989 3.21528 51.7654 3.37905C51.137 3.515 50.6755 3.51916 50.1053 3.18374C49.6922 2.8349 49.4632 2.5462 49.3969 2.005C49.3668 1.43216 49.4758 1.10848 49.8123 0.644676C50.3868 0.124915 50.8128 0.0984716 51.5701 0.156395Z" fill="white"/>
<path d="M24.0557 74.4359C24.5205 74.6925 24.7438 75.0476 24.9102 75.5467C24.9861 76.1891 24.8894 76.5809 24.5195 77.1092C24.2967 77.3902 24.0843 77.5018 23.7383 77.5975C23.1881 77.6601 22.698 77.6602 22.2284 77.3419C21.7913 76.9492 21.5624 76.5271 21.5288 75.9373C21.5591 75.4197 21.7204 75.0438 22.0781 74.6678C22.6962 74.2013 23.3512 74.1254 24.0557 74.4359Z" fill="white"/>
<path d="M5.89169 55.4912C6.35651 55.7478 6.57979 56.1028 6.74618 56.602C6.79875 57.2223 6.71117 57.6471 6.35555 58.1645C5.88075 58.6161 5.48389 58.6876 4.84875 58.6802C4.34184 58.6248 4.02754 58.3845 3.68221 58.0119C3.36676 57.5387 3.35561 57.0558 3.42587 56.5043C3.59605 56.0375 3.85362 55.7231 4.28646 55.4789C4.85322 55.2408 5.32926 55.2433 5.89169 55.4912Z" fill="white"/>
<path d="M3.13293 29.8438C3.56764 30.0572 3.83497 30.3261 4.10949 30.7227C4.28932 31.2621 4.28444 31.7911 4.05456 32.3157C3.77764 32.8122 3.36976 32.9875 2.83996 33.1641C2.29403 33.2296 1.93434 33.112 1.47506 32.833C1.08398 32.5219 0.925201 32.1577 0.85403 31.6695C0.83293 31.1874 0.904823 30.8374 1.17981 30.4297C1.79141 29.8651 2.31307 29.7474 3.13293 29.8438Z" fill="white"/>
<path d="M61.8242 57.5781C62.4573 57.594 62.7551 57.8199 63.1914 58.2373C63.2497 58.2887 63.308 58.34 63.368 58.3929C63.5332 58.5471 63.5332 58.5471 63.7773 58.8477C63.7651 59.1299 63.7651 59.1299 63.6797 59.3359C63.5145 59.4073 63.5145 59.4073 63.2891 59.4336C63.0545 59.286 63.0545 59.286 62.8069 59.0735C62.7254 59.0046 62.644 58.9358 62.5601 58.8648C62.4784 58.7947 62.3967 58.7246 62.3125 58.6523C62.2235 58.5856 62.1345 58.5189 62.0428 58.4502C61.8242 58.2617 61.8242 58.2617 61.7388 57.9504C61.7347 57.8598 61.7307 57.7692 61.7266 57.6758C61.7588 57.6436 61.791 57.6113 61.8242 57.5781Z" fill="white"/>
<path d="M56.1449 28.21C56.2144 28.2334 56.2839 28.2568 56.3555 28.281C56.4348 28.4458 56.4348 28.4458 56.4531 28.6716C56.297 28.8724 56.1608 29.001 55.9648 29.1599C55.8808 29.2286 55.7967 29.2973 55.71 29.3682C54.9624 29.948 54.9624 29.948 54.6129 29.9144C54.5087 29.8793 54.5087 29.8793 54.4023 29.8435C54.323 29.6787 54.323 29.6787 54.3047 29.4528C54.4608 29.2521 54.597 29.1235 54.793 28.9646C54.8771 28.8958 54.9612 28.8271 55.0478 28.7563C55.7954 28.1764 55.7954 28.1764 56.1449 28.21Z" fill="white"/>
<path d="M64.7539 21.9336C64.8516 22.1045 64.8516 22.1045 64.8516 22.3242C64.5231 22.6847 64.1601 22.9934 63.7773 23.2947C63.6786 23.3741 63.58 23.4535 63.4783 23.5354C63.1914 23.6914 63.1914 23.6914 62.9106 23.6185C62.8422 23.5781 62.7737 23.5377 62.7031 23.4961C62.7513 23.0888 62.8451 22.9192 63.1609 22.6599C63.2311 22.6021 63.3014 22.5444 63.3737 22.4848C64.2894 21.7788 64.2894 21.7788 64.7539 21.9336Z" fill="white"/>
<path d="M24.324 19.2969C24.6714 19.313 24.7937 19.3758 25.0419 19.6253C25.1152 19.7204 25.1885 19.8154 25.2639 19.9133C25.3377 20.0076 25.4115 20.1019 25.4875 20.1991C25.5547 20.2881 25.6219 20.3771 25.6912 20.4688C25.749 20.5391 25.8067 20.6095 25.8663 20.682C25.9842 20.8594 25.9842 20.8594 25.9536 21.1279C25.9315 21.2004 25.9093 21.2729 25.8865 21.3477C25.7217 21.427 25.7217 21.427 25.4959 21.4453C25.1487 21.1272 24.8377 20.7773 24.5315 20.4199C24.4532 20.3303 24.3749 20.2407 24.2942 20.1483C24.1287 19.8828 24.1287 19.8828 24.1462 19.6112C24.2263 19.3945 24.2263 19.3945 24.324 19.2969Z" fill="white"/>
<path d="M20.3138 13.8897C20.5703 14.0594 20.7249 14.2558 20.9124 14.4993C21.0107 14.6258 21.0107 14.6258 21.1111 14.7548C21.2031 14.8761 21.2031 14.8761 21.2969 14.9998C21.3822 15.1036 21.3822 15.1036 21.4693 15.2096C21.5898 15.3904 21.5898 15.3904 21.5593 15.6589C21.5372 15.7314 21.515 15.804 21.4922 15.8787C21.3311 15.9109 21.1699 15.9431 21.0039 15.9763C20.8278 15.7778 20.6531 15.5784 20.479 15.3782C20.4294 15.3225 20.3798 15.2669 20.3287 15.2096C20.0314 14.8653 19.8334 14.5763 19.7344 14.1208C19.8716 13.8464 20.0225 13.7943 20.3138 13.8897Z" fill="white"/>
<path d="M64.5586 59.8245C64.784 59.7799 64.784 59.7799 65.0469 59.8245C65.2944 60.0065 65.2944 60.0065 65.5413 60.2456C65.8786 60.5715 65.8786 60.5715 66.2474 60.859C66.3024 60.9044 66.3574 60.9497 66.4141 60.9964C66.4385 61.3076 66.4385 61.3076 66.4141 61.5823C66.2107 61.6639 66.2107 61.6639 65.9258 61.68C65.6851 61.5122 65.4855 61.3527 65.2727 61.1551C64.8937 60.7936 64.8937 60.7936 64.4609 60.5081C64.3877 60.325 64.3877 60.325 64.3633 60.1175C64.4277 60.0208 64.4922 59.9241 64.5586 59.8245Z" fill="white"/>
<path d="M59.3935 55.291C59.8238 55.3532 60.0649 55.6051 60.3838 55.8873C60.4771 55.965 60.4771 55.965 60.5722 56.0442C61.0204 56.4328 61.0204 56.4328 61.133 56.7864C61.1355 56.8542 61.138 56.9221 61.1406 56.992C60.9232 57.108 60.9232 57.108 60.6523 57.1873C60.4364 57.0774 60.4364 57.0774 60.2251 56.8943C60.1499 56.8301 60.0748 56.7659 59.9974 56.6998C59.9235 56.6351 59.8496 56.5704 59.7734 56.5037C59.7046 56.4511 59.6357 56.3985 59.5648 56.3443C59.1019 55.9856 59.1019 55.9856 59.041 55.6431C59.1043 55.3663 59.1155 55.3461 59.3935 55.291Z" fill="white"/>
<path d="M67.4152 62.0381C67.7797 62.0816 67.9107 62.232 68.172 62.4852C68.4874 62.7867 68.8041 63.0715 69.1486 63.3397C69.1163 63.5008 69.0841 63.6619 69.0509 63.8279C68.8785 63.892 68.8785 63.892 68.6603 63.9256C68.3696 63.7742 68.1299 63.5495 67.879 63.3397C67.805 63.2821 67.731 63.2246 67.6547 63.1653C67.5482 63.0794 67.5482 63.0794 67.4396 62.9918C67.3414 62.913 67.3414 62.913 67.2412 62.8327C67.0978 62.6561 67.0978 62.6561 67.0703 62.397C67.1064 62.0957 67.116 62.0817 67.4152 62.0381Z" fill="white"/>
<path d="M58.9939 26.0498C59.0577 26.0773 59.1215 26.1047 59.1873 26.133C59.2251 26.3939 59.2251 26.3939 59.1873 26.7189C58.9862 26.9227 58.8138 27.0703 58.5831 27.2316C58.5266 27.2739 58.4701 27.3162 58.412 27.3598C58.1019 27.5868 57.8043 27.795 57.4295 27.8908C57.1365 27.6955 57.1365 27.6955 57.0713 27.478C57.1789 27.0311 57.5269 26.845 57.8873 26.5846C57.9577 26.5301 58.0281 26.4756 58.1007 26.4195C58.6249 26.0317 58.6249 26.0317 58.9939 26.0498Z" fill="white"/>
<path d="M29.2071 24.8635C29.4367 25.0874 29.4367 25.0874 29.6587 25.37C29.7325 25.4621 29.8063 25.5541 29.8823 25.6489C30.0811 25.9308 30.2337 26.2113 30.379 26.5236C30.1836 26.8166 30.1836 26.8166 29.9658 26.8788C29.5297 26.7785 29.3427 26.4592 29.0789 26.1147C29.0252 26.0489 28.9715 25.9831 28.9162 25.9154C28.5324 25.4266 28.5324 25.4266 28.4888 25.0599C28.5002 24.9951 28.5117 24.9302 28.5235 24.8635C28.7973 24.7265 28.9182 24.7673 29.2071 24.8635Z" fill="white"/>
<path d="M61.7113 24.0108C61.7808 24.0342 61.8503 24.0576 61.9219 24.0818C61.9541 24.2429 61.9863 24.404 62.0195 24.57C61.7711 24.7698 61.5203 24.9662 61.2688 25.1621C61.1984 25.2188 61.1279 25.2755 61.0554 25.3339C60.9864 25.3871 60.9175 25.4403 60.8465 25.4951C60.7836 25.5447 60.7207 25.5943 60.6559 25.6454C60.3933 25.7728 60.243 25.7244 59.9688 25.6443C59.8894 25.4795 59.8894 25.4795 59.8711 25.2536C60.0272 25.0529 60.1634 24.9243 60.3594 24.7653C60.4435 24.6966 60.5276 24.6279 60.6142 24.5571C61.3618 23.9772 61.3618 23.9772 61.7113 24.0108Z" fill="white"/>
<path d="M22.3965 16.6158C22.756 16.8066 22.9725 17.059 23.2315 17.3681C23.2805 17.4229 23.3296 17.4776 23.3801 17.534C23.6286 17.8269 23.7325 17.9685 23.7698 18.3614C23.7593 18.4445 23.7489 18.5276 23.7381 18.6132C23.5218 18.6903 23.5218 18.6903 23.2498 18.7109C23.0236 18.5239 23.0236 18.5239 22.8043 18.2592C22.7316 18.1734 22.659 18.0875 22.5841 17.999C22.5138 17.9117 22.4434 17.8243 22.3709 17.7343C22.298 17.6496 22.2251 17.5649 22.15 17.4776C21.9377 17.1879 21.9476 17.0111 21.9803 16.6601C22.1756 16.5624 22.1756 16.5624 22.3965 16.6158Z" fill="white"/>
<path d="M28.737 64.6456C28.8246 64.6758 28.8246 64.6758 28.914 64.7066C29.0249 65.0301 29.0049 65.1859 28.8572 65.4917C28.8051 65.6008 28.8051 65.6008 28.7521 65.7122C28.7149 65.7872 28.6777 65.8622 28.6394 65.9395C28.6033 66.0153 28.5672 66.0911 28.5301 66.1692C28.2599 66.7279 28.2599 66.7279 28.0351 66.9527C27.7788 66.9161 27.7788 66.9161 27.5468 66.8551C27.4368 66.5329 27.4555 66.3757 27.6002 66.07C27.6345 65.9972 27.6687 65.9245 27.704 65.8495C27.7407 65.7745 27.7775 65.6994 27.8154 65.6221C27.8506 65.5464 27.8859 65.4706 27.9222 65.3925C28.3148 64.5732 28.3148 64.5732 28.737 64.6456Z" fill="white"/>
<path d="M26.4727 22.0312C27.0266 22.09 27.2164 22.369 27.5591 22.7785C27.6195 22.8542 27.68 22.9299 27.7422 23.0078C27.7885 23.0643 27.8349 23.1209 27.8826 23.1791C28.0718 23.4307 28.1361 23.5563 28.1084 23.8745C28.0843 23.943 28.0601 24.0115 28.0352 24.082C27.9385 24.1143 27.8418 24.1465 27.7422 24.1797C27.1616 23.7881 26.5553 23.1619 26.2915 22.5077C26.2774 22.3242 26.2774 22.3242 26.4727 22.0312Z" fill="white"/>
<path d="M70.3203 17.7343C70.418 17.9052 70.418 17.9052 70.418 18.1249C70.0895 18.4854 69.7265 18.7941 69.3438 19.0954C69.2451 19.1748 69.1464 19.2542 69.0447 19.3361C68.7578 19.4921 68.7578 19.4921 68.4771 19.4192C68.4086 19.3788 68.3401 19.3384 68.2695 19.2968C68.2966 18.9564 68.3488 18.8273 68.5911 18.5789C68.6844 18.5056 68.7777 18.4323 68.8738 18.3568C68.9658 18.2831 69.0578 18.2093 69.1526 18.1333C69.9115 17.598 69.9115 17.598 70.3203 17.7343Z" fill="white"/>
<path d="M17.9088 11.1602C18.2615 11.2026 18.346 11.3297 18.5684 11.6008C18.6351 11.6811 18.7018 11.7614 18.7705 11.8441C18.8307 11.9189 18.8909 11.9937 18.9529 12.0707C19.0314 12.1614 19.11 12.252 19.1909 12.3454C19.3425 12.5576 19.4238 12.6896 19.4412 12.9496C19.3767 13.0463 19.3123 13.143 19.2459 13.2426C18.8069 13.1968 18.6402 13.0654 18.3608 12.7299C18.261 12.6106 18.261 12.6106 18.159 12.4888C18.0987 12.4153 18.0384 12.3418 17.9763 12.266C17.8555 12.1331 17.8555 12.1331 17.7322 11.9975C17.5593 11.7382 17.5432 11.5953 17.5857 11.2895C17.6834 11.1918 17.6834 11.1918 17.9088 11.1602Z" fill="white"/>
<path d="M56.7762 53.0479C57.1355 53.1005 57.2749 53.257 57.5334 53.5075C57.8707 53.8334 57.8707 53.8334 58.2395 54.1209C58.2946 54.1662 58.3496 54.2116 58.4062 54.2583C58.4307 54.5695 58.4307 54.5695 58.4062 54.8442C58.2338 54.9083 58.2338 54.9083 58.0156 54.9418C57.834 54.8472 57.834 54.8472 57.6494 54.6977C57.5823 54.6436 57.5152 54.5894 57.4461 54.5337C57.3762 54.475 57.3064 54.4164 57.2344 54.3559C57.125 54.2679 57.125 54.2679 57.0135 54.1781C56.4783 53.7342 56.4783 53.7342 56.3703 53.4686C56.3654 53.4069 56.3605 53.3452 56.3555 53.2817C56.5508 53.0864 56.5508 53.0864 56.7762 53.0479Z" fill="white"/>
<path d="M69.3804 40.6657C69.4753 40.6645 69.5702 40.6633 69.668 40.662C69.8047 40.6618 69.8047 40.6618 69.9442 40.6615C70.0279 40.6611 70.1117 40.6607 70.198 40.6602C70.418 40.684 70.418 40.684 70.7109 40.8793C70.7292 41.1356 70.7292 41.1356 70.7109 41.3676C70.09 41.678 69.0422 41.4867 68.3672 41.3676C68.2695 41.2699 68.2695 41.2699 68.2573 41.0258C68.2852 40.4682 68.9445 40.6659 69.3804 40.6657Z" fill="white"/>
<path d="M67.4883 19.785C67.5859 19.8826 67.5859 19.8826 67.639 20.0939C67.5515 20.5505 67.198 20.7314 66.8352 20.9935C66.7648 21.048 66.6943 21.1025 66.6218 21.1586C66.0975 21.5464 66.0975 21.5464 65.7286 21.5283C65.6647 21.5008 65.6009 21.4734 65.5352 21.4451C65.4375 21.1521 65.4375 21.1521 65.5352 20.8592C65.7659 20.67 65.7659 20.67 66.054 20.4685C66.1482 20.4021 66.2425 20.3356 66.3397 20.2671C66.4287 20.2047 66.5177 20.1423 66.6094 20.0779C66.6799 20.022 66.7504 19.9661 66.823 19.9086C67.0555 19.7462 67.2109 19.755 67.4883 19.785Z" fill="white"/>
<path d="M25.3984 70.8594C25.759 70.927 25.759 70.927 25.8867 71.0547C25.8527 71.6231 25.6709 72.0231 25.3923 72.5134C25.3555 72.5802 25.3187 72.647 25.2808 72.7158C25.1907 72.8788 25.0994 73.041 25.0078 73.2031C24.8467 73.1709 24.6855 73.1387 24.5195 73.1055C24.4195 72.8529 24.3987 72.6791 24.4946 72.4228C24.6066 72.1988 24.7257 71.9806 24.8491 71.7627C24.8907 71.6865 24.9322 71.6104 24.975 71.5319C25.2789 70.9789 25.2789 70.9789 25.3984 70.8594Z" fill="white"/>
<path d="M44.1484 56.6016C44.3444 56.6296 44.5399 56.662 44.7343 56.6992C44.8027 56.9818 44.8696 57.2645 44.9357 57.5476C44.9552 57.6274 44.9746 57.7071 44.9947 57.7893C45.0904 58.2041 45.1625 58.5279 45.0273 58.9453C44.8662 58.9775 44.705 59.0098 44.539 59.043C44.3216 58.7168 44.2662 58.4728 44.185 58.0908C44.1596 57.9745 44.1342 57.8582 44.108 57.7383C44.0509 57.3839 44.0336 57.0575 44.0507 56.6992C44.083 56.667 44.1152 56.6348 44.1484 56.6016Z" fill="white"/>
<path d="M53.8164 50.8398C54.4495 50.8557 54.7473 51.0816 55.1836 51.499C55.2419 51.5504 55.3002 51.6017 55.3602 51.6547C55.5254 51.8088 55.5254 51.8088 55.7695 52.1094C55.7573 52.3917 55.7573 52.3917 55.6719 52.5977C55.5752 52.6299 55.4785 52.6621 55.3789 52.6953C55.1653 52.5755 54.9873 52.452 54.793 52.3047C54.7099 52.2454 54.6268 52.1861 54.5412 52.125C54.4531 52.0594 54.365 51.9938 54.2742 51.9263C54.19 51.8641 54.1057 51.8019 54.019 51.7378C53.7691 51.4734 53.7372 51.2962 53.7188 50.9375C53.751 50.9053 53.7832 50.873 53.8164 50.8398Z" fill="white"/>
<path d="M58.8761 40.2747C58.9655 40.2735 59.055 40.2723 59.1471 40.2711C59.2336 40.2709 59.32 40.2707 59.409 40.2705C59.4882 40.2701 59.5673 40.2697 59.6489 40.2693C59.8922 40.2953 60.0511 40.3666 60.2616 40.4883C60.1761 40.9644 60.1761 40.9644 60.0663 41.0743C59.8345 41.0841 59.6025 41.0869 59.3705 41.0865C59.2433 41.0867 59.1162 41.087 58.9852 41.0872C57.995 41.0538 57.995 41.0538 57.8202 40.8789C57.808 40.6348 57.808 40.6348 57.8202 40.3907C58.0434 40.1675 58.5764 40.2749 58.8761 40.2747Z" fill="white"/>
<path d="M15.2421 33.9453C15.9069 33.9822 16.8453 34.0626 17.3783 34.479C17.4882 34.6289 17.4882 34.6289 17.4576 34.8425C17.4355 34.9009 17.4133 34.9594 17.3905 35.0195C17.0899 35.1143 16.89 35.1154 16.5841 35.0447C16.5069 35.0272 16.4297 35.0097 16.3502 34.9917C16.2705 34.9727 16.1909 34.9537 16.1088 34.9341C16.0283 34.9158 15.9479 34.8976 15.865 34.8788C15.2735 34.7423 15.2735 34.7423 15.0468 34.6289C15.0345 34.397 15.0345 34.397 15.0468 34.1406C15.1112 34.0762 15.1757 34.0117 15.2421 33.9453Z" fill="white"/>
<path d="M46.4923 17.832C46.7486 17.8687 46.7486 17.8687 46.9805 17.9297C47.0792 18.2364 47.0744 18.4272 46.9878 18.7361C46.9663 18.8133 46.9449 18.8904 46.9227 18.97C46.8995 19.0496 46.8763 19.1293 46.8524 19.2114C46.8303 19.2919 46.8082 19.3723 46.7854 19.4552C46.6159 20.0521 46.6159 20.0521 46.3946 20.2734C46.1382 20.2368 46.1382 20.2368 45.9063 20.1758C45.8864 19.665 45.9522 19.2185 46.0894 18.7292C46.1064 18.6641 46.1234 18.599 46.1409 18.5318C46.2215 18.2361 46.272 18.0523 46.4923 17.832Z" fill="white"/>
<path d="M26.961 67.7344C27.2173 67.8259 27.2173 67.8259 27.4493 67.9297C27.3954 68.4461 27.221 68.8288 26.9793 69.2786C26.9457 69.345 26.9122 69.4114 26.8776 69.4798C26.6219 69.9609 26.6219 69.9609 26.3744 70.0547C26.1797 70.0781 26.1797 70.0781 25.9844 69.9805C25.9298 69.4211 26.11 69.0634 26.3628 68.5828C26.3985 68.5117 26.4341 68.4406 26.4708 68.3674C26.7382 67.8458 26.7382 67.8458 26.961 67.7344Z" fill="white"/>
<path d="M29.988 61.4844C30.2444 61.521 30.2444 61.521 30.4763 61.582C30.5333 62.1462 30.3438 62.5036 30.0857 62.9858C30.0484 63.0577 30.0112 63.1296 29.9728 63.2037C29.8813 63.3798 29.7883 63.5552 29.6951 63.7305C29.5017 63.7305 29.3084 63.7305 29.1091 63.7305C29.0184 63.4861 28.9891 63.3083 29.0735 63.0586C29.1707 62.8494 29.275 62.646 29.3838 62.4426C29.4379 62.3366 29.4379 62.3366 29.4931 62.2284C29.7609 61.7115 29.7609 61.7115 29.988 61.4844Z" fill="white"/>
<path d="M44.9296 60.0195C45.0932 60.0475 45.2561 60.0799 45.4179 60.1172C45.484 60.3631 45.5489 60.6093 45.6132 60.8557C45.6318 60.9245 45.6504 60.9933 45.6696 61.0642C45.7849 61.5108 45.8279 61.9021 45.8085 62.3633C45.3446 62.4731 45.3446 62.4731 45.1249 62.3633C45.0249 62.0868 44.9732 61.796 44.9113 61.5088C44.8927 61.4295 44.8741 61.3502 44.855 61.2685C44.7647 60.8592 44.6927 60.5259 44.8319 60.1172C44.8642 60.085 44.8964 60.0527 44.9296 60.0195Z" fill="white"/>
<path d="M31.4531 58.3594C31.6143 58.3594 31.7754 58.3594 31.9414 58.3594C32.066 58.7579 32.0426 58.9951 31.8666 59.3623C31.7874 59.511 31.7065 59.6589 31.624 59.8059C31.5841 59.8816 31.5442 59.9573 31.5031 60.0354C31.2001 60.5922 31.2001 60.5922 30.8672 60.7031C30.7705 60.6387 30.6738 60.5742 30.5742 60.5078C30.6208 59.9388 30.7883 59.5423 31.0686 59.0491C31.1054 58.9823 31.1422 58.9155 31.1802 58.8467C31.2702 58.6837 31.3615 58.5215 31.4531 58.3594Z" fill="white"/>
<path d="M9.67578 54.6489C9.70801 54.81 9.74023 54.9712 9.77344 55.1372C9.35945 55.4282 8.95247 55.6496 8.4856 55.8513C8.39543 55.8918 8.39543 55.8918 8.30344 55.9331C7.85591 56.1256 7.85591 56.1256 7.52734 56.0161C7.43579 55.8391 7.43579 55.8391 7.42969 55.6255C7.73848 55.2417 8.11534 55.0634 8.55273 54.8625C8.61757 54.8309 8.6824 54.7992 8.74919 54.7666C9.33529 54.4934 9.33529 54.4934 9.67578 54.6489Z" fill="white"/>
<path d="M19.2461 50.2537C19.2442 50.4715 19.2442 50.4715 19.1484 50.742C18.9179 50.9224 18.6621 51.0397 18.3977 51.1631C18.3285 51.1982 18.2594 51.2332 18.1881 51.2694C17.7764 51.4689 17.4673 51.5667 17 51.5232C16.9678 51.3621 16.9355 51.201 16.9023 51.035C17.3358 50.7487 17.7729 50.4897 18.239 50.2598C18.326 50.2166 18.413 50.1735 18.5026 50.129C18.8203 50.0411 18.9591 50.1043 19.2461 50.2537Z" fill="white"/>
<path d="M47.2734 14.5118C47.4687 14.5077 47.6641 14.5079 47.8594 14.5118C47.8916 14.5441 47.9238 14.5763 47.957 14.6095C47.9201 15.2368 47.8206 16.4061 47.3711 16.8556C47.127 16.8678 47.127 16.8678 46.8828 16.8556C46.8506 16.8234 46.8184 16.7911 46.7852 16.7579C46.8249 15.9754 47.0456 15.2569 47.2734 14.5118Z" fill="white"/>
<path d="M48.25 11.0938C48.446 11.1218 48.6415 11.1542 48.8359 11.1914C48.8014 11.9566 48.6785 12.7411 48.3477 13.4375C48.1573 13.5348 48.1573 13.5348 47.957 13.5352C47.8604 13.4707 47.7637 13.4063 47.6641 13.3398C47.8084 11.5353 47.8084 11.5353 48.25 11.0938Z" fill="white"/>
<path d="M45.6134 63.4375C45.8454 63.4558 45.8454 63.4558 46.1017 63.5352C46.309 63.9366 46.3837 64.3765 46.4679 64.8169C46.4827 64.8868 46.4974 64.9566 46.5126 65.0286C46.6132 65.5512 46.6132 65.5512 46.3947 65.8789C46.1628 65.8606 46.1628 65.8606 45.9064 65.7812C45.6992 65.3798 45.6244 64.9399 45.5402 64.4995C45.5255 64.4296 45.5107 64.3598 45.4956 64.2878C45.395 63.7652 45.395 63.7652 45.6134 63.4375Z" fill="white"/>
<path d="M8.60512 32.4619C9.03234 32.4821 9.40549 32.5643 9.81629 32.6755C9.88773 32.6942 9.95917 32.7128 10.0328 32.732C10.207 32.7775 10.3809 32.8241 10.5548 32.8708C10.6158 33.1028 10.6158 33.1028 10.6525 33.3591C10.4572 33.5544 10.4572 33.5544 10.2691 33.5659C9.55155 33.4931 8.89314 33.296 8.21106 33.0662C8.20689 32.9035 8.20709 32.7406 8.21106 32.5779C8.30872 32.4802 8.30872 32.4802 8.60512 32.4619Z" fill="white"/>
<path d="M50.1055 4.35547C50.3619 4.39209 50.3619 4.39209 50.5938 4.45312C50.6925 4.75982 50.6877 4.95067 50.6011 5.25955C50.5796 5.33672 50.5581 5.41389 50.536 5.49339C50.5128 5.57308 50.4896 5.65276 50.4656 5.73486C50.4435 5.8153 50.4215 5.89574 50.3987 5.97862C50.2292 6.57557 50.2292 6.57557 50.0079 6.79688C49.7515 6.76025 49.7515 6.76025 49.5196 6.69922C49.4997 6.18842 49.5654 5.74189 49.7027 5.25269C49.7197 5.18754 49.7367 5.12239 49.7542 5.05527C49.8348 4.75949 49.8853 4.57575 50.1055 4.35547Z" fill="white"/>
<path d="M47.0783 70.2734C47.2419 70.3014 47.4049 70.3338 47.5666 70.3711C47.6327 70.617 47.6976 70.8632 47.7619 71.1096C47.7805 71.1784 47.7992 71.2472 47.8184 71.3181C47.9336 71.7647 47.9766 72.156 47.9572 72.6172C47.7961 72.6494 47.635 72.6816 47.4689 72.7148C47.2121 72.334 47.0998 71.9913 47.0051 71.543C46.9794 71.4261 46.9537 71.3093 46.9272 71.189C46.8853 70.8762 46.8903 70.6707 46.9807 70.3711C47.0129 70.3389 47.0451 70.3066 47.0783 70.2734Z" fill="white"/>
<path d="M46.8829 66.9532C46.9512 67.2358 47.0181 67.5186 47.0843 67.8016C47.1037 67.8814 47.1232 67.9611 47.1432 68.0433C47.2389 68.4581 47.311 68.7819 47.1758 69.1993C47.0147 69.2316 46.8536 69.2638 46.6875 69.297C46.4679 68.9675 46.4061 68.6708 46.3335 68.2899C46.3204 68.2263 46.3074 68.1626 46.2939 68.0971C46.218 67.7105 46.1858 67.3468 46.1993 66.9532C46.4597 66.823 46.6062 66.8877 46.8829 66.9532Z" fill="white"/>
<path d="M33.0156 55.2344C33.272 55.271 33.272 55.271 33.5039 55.332C33.5881 55.568 33.6134 55.6876 33.532 55.9284C33.4946 56 33.4573 56.0716 33.4188 56.1453C33.3589 56.2624 33.3589 56.2624 33.2977 56.3818C33.255 56.4624 33.2122 56.543 33.1682 56.626C33.1259 56.7081 33.0835 56.7901 33.0398 56.8747C32.9352 57.0772 32.8294 57.2791 32.7227 57.4805C32.5615 57.4805 32.4004 57.4805 32.2344 57.4805C32.1277 57.3098 32.1277 57.3098 32.0391 57.0898C32.0855 56.8962 32.0855 56.8962 32.184 56.6954C32.219 56.6226 32.254 56.5499 32.2901 56.4749C32.3281 56.3999 32.3661 56.3249 32.4053 56.2476C32.4418 56.1718 32.4783 56.096 32.5159 56.0179C32.7881 55.4619 32.7881 55.4619 33.0156 55.2344Z" fill="white"/>
<path d="M12.8987 53.1838C12.8987 53.3449 12.8987 53.5061 12.8987 53.6721C12.6331 53.8202 12.3662 53.9661 12.0991 54.1115C12.024 54.1535 11.9489 54.1954 11.8716 54.2386C11.1633 54.6216 11.1633 54.6216 10.7502 54.551C10.6526 54.4533 10.6526 54.4533 10.6465 54.2031C10.6485 54.1245 10.6505 54.046 10.6526 53.9651C10.8905 53.8366 11.1285 53.7085 11.3667 53.5805C11.4341 53.5441 11.5015 53.5077 11.571 53.4701C11.6361 53.4352 11.7013 53.4002 11.7684 53.3642C11.8581 53.3159 11.8581 53.3159 11.9497 53.2666C12.3108 53.0884 12.5151 53.0905 12.8987 53.1838Z" fill="white"/>
<path d="M22.2737 48.6917C22.3059 48.8528 22.3381 49.0139 22.3713 49.18C22.1236 49.3091 21.8754 49.4371 21.6267 49.5645C21.5223 49.6191 21.5223 49.6191 21.4158 49.6749C21.0196 49.8766 20.6741 50.0262 20.2229 50.0589C20.1252 49.9612 20.1252 49.9612 20.0947 49.7293C20.1252 49.4729 20.1252 49.4729 20.2832 49.3303C20.5616 49.1504 20.8453 49.0051 21.1445 48.8626C21.3075 48.7833 21.3075 48.7833 21.4737 48.7024C21.8006 48.5887 21.9494 48.5874 22.2737 48.6917Z" fill="white"/>
<path d="M63.3871 40.4483C63.582 40.4887 63.582 40.4887 63.7773 40.6841C63.725 41.0293 63.725 41.0293 63.582 41.1723C63.4401 41.182 63.2978 41.1851 63.1555 41.1853C63.0258 41.1855 63.0258 41.1855 62.8935 41.1857C62.8025 41.1853 62.7114 41.1849 62.6177 41.1845C62.5274 41.1849 62.4372 41.1853 62.3442 41.1857C62.2574 41.1856 62.1707 41.1854 62.0813 41.1853C62.0017 41.1852 61.922 41.1851 61.8399 41.185C61.6289 41.1723 61.6289 41.1723 61.3359 41.0747C61.2505 40.8916 61.2505 40.8916 61.2383 40.6841C61.6644 40.098 62.7484 40.3931 63.3871 40.4483Z" fill="white"/>
<path d="M12.8435 33.3352C12.9712 33.3601 12.9712 33.3601 13.1016 33.3856C13.1835 33.4027 13.2653 33.4198 13.3497 33.4374C13.4247 33.4529 13.4996 33.4683 13.5769 33.4843C13.8087 33.566 13.9206 33.6541 14.0703 33.8479C14.0398 34.0615 14.0398 34.0615 13.9727 34.2385C13.4943 34.3884 13.107 34.277 12.636 34.1592C12.5606 34.1417 12.4853 34.1243 12.4077 34.1063C11.8501 33.9715 11.8501 33.9715 11.6289 33.7502C11.6533 33.5 11.6533 33.5 11.7266 33.262C12.0766 33.0869 12.4728 33.2566 12.8435 33.3352Z" fill="white"/>
<path d="M4.98828 31.6992C5.67306 31.7324 6.73445 31.7852 7.23438 32.2852C7.19775 32.5415 7.19775 32.5415 7.13672 32.7734C6.5994 32.796 6.14663 32.7183 5.62915 32.5781C5.55771 32.5595 5.48627 32.5409 5.41267 32.5217C5.23846 32.4761 5.06451 32.4296 4.89062 32.3828C4.82959 32.1509 4.82959 32.1509 4.79297 31.8945C4.85742 31.8301 4.92187 31.7656 4.98828 31.6992Z" fill="white"/>
<path d="M47.7617 73.6914C47.9253 73.7193 48.0882 73.7517 48.25 73.7891C48.4898 74.4431 48.7277 75.1373 48.7383 75.8398C48.6082 76.0203 48.6082 76.0203 48.4453 76.1328C48.2439 76.1389 48.2439 76.1389 48.0547 76.0352C47.9448 75.791 47.9448 75.791 47.8593 75.4492C47.8412 75.381 47.8231 75.3128 47.8044 75.2425C47.6809 74.7467 47.6367 74.2996 47.664 73.7891C47.6963 73.7568 47.7285 73.7246 47.7617 73.6914Z" fill="white"/>
<path d="M15.9258 51.621C15.9902 51.7499 16.0547 51.8788 16.1211 52.0116C15.7942 52.3877 15.4421 52.5706 14.998 52.7746C14.9008 52.822 14.9008 52.822 14.8016 52.8705C14.3242 53.093 14.3242 53.093 14.0245 53.0565C13.9752 53.0339 13.9258 53.0114 13.875 52.9882C13.8428 52.827 13.8105 52.6659 13.7773 52.4999C14.3971 52.0477 15.1374 51.5697 15.9258 51.621Z" fill="white"/>
<path d="M74.0312 40.8791C74.0957 40.9435 74.1602 41.008 74.2266 41.0744C74.1899 41.3308 74.1899 41.3308 74.1289 41.5627C73.7932 41.5655 73.4575 41.5673 73.1218 41.5688C72.9788 41.57 72.9788 41.57 72.8329 41.5713C72.7413 41.5716 72.6497 41.5719 72.5553 41.5722C72.4288 41.573 72.4288 41.573 72.2996 41.5738C72.0781 41.5627 72.0781 41.5627 71.7852 41.465C71.7852 41.2717 71.7852 41.0783 71.7852 40.8791C72.3636 40.5899 73.4083 40.7499 74.0312 40.8791Z" fill="white"/>
<path d="M21.9803 35.5078C22.5807 35.5128 23.7897 35.5593 24.2264 35.9961C24.2386 36.2402 24.2386 36.2402 24.2264 36.4844C24.1942 36.5166 24.162 36.5488 24.1288 36.582C23.5284 36.577 22.3194 36.5305 21.8827 36.0938C21.8705 35.8496 21.8705 35.8496 21.8827 35.6055C21.9149 35.5732 21.9471 35.541 21.9803 35.5078Z" fill="white"/>
<path d="M45.7598 21.2383C46.0039 21.2505 46.0039 21.2505 46.1016 21.3481C46.1099 22.1318 45.8607 22.8601 45.6133 23.5942C45.3813 23.6064 45.3813 23.6064 45.125 23.5942C45.0605 23.5298 44.9961 23.4653 44.9297 23.3989C44.943 23.204 44.943 23.204 44.9968 22.9656C45.0162 22.8792 45.0356 22.7929 45.0556 22.7039C45.4127 21.2556 45.4127 21.2556 45.7598 21.2383Z" fill="white"/>
<path d="M49.7148 7.7737C49.7752 8.52888 49.579 9.21335 49.3241 9.92214C49.2597 9.98659 49.1952 10.051 49.1288 10.1174C48.8725 10.0808 48.8725 10.0808 48.6405 10.0198C48.4918 9.55391 48.6282 9.19577 48.7565 8.73806C48.777 8.65761 48.7974 8.57717 48.8185 8.4943C48.8397 8.41738 48.8609 8.34046 48.8828 8.26122C48.9018 8.19108 48.9208 8.12095 48.9404 8.04869C49.1247 7.6885 49.3503 7.65221 49.7148 7.7737Z" fill="white"/>
<path d="M25.3984 47.1285C25.496 47.2262 25.496 47.2262 25.5021 47.4764C25.5001 47.555 25.4981 47.6335 25.496 47.7145C25.2461 47.8434 24.9959 47.9714 24.7453 48.099C24.6749 48.1354 24.6044 48.1719 24.5319 48.2094C23.8165 48.572 23.8165 48.572 23.4453 48.5934C23.2499 48.3981 23.2499 48.3981 23.2393 48.168C23.408 47.7657 23.7217 47.6662 24.1044 47.4886C24.1744 47.4536 24.2444 47.4185 24.3165 47.3824C24.6842 47.205 24.9807 47.0688 25.3984 47.1285Z" fill="white"/>
<path d="M18.5624 34.7266C19.0899 34.7617 19.6007 34.8472 20.1188 34.9524C20.2802 34.9851 20.2802 34.9851 20.4449 35.0184C20.7108 35.1172 20.7108 35.1172 20.8455 35.3228C20.8655 35.3839 20.8855 35.4449 20.9061 35.5078C20.8094 35.6528 20.8094 35.6528 20.7108 35.8008C20.1942 35.8517 19.7494 35.7518 19.2582 35.6116C19.1922 35.5938 19.1263 35.5759 19.0583 35.5576C18.5769 35.4247 18.5769 35.4247 18.4647 35.3125C18.4525 35.0684 18.4525 35.0684 18.4647 34.8242C18.4969 34.792 18.5292 34.7598 18.5624 34.7266Z" fill="white"/>
<path d="M65.5722 40.497C65.695 40.5035 65.695 40.5035 65.8203 40.51C65.948 40.5176 65.948 40.5176 66.0784 40.5253C66.2067 40.5317 66.2067 40.5317 66.3376 40.5382C66.9745 40.5735 66.9745 40.5735 67.1953 40.684C67.1953 40.8773 67.1953 41.0707 67.1953 41.2699C66.6846 41.3589 66.2164 41.372 65.7 41.337C65.6301 41.3336 65.5603 41.3301 65.4884 41.3265C64.9733 41.294 64.9733 41.294 64.7539 41.0746C64.7905 40.8182 64.7905 40.8182 64.8516 40.5863C65.1342 40.4921 65.2818 40.4816 65.5722 40.497Z" fill="white"/>
<path d="M76.5215 40.9029C76.6062 40.9056 76.6909 40.9082 76.7782 40.9109C76.8597 40.9148 76.9411 40.9187 77.025 40.9227C77.0994 40.9259 77.1737 40.9291 77.2503 40.9324C77.497 40.9867 77.5913 41.0691 77.7422 41.2691C77.7117 41.4827 77.7117 41.4827 77.6445 41.6597C77.3537 41.7458 77.112 41.764 76.8099 41.7456C76.7274 41.7409 76.645 41.7361 76.56 41.7313C76.4748 41.7258 76.3896 41.7203 76.3018 41.7147C76.215 41.7096 76.1283 41.7045 76.0389 41.6992C75.8254 41.6866 75.6119 41.6734 75.3984 41.6597C75.2947 41.4278 75.2947 41.4278 75.2031 41.1715C75.4305 40.7167 76.0885 40.8817 76.5215 40.9029Z" fill="white"/>
</svg>
