<svg width="100" height="100" viewBox="0 0 100 100" fill="none" xmlns="http://www.w3.org/2000/svg">
<g clip-path="url(#clip0_11_174)">
<path d="M44.7996 21.7899C45.2555 22.0529 45.6347 22.437 45.8006 22.9496C45.8626 23.5696 45.7654 23.9965 45.4099 24.5121C44.9832 24.9581 44.631 25.0841 44.0427 25.1957C43.9976 25.4133 43.9529 25.631 43.9085 25.8487C43.8835 25.97 43.8586 26.0912 43.8329 26.2161C43.1285 29.8942 43.7044 33.583 45.4099 36.9144C45.819 36.869 46.2108 36.8132 46.6108 36.7168C47.2412 36.5893 47.8717 36.5921 48.5122 36.596C48.717 36.597 48.9218 36.596 49.1266 36.5947C49.8365 36.5941 50.5174 36.6342 51.2159 36.7749C51.4665 36.8171 51.6994 36.8239 51.9529 36.8168C51.9652 36.7356 51.9776 36.6544 51.9903 36.5707C52.0556 36.2025 52.1399 35.8418 52.2337 35.4801C52.2494 35.4153 52.2651 35.3505 52.2813 35.2838C52.4392 34.6763 52.4392 34.6763 52.7341 34.473C53.0246 34.4994 53.1106 34.5564 53.3201 34.766C53.2678 35.5846 53.0162 36.3874 52.6365 37.1097C52.7139 37.1377 52.7139 37.1377 52.7929 37.1663C53.0318 37.2529 53.2705 37.34 53.5093 37.4271C53.631 37.4711 53.631 37.4711 53.7551 37.516C54.3045 37.7169 54.8395 37.9394 55.3709 38.1839C55.4159 38.0715 55.461 37.9591 55.5074 37.8433C56.4569 35.5098 57.6243 33.5563 59.3748 31.7386C59.4611 31.6448 59.4611 31.6448 59.5491 31.549C60.3785 30.6707 61.4629 29.9108 62.4998 29.2972C62.5642 29.2972 62.6287 29.2972 62.6951 29.2972C62.6906 29.2347 62.686 29.1721 62.6814 29.1076C62.6553 28.4841 62.7106 28.1405 63.0857 27.6371C63.517 27.1931 63.829 27.0664 64.4346 27.0267C64.9081 27.0355 65.3141 27.148 65.6713 27.4769C66.0812 27.9418 66.2646 28.3679 66.2481 28.9924C66.1564 29.5002 65.8347 29.8766 65.4661 30.2189C64.9743 30.5424 64.4377 30.5338 63.867 30.4691C63.6683 30.344 63.472 30.2149 63.281 30.0785C60.9548 30.7198 58.7922 33.5306 57.6398 35.5373C57.0509 36.598 56.5236 37.7114 56.1521 38.8675C56.223 38.8923 56.2939 38.9171 56.3669 38.9427C56.8461 39.1532 57.2186 39.5097 57.617 39.8441C57.6872 39.9021 57.7574 39.9602 57.8298 40.02C58.4195 40.519 58.9164 41.0788 59.3748 41.6996C59.4003 41.6407 59.4259 41.5819 59.4523 41.5213C59.6475 41.1694 59.9633 40.9805 60.2842 40.7474C60.3491 40.6979 60.414 40.6485 60.4808 40.5975C60.7646 40.3892 60.9622 40.2463 61.3138 40.1905C61.5232 40.2347 61.5232 40.2347 61.7185 40.43C61.7261 40.7022 61.6757 40.8595 61.4889 41.0598C61.31 41.2155 61.1258 41.3605 60.9373 41.5043C60.8695 41.5584 60.8018 41.6125 60.732 41.6683C60.4071 41.9226 60.1705 42.0963 59.7654 42.1878C59.866 42.3468 59.866 42.3468 59.9687 42.509C60.0576 42.6502 60.1465 42.7913 60.2354 42.9325C60.2795 43.0021 60.3236 43.0717 60.3691 43.1434C60.6134 43.5322 60.8376 43.9207 61.0349 44.3363C61.0961 44.3201 61.1573 44.3039 61.2203 44.2871C64.0424 43.5492 67.0066 43.1172 69.9133 43.618C70.1474 43.6579 70.382 43.693 70.6167 43.7286C71.6722 43.8972 72.6609 44.1412 73.6618 44.5208C73.7421 44.5503 73.8223 44.5798 73.905 44.6102C73.9752 44.6374 74.0453 44.6645 74.1177 44.6925C74.3792 44.7378 74.4861 44.6724 74.7068 44.5316C74.7874 44.4631 74.8679 44.3946 74.9509 44.3241C75.4544 44.0544 75.9052 44.0573 76.4646 44.141C76.9641 44.3236 77.3416 44.6345 77.5751 45.116C77.7228 45.5894 77.7334 46.0491 77.5468 46.5118C77.2408 47.0436 76.8574 47.3629 76.2693 47.5589C75.7528 47.6409 75.3701 47.589 74.9204 47.3148C74.5076 47.0088 74.2651 46.6863 74.1209 46.1918C74.0965 45.85 74.0965 45.85 74.1209 45.6058C74.0678 45.5951 74.0147 45.5844 73.9599 45.5734C73.4084 45.4573 72.8841 45.2981 72.3508 45.1175C71.636 44.8822 70.9535 44.7365 70.2055 44.6609C69.9216 44.6293 69.9216 44.6293 69.6287 44.5316C69.4991 44.5174 69.369 44.5075 69.2388 44.5007C69.1626 44.4966 69.0864 44.4925 69.0079 44.4882C68.9268 44.4844 68.8456 44.4806 68.762 44.4767C68.6778 44.4727 68.5936 44.4687 68.5069 44.4645C68.2623 44.4535 68.0178 44.4435 67.7732 44.4339C67.6119 44.4275 67.6119 44.4275 67.4474 44.421C65.4705 44.3839 63.4159 44.6388 61.5232 45.2152C61.6254 45.6798 61.7299 46.1435 61.841 46.606C62.1238 47.8098 62.2886 48.959 62.3045 50.1957C62.3367 50.1634 62.3689 50.1312 62.4021 50.098C62.737 50.0707 63.0733 50.0754 63.4092 50.0736C63.5503 50.0706 63.5503 50.0706 63.6943 50.0675C63.7852 50.067 63.876 50.0665 63.9696 50.066C64.0528 50.065 64.1361 50.0641 64.2218 50.0632C64.4997 50.1051 64.6345 50.2081 64.8435 50.391C64.7581 50.867 64.7581 50.867 64.6482 50.9769C64.2928 51.0015 63.9362 50.995 63.5801 50.9952C63.4797 50.9964 63.3793 50.9976 63.2759 50.9988C63.1321 50.9991 63.1321 50.9991 62.9854 50.9994C62.8528 51 62.8528 51 62.7176 51.0006C62.4998 50.9769 62.4998 50.9769 62.3045 50.7816C62.2952 50.8474 62.2859 50.9131 62.2763 50.9809C62.0888 52.2875 61.8775 53.5426 61.4256 54.7855C61.4827 54.788 61.5399 54.7905 61.5987 54.7931C63.9077 54.9457 66.154 55.8216 68.1638 56.9339C68.224 56.9666 68.2841 56.9992 68.3461 57.0329C69.4891 57.6592 70.6402 58.4299 71.4952 59.4242C72.0136 60.0582 72.0136 60.0582 72.7621 60.3134C73.038 60.3152 73.2918 60.29 73.5677 60.2573C74.0077 60.2536 74.1758 60.3702 74.5115 60.6449C74.9173 61.0733 75.0649 61.4681 75.1402 62.0487C75.0834 62.5189 74.9106 62.8228 74.6091 63.1839C74.0126 63.6492 73.4951 63.7555 72.7537 63.6722C72.1984 63.3946 71.8254 62.9718 71.5818 62.4027C71.5559 62.1929 71.5559 62.1929 71.5574 61.9754C71.5569 61.9042 71.5564 61.8329 71.5559 61.7595C71.588 61.4678 71.6772 61.213 71.7771 60.9378C70.6415 59.7396 69.3862 58.7548 67.9685 57.9105C67.9094 57.8745 67.8503 57.8386 67.7893 57.8015C65.9026 56.6691 63.2584 55.6644 61.0349 55.6644C60.9899 55.7543 60.9448 55.8442 60.8984 55.9368C60.4307 56.8506 59.8937 57.6765 59.2771 58.4964C59.343 58.5011 59.4088 58.5058 59.4766 58.5106C59.8906 58.6303 60.1561 58.8721 60.4795 59.1495C60.574 59.2253 60.574 59.2253 60.6704 59.3027C61.1229 59.6871 61.1229 59.6871 61.1734 60.0975C61.1599 60.1814 61.1465 60.2654 61.1326 60.3519C60.8736 60.4263 60.8736 60.4263 60.5466 60.4496C60.2716 60.2806 60.2716 60.2806 60.0034 60.0406C59.9147 59.9627 59.8259 59.8848 59.7345 59.8045C59.648 59.7273 59.5615 59.6502 59.4724 59.5707C59.3829 59.5026 59.2934 59.4345 59.2012 59.3643C58.9841 59.18 58.9841 59.18 58.8865 58.8871C58.8355 58.9474 58.7845 59.0077 58.732 59.0698C58.0035 59.908 57.1771 60.6192 56.2498 61.2308C56.1853 61.2308 56.1209 61.2308 56.0545 61.2308C56.0545 61.2953 56.0545 61.3597 56.0545 61.4261C56.1091 61.4508 56.1637 61.4755 56.22 61.5009C58.1839 62.5527 59.681 64.7059 60.742 66.6019C60.8011 66.7056 60.8603 66.8094 60.9212 66.9162C61.3152 67.6506 61.5929 68.4074 61.8589 69.1959C61.8935 69.2982 61.9282 69.4006 61.9638 69.506C62.0114 69.6518 62.0114 69.6518 62.0599 69.8005C62.0883 69.8875 62.1167 69.9744 62.1459 70.064C62.2084 70.3192 62.2181 70.5394 62.2068 70.8011C62.3216 70.8052 62.4364 70.8092 62.5547 70.8133C63.0468 70.8737 63.3519 71.1158 63.6716 71.4847C63.992 71.9798 63.9324 72.5801 63.867 73.1449C63.7033 73.5865 63.4133 73.834 63.0125 74.0665C62.5232 74.2794 62.0365 74.3325 61.5282 74.1512C61.0204 73.8891 60.6317 73.4978 60.449 72.9496C60.3737 72.3237 60.4623 71.8042 60.8396 71.2894C60.9067 71.2469 60.9739 71.2044 61.043 71.1606C61.2516 71.0142 61.2516 71.0142 61.2575 70.7855C61.1774 70.2034 61.0459 69.6765 60.8335 69.1288C60.7879 69.009 60.7879 69.009 60.7413 68.8868C59.7978 66.4658 58.3534 64.5921 56.4512 62.836C56.378 62.7674 56.378 62.7674 56.3034 62.6974C55.9809 62.3998 55.6659 62.1156 55.2732 61.9144C54.9775 61.9598 54.9775 61.9598 54.6873 62.1097C54.574 62.1549 54.4607 62.2001 54.3439 62.2467C54.2224 62.2966 54.1008 62.3466 53.9793 62.3966C52.5172 62.9886 52.5172 62.9886 51.8552 62.9886C51.9002 63.0395 51.9451 63.0903 51.9914 63.1427C52.41 63.7742 52.5275 64.7798 52.4412 65.5277C52.1482 65.723 52.1482 65.723 51.9529 65.7291C51.6975 65.5934 51.629 65.4244 51.5291 65.1596C51.3484 64.5491 51.2348 63.9194 51.2693 63.2816C51.1496 63.2976 51.0299 63.3136 50.9065 63.33C50.3254 63.3946 49.7476 63.3899 49.1636 63.3854C49.0558 63.3849 48.9479 63.3845 48.8369 63.384C48.5735 63.3829 48.3101 63.3813 48.0466 63.3793C48.0701 63.4804 48.0701 63.4804 48.094 63.5835C48.5867 66.3661 47.92 69.2865 46.4841 71.68C46.3033 71.9344 46.1155 72.1803 45.9234 72.4262C45.7761 72.6518 45.7761 72.6518 45.8242 72.9175C45.8917 73.1438 45.8917 73.1438 45.9959 73.3402C46.0757 73.9534 46.0259 74.421 45.6571 74.926C45.3223 75.3112 45.062 75.5433 44.547 75.6363C43.9277 75.6714 43.4991 75.5964 43.0296 75.1796C42.6695 74.7729 42.4636 74.3635 42.4375 73.8163C42.5144 73.1356 42.7863 72.8027 43.2985 72.3831C43.6175 72.1471 43.8455 72.1552 44.2381 72.1561C44.3952 72.1557 44.3952 72.1557 44.5554 72.1553C44.824 72.1683 44.824 72.1683 45.0193 72.266C45.0565 72.1867 45.0565 72.1867 45.0945 72.1058C45.2383 71.83 45.4059 71.5751 45.5747 71.3138C46.3455 70.0781 46.7933 68.8088 47.0701 67.3832C47.0962 67.2524 47.0962 67.2524 47.1228 67.119C47.1764 66.7349 47.1799 66.3578 47.1773 65.971C47.1771 65.8938 47.177 65.8166 47.1769 65.737C47.1763 65.4923 47.1751 65.2475 47.1738 65.0028C47.1734 64.8361 47.1729 64.6694 47.1725 64.5027C47.1714 64.0957 47.1698 63.6886 47.1677 63.2816C47.0779 63.2748 47.0779 63.2748 46.9863 63.268C46.3978 63.2174 45.8452 63.1189 45.2757 62.9642C45.1959 62.943 45.1162 62.9217 45.0341 62.8999C44.3851 62.7213 43.7739 62.4935 43.1638 62.2074C43.1553 62.3043 43.1467 62.4012 43.1379 62.5011C43.0757 62.9329 42.9049 63.2788 42.7 63.66C42.6672 63.726 42.6345 63.7919 42.6008 63.8599C42.4422 64.159 42.3488 64.3313 42.0263 64.455C41.7966 64.4535 41.7966 64.4535 41.6135 64.3436C41.5037 64.1605 41.5037 64.1605 41.5216 63.9549C41.6305 63.5689 41.8037 63.2289 41.9859 62.8727C42.0386 62.7666 42.0386 62.7666 42.0925 62.6585C42.3565 62.1358 42.3565 62.1358 42.5779 61.9144C42.4846 61.8612 42.3913 61.8079 42.2952 61.753C41.4825 61.282 40.7446 60.7812 40.0388 60.1566C39.9654 60.092 39.9654 60.092 39.8905 60.0261C38.9907 59.2323 38.9907 59.2323 38.867 58.9847C38.838 59.0304 38.809 59.0761 38.7792 59.1232C37.6852 60.8443 37.6852 60.8443 37.1091 61.5238C37.014 61.6384 37.014 61.6384 36.9169 61.7553C35.5051 63.3947 33.7797 64.4607 31.7381 65.1371C31.6414 65.1693 31.5447 65.2015 31.4451 65.2347C31.3966 65.4253 31.3488 65.6161 31.3062 65.8081C31.1789 66.2769 30.934 66.5451 30.554 66.8338C30.05 67.0907 29.5117 67.088 28.9766 66.9246C28.5115 66.7185 28.27 66.4726 28.0271 66.016C27.864 65.5265 27.8254 65.0097 28.018 64.5225C28.2709 64.0904 28.5373 63.7781 29.0037 63.5746C29.5495 63.5016 30.0814 63.4829 30.5784 63.7455C30.8469 63.9556 30.9227 64.0572 31.0545 64.3558C33.9726 63.3435 36.0305 61.7462 37.6646 59.0885C37.7094 59.018 37.7542 58.9475 37.8003 58.8749C38.041 58.4886 38.041 58.4886 38.0418 58.0509C37.9919 57.9723 37.9419 57.8938 37.8904 57.8128C37.8584 57.7603 37.8264 57.7078 37.7934 57.6538C37.6826 57.4745 37.5675 57.2987 37.4509 57.1231C36.9757 56.4027 36.9757 56.4027 36.8162 56.055C36.7677 56.1118 36.7192 56.1686 36.6693 56.2271C36.3568 56.5073 36.0331 56.653 35.6504 56.818C35.5817 56.8496 35.5131 56.8813 35.4423 56.9139C35.0514 57.085 34.7973 57.1796 34.3748 57.0316C34.3425 56.8705 34.3103 56.7093 34.2771 56.5433C34.6154 56.2572 34.9492 56.0397 35.3452 55.8414C35.4428 55.7917 35.5404 55.742 35.6409 55.6907C35.9385 55.5662 36.204 55.5086 36.5232 55.4691C36.5001 55.4057 36.4769 55.3422 36.453 55.2769C36.3473 54.9853 36.243 54.6931 36.1387 54.401C36.1022 54.3012 36.0658 54.2015 36.0283 54.0987C35.8181 53.5061 35.6855 52.9719 35.6443 52.3441C35.5235 52.3864 35.4026 52.4287 35.2781 52.4723C34.1424 52.8456 33.025 53.0384 31.8357 53.1253C31.7649 53.1306 31.6942 53.1358 31.6213 53.1412C29.9103 53.2483 28.2169 52.8646 26.6561 52.1717C26.3892 52.0604 26.1664 51.9794 25.8787 51.9535C25.78 52.0159 25.6813 52.0784 25.5796 52.1427C25.0927 52.4457 24.5769 52.4403 24.0232 52.3441C23.5655 52.1372 23.3078 51.8651 23.0466 51.4408C22.8788 50.8115 22.8209 50.2548 23.1504 49.6708C23.4152 49.3053 23.6859 49.061 24.1209 48.9261C24.7046 48.8346 25.1981 48.8994 25.7135 49.192C26.0631 49.456 26.2314 49.7889 26.367 50.1957C26.3735 50.3481 26.3753 50.5008 26.3731 50.6534C26.3722 50.7324 26.3713 50.8113 26.3704 50.8926C26.3693 50.9527 26.3681 51.0127 26.367 51.0746C26.4435 51.0987 26.52 51.1229 26.5989 51.1478C26.8722 51.2421 27.1331 51.3444 27.3992 51.456C29.2478 52.1968 31.0416 52.261 32.9893 52.0267C33.079 52.0161 33.1686 52.0054 33.261 51.9945C33.9838 51.896 34.66 51.6947 35.3513 51.4652C35.3533 51.3895 35.3552 51.3138 35.3572 51.2359C35.4319 48.4609 35.4319 48.4609 35.6443 47.3636C35.5257 47.3933 35.5257 47.3933 35.4047 47.4235C34.9693 47.471 34.6246 47.3907 34.2039 47.2843C34.129 47.2668 34.0541 47.2494 33.9769 47.2315C33.4246 47.097 33.4246 47.097 33.2029 46.8753C33.1785 46.6312 33.1785 46.6312 33.2029 46.3871C33.3982 46.1918 33.3982 46.1918 33.6145 46.1837C34.3779 46.2593 35.1901 46.3447 35.8396 46.7777C35.8469 46.7242 35.8542 46.6707 35.8617 46.6156C36.0546 45.453 36.578 44.4007 37.1091 43.3597C37.0567 43.3407 37.0043 43.3216 36.9503 43.302C34.5752 42.4322 32.3849 41.4307 30.4685 39.7464C30.3784 39.6693 30.2883 39.5921 30.1954 39.5126C29.4606 38.8681 28.823 38.1667 28.285 37.3489C27.8766 36.7047 27.8766 36.7047 27.2371 36.338C26.9304 36.3186 26.9304 36.3186 26.6309 36.3296C26.25 36.328 26.0591 36.1881 25.781 35.9378C25.3314 35.4383 25.1518 35.0661 25.1714 34.3986C25.236 33.8017 25.5728 33.4862 26.0133 33.1253C26.4418 32.8083 26.9286 32.8713 27.4412 32.9105C28.0112 33.1005 28.3266 33.4639 28.6245 33.9775C28.8051 34.4019 28.7856 34.8618 28.623 35.2897C28.5292 35.477 28.4254 35.6592 28.3201 35.8402C30.4623 39.0436 33.7688 41.6089 37.5936 42.4465C37.6593 42.4578 37.725 42.4691 37.7927 42.4808C37.8178 42.4257 37.8428 42.3705 37.8687 42.3137C38.3799 41.3565 39.2803 40.4032 40.1365 39.7464C40.0317 39.6692 40.0317 39.6692 39.9248 39.5904C39.6146 39.3273 39.3768 39.0479 39.1294 38.7272C39.085 38.6725 39.0407 38.6178 38.9949 38.5614C38.8021 38.3129 38.6779 38.1282 38.6308 37.8143C38.6716 37.598 38.6716 37.598 38.867 37.4027C39.089 37.4012 39.089 37.4012 39.3552 37.5003C39.5567 37.7002 39.7291 37.8904 39.9046 38.1107C39.9744 38.1947 39.9744 38.1947 40.0457 38.2805C40.3012 38.592 40.5249 38.9055 40.7224 39.2582C40.8066 39.1979 40.8909 39.1376 40.9776 39.0754C41.683 38.5819 42.3969 38.1551 43.176 37.7872C43.2546 37.75 43.3332 37.7127 43.4142 37.6743C43.7884 37.5022 44.1232 37.3765 44.531 37.305C44.5075 37.2521 44.4839 37.1992 44.4596 37.1447C42.8278 33.4597 42.0078 29.625 42.9319 25.6145C42.9516 25.5272 42.9714 25.44 42.9918 25.3502C43.011 25.271 43.0301 25.1917 43.0499 25.1101C43.0922 24.8728 43.0922 24.8728 42.8526 24.6341C42.7166 24.5254 42.7166 24.5254 42.5779 24.4144C42.264 23.9381 42.1985 23.5057 42.2849 22.9496C42.4716 22.4213 42.8157 22.1002 43.2615 21.7777C43.7873 21.6024 44.2716 21.6315 44.7996 21.7899ZM40.1859 42.6081C38.3476 44.6794 37.4833 47.4505 37.4815 50.1835C37.4803 50.2742 37.4791 50.365 37.4778 50.4585C37.4765 51.0775 37.5512 51.6449 37.6951 52.2464C37.7157 52.3373 37.7364 52.4282 37.7576 52.5219C38.2819 54.5048 39.1257 56.2125 40.5271 57.7152C40.657 57.857 40.657 57.857 40.7896 58.0017C42.4719 59.7647 44.8374 60.9618 47.2654 61.2308C47.3519 61.2415 47.4384 61.2522 47.5275 61.2632C50.582 61.5957 53.5571 60.7179 55.9752 58.836C58.216 57.0084 59.758 54.2629 60.1339 51.3909C60.4459 48.3124 59.5889 45.2789 57.6676 42.8531C56.9217 41.9633 56.0776 41.1252 55.0779 40.5277C54.9986 40.4776 54.9986 40.4776 54.9178 40.4265C50.0497 37.3591 44.0268 38.4853 40.1859 42.6081Z" fill="#FF9F1C"/>
<path d="M52.9297 12.598C53.0273 12.6085 53.125 12.6189 53.2256 12.6297C54.486 12.7653 55.7084 12.9536 56.9336 13.2816C56.8871 14.0946 56.7359 14.8553 56.5369 15.6437C56.5094 15.7553 56.4819 15.8668 56.4535 15.9818C56.3864 16.2538 56.3185 16.5256 56.25 16.7972C55.7425 16.7378 55.2447 16.6609 54.7424 16.5653C54.513 16.525 54.2833 16.486 54.0535 16.4476C53.8925 16.4207 53.7316 16.3929 53.5709 16.3644C50.4293 15.8242 46.9914 15.9247 43.8477 16.4066C43.7079 16.4257 43.5682 16.4448 43.4284 16.4638C43.0111 16.5283 42.5997 16.6092 42.1875 16.6996C42.0741 16.7243 41.9607 16.7491 41.8439 16.7747C40.0208 17.178 38.2597 17.6625 36.5234 18.3597C36.435 18.3951 36.3465 18.4304 36.2553 18.4669C33.6036 19.5386 31.1395 20.9051 28.8086 22.5589C28.5073 22.4285 28.3412 22.3012 28.1475 22.0371C28.0993 21.9721 28.0511 21.9072 28.0015 21.8402C27.9516 21.7713 27.9017 21.7023 27.8503 21.6312C27.7731 21.5262 27.7731 21.5262 27.6942 21.4191C27.3087 20.8934 26.9301 20.3629 26.5625 19.8246C31.1509 15.0272 39.6529 13.0276 45.9961 12.5003C46.137 12.4873 46.2779 12.4742 46.4188 12.4611C48.5772 12.2875 50.7813 12.3522 52.9297 12.598Z" fill="#FF9F1C"/>
<path d="M11.8164 43.5547C12.9946 43.6829 14.1628 43.8504 15.3321 44.043C15.2855 44.5476 15.2318 45.0499 15.1608 45.5517C14.6467 49.3843 14.8026 53.3535 15.625 57.1289C15.6419 57.2094 15.6587 57.2899 15.676 57.3728C16.0944 59.3621 16.7797 61.2784 17.4805 63.1836C16.7326 63.5381 15.9781 63.8738 15.2161 64.1968C15.1343 64.2317 15.0525 64.2666 14.9682 64.3026C14.8915 64.3349 14.8148 64.3672 14.7358 64.4005C14.6672 64.4295 14.5986 64.4585 14.5279 64.4884C14.3555 64.5508 14.3555 64.5508 14.1602 64.5508C12.5637 60.775 11.6002 56.8481 11.3481 52.7564C11.3342 52.536 11.3188 52.3156 11.3025 52.0953C11.2367 51.1953 11.2072 50.298 11.2061 49.3958C11.2059 49.3248 11.2058 49.2539 11.2056 49.1808C11.205 44.7776 11.205 44.7776 11.8164 43.5547Z" fill="#FF9F1C"/>
<path d="M73.7305 73.0469C74.1274 73.2075 74.4077 73.489 74.7131 73.7793C74.8255 73.8846 74.9379 73.9899 75.0504 74.0952C75.1068 74.1482 75.1633 74.2013 75.2214 74.2559C75.4809 74.4985 75.7438 74.7372 76.0071 74.9756C76.0953 75.0556 76.1836 75.1357 76.2745 75.2182C76.3687 75.3036 76.3687 75.3036 76.4648 75.3906C76.3268 75.5522 76.1886 75.7137 76.0498 75.8747C75.9428 75.9996 75.8369 76.1254 75.7324 76.2524C75.1868 76.903 74.557 77.4623 73.9258 78.0273C73.8699 78.0779 73.814 78.1284 73.7564 78.1804C72.2935 79.4982 70.7126 80.694 69.043 81.7383C68.9679 81.7853 68.8928 81.8323 68.8154 81.8807C66.0737 83.5793 63.1817 84.8649 60.1318 85.9009C60.0371 85.9332 59.9424 85.9656 59.8449 85.9989C59.3271 86.1694 58.8442 86.2809 58.3008 86.3281C58.2782 86.2428 58.2557 86.1574 58.2325 86.0695C58.2006 85.9494 58.1688 85.8293 58.136 85.7056C58.1189 85.6411 58.1018 85.5766 58.0842 85.5102C57.9841 85.1343 57.8814 84.7592 57.7755 84.3849C57.7532 84.306 57.731 84.2272 57.708 84.1459C57.6643 83.9912 57.6202 83.8366 57.5757 83.6821C57.4913 83.3835 57.4219 83.1244 57.4219 82.8125C57.5416 82.7804 57.6613 82.7483 57.7847 82.7152C61.6729 81.6516 65.2804 79.995 68.5547 77.6367C68.6116 77.596 68.6686 77.5552 68.7273 77.5132C69.5184 76.9441 70.2592 76.3201 70.9961 75.6836C71.0651 75.6246 71.1341 75.5655 71.2051 75.5047C72.0935 74.7377 72.9906 73.9616 73.7305 73.0469Z" fill="#FF9F1C"/>
<path d="M60.4494 14.2578C64.1651 15.4159 67.879 17.1716 70.9382 19.6049C71.1674 19.7839 71.4054 19.9499 71.6432 20.1172C72.3076 20.5977 72.9206 21.1381 73.5353 21.6797C73.6603 21.7898 73.6603 21.7898 73.7879 21.9021C74.031 22.119 74.2717 22.3383 74.5119 22.5586C74.5669 22.6087 74.6219 22.6588 74.6786 22.7104C75.8616 23.789 76.931 24.919 77.9299 26.1719C77.562 26.5494 77.1773 26.8981 76.7763 27.24C76.7163 27.2913 76.6563 27.3426 76.5945 27.3955C76.1727 27.7541 75.7426 28.0944 75.2931 28.418C74.8876 28.2627 74.6411 27.965 74.3593 27.6489C74.3079 27.5923 74.2564 27.5358 74.2035 27.4775C73.9985 27.2519 73.7949 27.0251 73.5919 26.7977C72.8964 26.0192 72.167 25.3028 71.3869 24.6094C71.3337 24.5616 71.2805 24.5137 71.2256 24.4645C70.289 23.6255 69.2934 22.8858 68.2619 22.168C68.1925 22.1191 68.123 22.0703 68.0515 22.02C65.608 20.3088 62.9045 18.8569 60.0417 17.9911C59.8169 17.9199 59.8169 17.9199 59.4728 17.7734C59.3117 17.4605 59.4075 17.202 59.5105 16.8795C59.5321 16.8156 59.5536 16.7517 59.5758 16.6859C59.6082 16.5863 59.6082 16.5863 59.6412 16.4846C59.6869 16.3447 59.7331 16.2049 59.7797 16.0653C59.8512 15.8509 59.9214 15.6361 59.9913 15.4211C60.0358 15.2852 60.0804 15.1493 60.1251 15.0135C60.1463 14.949 60.1675 14.8845 60.1893 14.8181C60.3403 14.367 60.3403 14.367 60.4494 14.2578Z" fill="#FF9F1C"/>
<path d="M18.9453 66.1133C19.0167 66.2468 19.0167 66.2468 19.0895 66.383C20.3516 68.7037 21.9087 70.8539 23.6969 72.7966C23.8951 73.0134 24.0884 73.2331 24.2798 73.4558C24.8614 74.1232 25.5001 74.7182 26.1719 75.293C26.2748 75.3826 26.3777 75.4722 26.4805 75.5619C28.2939 77.1386 30.2465 78.4811 32.3242 79.6875C32.1869 80.0497 32.0238 80.3855 31.839 80.7259C31.7832 80.8287 31.7275 80.9316 31.67 81.0375C31.612 81.1439 31.5539 81.2503 31.4941 81.3599C31.4361 81.467 31.3781 81.5741 31.3183 81.6845C30.8865 82.4788 30.8865 82.4788 30.6641 82.8125C30.1422 82.6662 29.7224 82.4247 29.2664 82.1411C29.1898 82.0939 29.1132 82.0466 29.0344 81.9979C27.7664 81.2061 26.5622 80.322 25.3906 79.3945C25.2996 79.3225 25.2086 79.2505 25.1148 79.1763C24.4827 78.6678 23.8838 78.1276 23.2901 77.5755C23.055 77.359 22.8154 77.1475 22.5769 76.9348C22.2066 76.599 21.871 76.2533 21.5496 75.8709C21.378 75.6735 21.1961 75.4932 21.0083 75.3113C20.5404 74.8488 20.1368 74.3415 19.7266 73.8281C19.6362 73.7183 19.5456 73.6085 19.455 73.4989C18.013 71.7442 16.7161 69.8187 15.7227 67.7734C16.308 67.4469 16.8939 67.1213 17.4805 66.7969C17.548 66.7595 17.6156 66.7221 17.6852 66.6835C17.8608 66.5865 18.0368 66.4903 18.2129 66.394C18.3126 66.3394 18.4123 66.2848 18.515 66.2285C18.75 66.1133 18.75 66.1133 18.9453 66.1133Z" fill="#FF9F1C"/>
<path d="M23.6328 22.0703C23.9266 22.201 24.1195 22.3414 24.3366 22.5777C24.3936 22.6392 24.4507 22.7007 24.5094 22.7641C24.5982 22.8618 24.5982 22.8618 24.6887 22.9614C24.7493 23.0276 24.81 23.0938 24.8724 23.162C24.9918 23.2926 25.111 23.4235 25.2299 23.5546C25.3633 23.7005 25.4991 23.8442 25.6355 23.9872C25.6977 24.0535 25.7599 24.1199 25.824 24.1882C25.8762 24.243 25.9285 24.2978 25.9823 24.3542C26.0742 24.5117 26.0742 24.5117 26.0727 24.6979C25.9319 24.9974 25.7204 25.157 25.47 25.3723C24.7419 26.016 24.0872 26.7197 23.4375 27.4414C23.3871 27.4972 23.3368 27.5529 23.2849 27.6103C19.906 31.3776 17.5296 35.9807 16.1133 40.8203C15.6304 40.9765 15.2624 40.8455 14.7949 40.7043C14.7178 40.682 14.6407 40.6596 14.5613 40.6366C14.3295 40.5689 14.0983 40.4996 13.8672 40.4297C13.7993 40.4093 13.7314 40.3888 13.6615 40.3678C13.3061 40.2605 12.9516 40.151 12.5977 40.0391C12.7241 39.2901 12.9327 38.5884 13.1836 37.8723C13.2413 37.707 13.2413 37.707 13.3001 37.5384C13.8661 35.9456 14.5516 34.4015 15.3323 32.9025C15.4335 32.7074 15.5329 32.5115 15.6322 32.3154C16.9511 29.7395 18.6475 27.3249 20.6055 25.1953C20.7219 25.0635 20.8379 24.9313 20.9534 24.7986C21.008 24.7361 21.0626 24.6737 21.1189 24.6094C21.239 24.4715 21.3585 24.3331 21.4775 24.1943C21.8461 23.7698 22.2239 23.3876 22.6532 23.0247C22.9971 22.7245 23.314 22.3968 23.6328 22.0703Z" fill="#FF9F1C"/>
<path d="M79.9803 29.1016C80.2354 29.3448 80.442 29.5771 80.6242 29.8786C80.6927 29.9916 80.6927 29.9916 80.7624 30.1068C80.8105 30.188 80.8585 30.2692 80.9081 30.3528C80.9589 30.4382 81.0097 30.5236 81.0621 30.6115C81.6535 31.617 82.1911 32.6493 82.7147 33.6914C82.7698 33.8002 82.7698 33.8002 82.826 33.9112C84.192 36.6291 85.0989 39.557 85.6937 42.5334C85.7372 42.7494 85.7829 42.9648 85.8298 43.1801C86.2608 45.207 86.3469 47.2502 86.328 49.3164C85.154 49.3886 83.9886 49.4249 82.8124 49.4141C82.8076 49.3088 82.8029 49.2035 82.7981 49.095C82.7449 47.9891 82.6493 46.8933 82.5133 45.7947C82.5029 45.7108 82.4925 45.6269 82.4818 45.5405C82.0499 42.1231 81.1072 38.7426 79.5897 35.6445C79.525 35.5097 79.4603 35.375 79.3955 35.2402C78.7633 33.9389 78.0889 32.6384 77.2444 31.4613C77.1483 31.25 77.1483 31.25 77.2027 31.0679C77.3966 30.781 77.6531 30.6208 77.9395 30.4367C77.9977 30.3982 78.056 30.3598 78.116 30.3201C78.3015 30.1979 78.4878 30.077 78.6742 29.9561C78.8004 29.8732 78.9265 29.7903 79.0526 29.7073C79.3612 29.5045 79.6706 29.3027 79.9803 29.1016Z" fill="#FF9F1C"/>
<path d="M82.7148 52.6367C83.875 52.7012 85.0352 52.7656 86.2305 52.832C86.2305 54.2623 86.2305 54.2623 86.1408 54.855C86.1313 54.9189 86.1218 54.9827 86.1121 55.0486C86.0814 55.2519 86.0493 55.4549 86.0168 55.658C86.0003 55.7637 86.0003 55.7637 85.9834 55.8716C85.2238 60.7124 83.5301 65.5916 80.8594 69.7266C80.8199 69.788 80.7805 69.8495 80.7399 69.9128C80.5013 70.2823 80.257 70.6474 80.0075 71.0096C79.8762 71.201 79.7472 71.3938 79.6181 71.5866C79.5315 71.7133 79.4448 71.84 79.3579 71.9666C79.3184 72.0261 79.2789 72.0857 79.2381 72.1471C79.1237 72.311 79.1237 72.311 78.9062 72.5586C78.4818 72.5586 78.4325 72.5309 78.1204 72.2801C78.0459 72.2211 77.9714 72.162 77.8946 72.1012C77.8176 72.0386 77.7405 71.9761 77.6611 71.9116C77.5091 71.7903 77.357 71.6689 77.2049 71.5477C77.1309 71.4884 77.057 71.4291 76.9808 71.3679C76.6511 71.1069 76.3147 70.8554 75.9766 70.6055C76.1379 70.1057 76.4392 69.7168 76.7395 69.2932C78.4818 66.7809 79.809 64.0871 80.855 61.2166C80.9216 61.0345 80.9894 60.8528 81.0586 60.6718C81.3208 59.9783 81.5132 59.2768 81.6895 58.5571C81.719 58.4371 81.7486 58.317 81.779 58.1933C82.2266 56.3486 82.504 54.5234 82.7148 52.6367Z" fill="#FF9F1C"/>
<path d="M35.1562 81.25C35.5182 81.303 35.8433 81.3713 36.1828 81.5075C36.2638 81.5394 36.3449 81.5713 36.4284 81.6042C36.557 81.6555 36.557 81.6555 36.6882 81.7078C39.2277 82.6936 41.827 83.3524 44.5312 83.6914C44.5967 83.6999 44.6621 83.7084 44.7295 83.7172C46.0441 83.8854 47.3452 83.9214 48.6694 83.9172C48.7713 83.9172 48.8733 83.9172 48.9783 83.9172C50.56 83.9155 52.1091 83.8423 53.6763 83.6206C53.9062 83.5938 53.9062 83.5938 54.2969 83.5938C54.3673 83.9687 54.4368 84.3438 54.5055 84.7191C54.5404 84.9086 54.576 85.0981 54.6116 85.2875C54.7239 85.9037 54.8168 86.4827 54.7852 87.1094C53.8816 87.3189 52.9732 87.3929 52.0508 87.4634C51.9683 87.4697 51.8858 87.4761 51.8009 87.4826C49.2181 87.6783 46.7123 87.5724 44.1406 87.3047C44.0353 87.2937 43.93 87.2828 43.8215 87.2715C41.0603 86.9707 38.4062 86.2131 35.7971 85.2844C35.6959 85.2484 35.5947 85.2125 35.4904 85.1754C34.9346 84.9735 34.4097 84.7488 33.8867 84.4727C33.9513 84.0641 34.0859 83.7174 34.2503 83.3385C34.2761 83.2785 34.302 83.2185 34.3287 83.1567C34.4108 82.9665 34.4936 82.7766 34.5764 82.5867C34.6325 82.4572 34.6885 82.3277 34.7445 82.1981C34.8812 81.8819 35.0186 81.5659 35.1562 81.25Z" fill="#FF9F1C"/>
<path d="M90.039 49.8043C90.6087 49.9941 90.9249 50.3574 91.222 50.8712C91.3755 51.2304 91.3694 51.5704 91.3085 51.9527C91.0837 52.5018 90.7578 52.8401 90.2343 53.1246C89.7334 53.2915 89.2518 53.2853 88.7512 53.1185C88.4042 52.8794 88.1105 52.6082 87.8906 52.2457C87.8906 52.1168 87.8906 51.9879 87.8906 51.855C87.7899 51.8601 87.7899 51.8601 87.6873 51.8653C87.5993 51.868 87.5113 51.8706 87.4206 51.8734C87.2897 51.8785 87.2897 51.8785 87.1562 51.8837C86.914 51.855 86.914 51.855 86.7347 51.72C86.621 51.5621 86.621 51.5621 86.6394 51.3607C86.7187 51.1715 86.7187 51.1715 86.914 50.9761C87.1467 50.9571 87.1467 50.9571 87.4145 50.9639C87.5478 50.9666 87.5478 50.9666 87.6838 50.9693C87.7521 50.9715 87.8203 50.9738 87.8906 50.9761C87.9087 50.9077 87.9268 50.8392 87.9455 50.7686C88.3892 49.8813 89.1241 49.7343 90.039 49.8043Z" fill="#FF9F1C"/>
<path d="M57.4364 86.4969C57.8638 86.6924 58.1381 86.9042 58.3985 87.3049C58.4388 87.3633 58.4791 87.4217 58.5206 87.4819C58.7065 88.0243 58.6185 88.5626 58.4031 89.0799C58.1843 89.4611 57.8605 89.6679 57.4769 89.8745C56.8678 90.0379 56.4094 89.944 55.8594 89.6486C55.4478 89.3025 55.1304 88.9316 55.0503 88.3841C55.0241 87.7863 55.2056 87.3996 55.597 86.9448C56.1532 86.4662 56.7231 86.2557 57.4364 86.4969Z" fill="#FF9F1C"/>
<path d="M31.8494 84.2758C32.3805 84.5935 32.8421 84.9261 33.0076 85.5465C33.0926 86.1382 33.0104 86.5474 32.6654 87.038C32.2334 87.5366 31.8015 87.669 31.1765 87.7315C30.687 87.7242 30.3474 87.5184 29.9802 87.2066C29.7343 86.8977 29.5385 86.6258 29.4919 86.2301C29.4708 86.0518 29.4708 86.0518 29.4492 85.87C29.4582 85.335 29.7232 84.9541 30.0779 84.5699C30.5998 84.1694 31.2338 83.9916 31.8494 84.2758Z" fill="#FF9F1C"/>
<path d="M14.0544 65.4937C14.4682 65.7603 14.6892 66.137 14.844 66.6015C14.8966 67.2226 14.8082 67.6455 14.4534 68.164C14.0351 68.5715 13.6351 68.7558 13.0557 68.7926C12.5424 68.7781 12.1961 68.6015 11.8167 68.2616C11.486 67.8925 11.3001 67.54 11.2734 67.0409C11.3089 66.4993 11.4818 66.0374 11.8868 65.6665C12.5972 65.1412 13.2585 65.1134 14.0544 65.4937Z" fill="#FF9F1C"/>
<path d="M24.6826 17.3884C25.1569 17.6712 25.5073 18.0254 25.6836 18.5542C25.7657 19.1489 25.6806 19.5538 25.3357 20.0458C25.0988 20.3303 24.8419 20.5376 24.5117 20.7026C23.9745 20.7517 23.4973 20.7771 23.0042 20.544C22.5251 20.1 22.1889 19.7476 22.1436 19.0669C22.1536 18.5697 22.2701 18.1644 22.6257 17.7989C23.2771 17.229 23.838 17.1491 24.6826 17.3884Z" fill="#FF9F1C"/>
<path d="M79.7121 73.6879C80.1324 74.0604 80.4205 74.4101 80.5128 74.9761C80.5356 75.553 80.4779 75.9258 80.0783 76.3674C79.5457 76.866 79.2154 76.9889 78.4922 76.9804C77.9728 76.9282 77.688 76.634 77.3623 76.2575C76.9642 75.7343 76.9903 75.2531 77.051 74.6095C77.3063 74.0799 77.6705 73.7568 78.1984 73.5048C78.7493 73.3883 79.2048 73.444 79.7121 73.6879Z" fill="#FF9F1C"/>
<path d="M81.2683 24.5725C81.7052 24.8133 82.0019 25.1365 82.2265 25.5857C82.2781 26.1923 82.2992 26.7339 81.9336 27.2458C81.5332 27.6473 81.1204 27.9545 80.5419 27.9721C80.0279 27.9603 79.6864 27.7655 79.2968 27.4411C78.8189 26.9142 78.7739 26.576 78.7815 25.8767C78.8311 25.3433 79.1152 25.0632 79.4982 24.7251C80.0487 24.3152 80.6541 24.2922 81.2683 24.5725Z" fill="#FF9F1C"/>
<path d="M59.688 10.1303C60.2548 10.3869 60.5918 10.7565 60.8396 11.3281C60.9163 11.8759 60.8652 12.3305 60.5466 12.7929C60.1777 13.1815 59.815 13.4754 59.2771 13.5742C58.7258 13.5567 58.2326 13.4716 57.8123 13.0859C57.4685 12.6216 57.2818 12.1787 57.3179 11.5966C57.4218 10.9932 57.6768 10.6205 58.1724 10.2661C58.6767 9.97696 59.1378 9.9472 59.688 10.1303Z" fill="#FF9F1C"/>
<path d="M11.3035 39.856C11.7838 40.1331 12.0864 40.5013 12.3045 41.0156C12.3817 41.5673 12.3222 42.0091 12.0115 42.4805C11.6623 42.8745 11.3889 43.1334 10.8587 43.1969C10.2499 43.2046 9.84321 43.2068 9.37477 42.7735C8.93724 42.2873 8.73432 41.9013 8.7526 41.2476C8.82966 40.7544 9.08615 40.4054 9.45259 40.0772C10.0628 39.6427 10.6028 39.6458 11.3035 39.856Z" fill="#FF9F1C"/>
<path d="M76.3672 50.586C76.5714 50.548 76.5714 50.548 76.8211 50.547C76.9113 50.5467 77.0014 50.5463 77.0943 50.5459C77.2359 50.5476 77.2359 50.5476 77.3804 50.5493C77.474 50.5482 77.5677 50.5471 77.6642 50.5459C77.7546 50.5463 77.845 50.5467 77.9381 50.547C78.0207 50.5474 78.1033 50.5477 78.1885 50.548C78.4635 50.5935 78.6007 50.6978 78.8086 50.8789C78.7354 51.3428 78.7354 51.3428 78.5156 51.5625C77.7456 51.6321 77.0126 51.5722 76.2695 51.3672C76.2085 51.1414 76.2085 51.1414 76.1719 50.8789C76.2363 50.7822 76.3008 50.6856 76.3672 50.586Z" fill="#FF9F1C"/>
<path d="M66.925 50.1648C67.0191 50.1619 67.1132 50.1591 67.2101 50.1562C67.9044 50.1499 67.9044 50.1499 68.23 50.3795C68.3593 50.5859 68.3593 50.5859 68.3471 50.7934C68.2617 50.9765 68.2617 50.9765 68.0664 51.1718C67.3617 51.2264 66.6113 51.2209 65.9179 51.0742C65.7226 50.7812 65.7226 50.7812 65.7531 50.5249C65.9047 50.0011 66.4579 50.1694 66.925 50.1648Z" fill="#FF9F1C"/>
<path d="M30.1717 45.4023C31.9259 45.5982 31.9259 45.5982 32.324 45.9963C32.3484 46.2404 32.3484 46.2404 32.324 46.4846C32.1287 46.6799 32.1287 46.6799 31.9372 46.6879C30.183 46.492 30.183 46.492 29.7849 46.0939C29.7605 45.8498 29.7605 45.8498 29.7849 45.6057C29.9802 45.4104 29.9802 45.4104 30.1717 45.4023Z" fill="#FF9F1C"/>
<path d="M53.6132 73.3398C53.9352 73.372 54.0646 73.4007 54.2968 73.6328C54.3587 73.8678 54.4104 74.0966 54.4555 74.3347C54.4809 74.461 54.5063 74.5872 54.5325 74.7173C54.5876 75.0836 54.6219 75.4121 54.5898 75.7812C54.2968 75.9766 54.2968 75.9766 54.0954 75.9521C53.9062 75.8789 53.9062 75.8789 53.7109 75.6836C53.649 75.4304 53.5972 75.1829 53.5522 74.9268C53.5391 74.858 53.526 74.7893 53.5125 74.7185C53.4401 74.3212 53.3851 73.9404 53.4179 73.5352C53.4823 73.4707 53.5468 73.4062 53.6132 73.3398Z" fill="#FF9F1C"/>
<path d="M52.4413 66.5346C52.6366 66.6017 52.6366 66.6017 52.8319 66.797C52.912 67.0679 52.982 67.3341 53.0455 67.6088C53.0641 67.683 53.0827 67.7572 53.1018 67.8337C53.1951 68.2301 53.2653 68.5494 53.1249 68.9455C52.9296 69.1408 52.9296 69.1408 52.6915 69.153C52.4413 69.0431 52.4413 69.0431 52.2765 68.7135C52.0673 68.049 51.8346 67.2857 52.0506 66.6017C52.246 66.504 52.246 66.504 52.4413 66.5346Z" fill="#FF9F1C"/>
<path d="M64.1501 38.0885C64.3557 38.1834 64.3557 38.1834 64.551 38.3788C64.5617 38.5962 64.5617 38.5962 64.4533 38.867C64.2222 39.1037 63.9632 39.2948 63.6965 39.4896C63.6265 39.5441 63.5565 39.5986 63.4844 39.6548C62.9655 40.0411 62.9655 40.0411 62.6025 40.0305C62.4026 39.9413 62.4026 39.9413 62.3049 39.8436C62.2519 39.5838 62.2519 39.5838 62.3049 39.2577C62.5244 39.006 62.7845 38.8218 63.0556 38.629C63.1261 38.5749 63.1965 38.5209 63.2691 38.4652C63.7874 38.085 63.7874 38.085 64.1501 38.0885Z" fill="#FF9F1C"/>
<path d="M25.9093 21.0625C26.2583 21.1036 26.3409 21.2228 26.5623 21.4901C26.6288 21.5703 26.6953 21.6505 26.7638 21.7331C26.8262 21.8121 26.8886 21.891 26.953 21.9723C27.0053 22.0361 27.0577 22.1 27.1117 22.1657C27.3081 22.4186 27.4343 22.6115 27.484 22.9306C27.4412 23.1442 27.4412 23.1442 27.2459 23.3395C26.9352 23.3242 26.7907 23.271 26.5562 23.0641C26.361 22.8318 26.1666 22.5994 25.9764 22.3629C25.8961 22.2674 25.8961 22.2674 25.8143 22.1699C25.6026 21.9022 25.4852 21.7463 25.5003 21.3986C25.6226 21.1017 25.6226 21.1017 25.9093 21.0625Z" fill="#FF9F1C"/>
<path d="M39.4534 68.2617C39.6494 68.2897 39.8448 68.3221 40.0393 68.3594C40.1718 68.7106 40.1276 68.9201 39.9825 69.2516C39.9112 69.4004 39.8386 69.5486 39.7646 69.696C39.7105 69.8091 39.7105 69.8091 39.6553 69.9244C39.3865 70.477 39.3865 70.477 39.1604 70.7031C38.9162 70.7275 38.9162 70.7275 38.6721 70.7031C38.4768 70.5078 38.4768 70.5078 38.4375 70.3049C38.4967 69.8752 38.7013 69.5408 38.9101 69.165C38.9512 69.0889 38.9923 69.0127 39.0347 68.9342C39.3369 68.3782 39.3369 68.3782 39.4534 68.2617Z" fill="#FF9F1C"/>
<path d="M30.2734 58.5942C30.4688 58.7895 30.4688 58.7895 30.479 59.02C30.3114 59.4205 30.0017 59.5172 29.6204 59.6929C29.5512 59.7271 29.482 59.7613 29.4107 59.7966C29.0205 59.984 28.6612 60.1331 28.2227 60.1567C28.0273 59.9614 28.0273 59.9614 27.9663 59.7356C28.0394 59.4213 28.0936 59.3973 28.3569 59.229C28.5064 59.1456 28.6571 59.0644 28.8086 58.9849C28.9334 58.9142 28.9334 58.9142 29.0607 58.8422C29.8013 58.4403 29.8013 58.4403 30.2734 58.5942Z" fill="#FF9F1C"/>
<path d="M56.0608 83.6185C56.25 83.6918 56.25 83.6918 56.4453 83.8871C56.5073 84.122 56.5589 84.3508 56.604 84.589C56.6294 84.7152 56.6549 84.8415 56.6811 84.9716C56.7362 85.3378 56.7705 85.6663 56.7383 86.0355C56.4453 86.2308 56.4453 86.2308 56.25 86.2369C55.9927 86.1002 55.9264 85.9271 55.8262 85.6605C55.6408 85.0539 55.5003 84.4244 55.5664 83.7894C55.8594 83.5941 55.8594 83.5941 56.0608 83.6185Z" fill="#FF9F1C"/>
<path d="M53.1679 69.9102C53.4181 70.02 53.4181 70.02 53.5829 70.3496C53.7977 71.0319 53.9997 71.7549 53.8087 72.4614C53.5829 72.5286 53.5829 72.5286 53.3204 72.5591C53.0717 72.3653 52.9821 72.1943 52.91 71.8915C52.8843 71.7839 52.8843 71.7839 52.8581 71.6741C52.8415 71.5995 52.8249 71.525 52.8078 71.4482C52.7806 71.3376 52.7806 71.3376 52.7528 71.2247C52.6618 70.8301 52.5959 70.5113 52.7345 70.1177C52.9298 69.9224 52.9298 69.9224 53.1679 69.9102Z" fill="#FF9F1C"/>
<path d="M70.4099 67.5783C70.6435 67.7377 70.8521 67.9214 71.063 68.1093C71.1197 68.1585 71.1764 68.2077 71.2349 68.2583C71.4543 68.4493 71.6691 68.6421 71.8748 68.8479C71.8205 69.2927 71.8205 69.2927 71.6795 69.4338C71.1342 69.457 70.8923 69.2781 70.4893 68.915C70.3309 68.7642 70.1742 68.6116 70.0193 68.4572C69.9449 68.3888 69.8705 68.3203 69.7939 68.2497C69.6287 68.0666 69.6287 68.0666 69.6409 67.8042C69.7963 67.3933 70.0377 67.4581 70.4099 67.5783Z" fill="#FF9F1C"/>
<path d="M20.8008 63.0859C20.9961 63.2813 20.9961 63.2813 21.0094 63.5078C20.8327 63.9246 20.4905 64.0477 20.0989 64.2456C20.025 64.2861 19.9512 64.3267 19.8751 64.3684C19.4313 64.5994 19.1534 64.7058 18.6523 64.5508C18.6201 64.3574 18.5879 64.1641 18.5547 63.9648C20.2423 62.8504 20.2423 62.8504 20.8008 63.0859Z" fill="#FF9F1C"/>
<path d="M33.5389 80.8408C33.7892 80.8591 33.7892 80.8591 33.9845 81.0544C33.9566 81.5718 33.7465 81.9958 33.5206 82.4521C33.4879 82.5232 33.4552 82.5943 33.4214 82.6675C33.1706 83.1772 33.1706 83.1772 32.8469 83.3051C32.6173 83.3005 32.6173 83.3005 32.4342 83.1968C32.2677 82.91 32.3442 82.7408 32.422 82.4216C32.537 82.1585 32.6728 81.9093 32.8126 81.6587C32.8666 81.5591 32.8666 81.5591 32.9217 81.4575C33.2463 80.8633 33.2463 80.8633 33.5389 80.8408Z" fill="#FF9F1C"/>
<path d="M55.0782 80.1758C55.3224 80.1941 55.3224 80.1941 55.5665 80.2734C55.785 80.6012 55.8395 80.8478 55.9205 81.2317C55.9459 81.3491 55.9714 81.4666 55.9976 81.5876C56.1319 82.4 56.1319 82.4 55.9327 82.7087C55.7618 82.8125 55.7618 82.8125 55.5604 82.7942C55.3712 82.7148 55.3712 82.7148 55.1759 82.5195C54.9546 81.8119 54.8222 81.1113 54.8829 80.3711C54.9474 80.3066 55.0118 80.2422 55.0782 80.1758Z" fill="#FF9F1C"/>
<path d="M54.3944 76.7578C54.6809 76.7936 54.7717 76.8422 54.9803 77.0508C55.0604 77.3216 55.1304 77.5879 55.1939 77.8625C55.2125 77.9368 55.2311 78.011 55.2502 78.0874C55.3435 78.4839 55.4137 78.8031 55.2733 79.1992C55.2088 79.2637 55.1444 79.3281 55.078 79.3945C54.8216 79.3579 54.8216 79.3579 54.5897 79.2969C53.9957 77.6576 53.9957 77.6576 54.199 76.9531C54.2635 76.8887 54.328 76.8242 54.3944 76.7578Z" fill="#FF9F1C"/>
<path d="M12.9882 41.6016C13.6802 41.635 14.6642 41.696 15.221 42.136C15.332 42.2852 15.332 42.2852 15.3137 42.4866C15.2343 42.6758 15.2343 42.6758 15.039 42.8711C14.3615 42.8989 13.3468 42.7694 12.8097 42.3367C12.6952 42.1875 12.6952 42.1875 12.7136 41.9861C12.7929 41.7969 12.7929 41.7969 12.9882 41.6016Z" fill="#FF9F1C"/>
<path d="M69.7144 33.8867C69.922 33.9844 69.922 33.9844 70.1173 34.1797C70.128 34.3971 70.128 34.3971 70.0196 34.668C69.7885 34.9047 69.5295 35.0957 69.2628 35.2905C69.1928 35.345 69.1228 35.3995 69.0507 35.4557C68.5318 35.842 68.5318 35.842 68.1687 35.8315C67.9688 35.7422 67.9688 35.7422 67.8712 35.6445C67.8437 35.4153 67.8437 35.4153 67.8712 35.1562C68.0146 34.9796 68.0146 34.9796 68.213 34.8206C68.2841 34.7633 68.3552 34.706 68.4285 34.647C68.5394 34.5607 68.5394 34.5607 68.6524 34.4727C68.7213 34.4141 68.7902 34.3556 68.8611 34.2953C69.3588 33.8867 69.3588 33.8867 69.7144 33.8867Z" fill="#FF9F1C"/>
<path d="M78.3203 27.6365C78.418 27.7342 78.418 27.7342 78.471 27.9943C78.4006 28.4267 78.2274 28.5336 77.8864 28.7882C77.8141 28.8391 77.7417 28.8901 77.6672 28.9426C77.5968 28.9959 77.5264 29.0491 77.4538 29.104C76.8453 29.5475 76.8453 29.5475 76.3672 29.492C76.3027 29.4275 76.2383 29.3631 76.1719 29.2967C76.1783 28.9466 76.2503 28.8275 76.5003 28.5787C76.5954 28.5055 76.6904 28.4322 76.7883 28.3567C76.8826 28.2829 76.9769 28.2092 77.0741 28.1332C77.1631 28.0659 77.2521 27.9987 77.3438 27.9295C77.4132 27.8728 77.4827 27.8162 77.5543 27.7578C77.8122 27.584 78.0173 27.6096 78.3203 27.6365Z" fill="#FF9F1C"/>
<path d="M55.3711 24.4141C55.6762 24.4507 55.6762 24.4507 55.957 24.5117C56.1218 25.0072 55.9743 25.4147 55.8349 25.8972C55.8137 25.9772 55.7924 26.0572 55.7705 26.1396C55.7489 26.2161 55.7274 26.2926 55.7052 26.3714C55.6759 26.4757 55.6759 26.4757 55.646 26.582C55.5664 26.7578 55.5664 26.7578 55.2734 26.9531C55.011 26.9165 55.011 26.9165 54.7851 26.8555C54.6428 26.314 54.7497 25.9319 54.9133 25.415C54.9354 25.3401 54.9575 25.2652 54.9802 25.1881C55.1483 24.6368 55.1483 24.6368 55.3711 24.4141Z" fill="#FF9F1C"/>
<path d="M34.7656 77.7347C35.0464 77.7225 35.0464 77.7225 35.3516 77.7347C35.416 77.7992 35.4805 77.8636 35.5469 77.9301C35.5188 78.403 35.2713 78.8105 35.0586 79.224C35.0046 79.3313 35.0046 79.3313 34.9495 79.4407C34.6831 79.9657 34.6831 79.9657 34.5703 80.0785C34.3323 80.0968 34.3323 80.0968 34.082 80.0785C34.0176 80.014 33.9531 79.9496 33.8867 79.8832C33.9113 79.355 34.141 78.938 34.3811 78.4794C34.4363 78.3715 34.4363 78.3715 34.4927 78.2616C34.583 78.0856 34.6742 77.9101 34.7656 77.7347Z" fill="#FF9F1C"/>
<path d="M37.9881 71.3867C38.2444 71.4233 38.2444 71.4233 38.4764 71.4844C38.6032 71.8859 38.5771 72.12 38.3947 72.4873C38.3137 72.636 38.231 72.7839 38.1468 72.9309C38.0845 73.0445 38.0845 73.0445 38.0209 73.1604C37.7187 73.7069 37.7187 73.7069 37.5975 73.8281C37.3594 73.8525 37.3594 73.8525 37.1092 73.8281C36.9139 73.5352 36.9139 73.5352 36.9265 73.3196C37.0408 72.953 37.2119 72.6321 37.396 72.2961C37.4312 72.2301 37.4664 72.1641 37.5027 72.0961C37.6462 71.8305 37.7735 71.6013 37.9881 71.3867Z" fill="#FF9F1C"/>
<path d="M72.5583 69.7266C73.0877 69.7393 73.3289 69.946 73.6997 70.3064C73.9657 70.5621 74.2043 70.7913 74.5115 70.9961C74.4792 71.2217 74.447 71.4473 74.4138 71.6797C74.1216 71.7223 73.9092 71.73 73.6529 71.5714C73.4669 71.4201 73.2897 71.2628 73.1138 71.0999C73.052 71.0448 72.9903 70.9897 72.9267 70.933C72.3646 70.4299 72.3646 70.4299 72.3447 70.1721C72.363 69.9219 72.363 69.9219 72.5583 69.7266Z" fill="#FF9F1C"/>
<path d="M28.6266 45.0507C28.8086 45.1174 28.8086 45.1174 28.9062 45.2151C28.9246 45.4531 28.9246 45.4531 28.9062 45.7034C28.8418 45.7678 28.7773 45.8323 28.7109 45.8987C26.8622 45.8078 26.8622 45.8078 26.3672 45.3128C26.3916 45.0137 26.3916 45.0137 26.4648 44.7268C27.0345 44.442 28.0446 44.8715 28.6266 45.0507Z" fill="#FF9F1C"/>
<path d="M54.7484 27.7584C54.9803 27.8317 54.9803 27.8317 55.078 27.9293C55.0715 28.7131 54.9305 29.6154 54.492 30.2731C54.2479 30.3036 54.2479 30.3036 54.0037 30.2731C53.8084 30.0777 53.8084 30.0777 53.7852 29.8195C53.8116 29.4466 53.8877 29.1003 53.9854 28.7411C54.0016 28.6763 54.0178 28.6115 54.0344 28.5448C54.2568 27.7116 54.2568 27.7116 54.7484 27.7584Z" fill="#FF9F1C"/>
<path d="M75.1951 71.9727C75.6949 71.9908 75.9287 72.1559 76.2815 72.4976C76.6157 72.8199 76.6157 72.8199 76.9807 73.1049C77.1482 73.2422 77.1482 73.2422 77.1787 73.5474C77.1482 73.8281 77.1482 73.8281 77.0505 73.9258C76.6841 73.9696 76.5168 73.9625 76.2109 73.7473C76.1315 73.6692 76.0521 73.5912 75.9702 73.5107C75.7244 73.2731 75.488 73.0468 75.2164 72.8386C74.9998 72.6562 74.9998 72.6562 74.957 72.3999C74.9998 72.168 74.9998 72.168 75.1951 71.9727Z" fill="#FF9F1C"/>
<path d="M41.0156 65.1367C41.4605 65.191 41.4605 65.191 41.6016 65.332C41.6637 65.8783 41.4855 66.2543 41.2476 66.7297C41.2152 66.8008 41.1829 66.8719 41.1495 66.9451C40.8987 67.453 40.8987 67.453 40.5128 67.5884C40.2344 67.5781 40.2344 67.5781 40.0391 67.3828C40.0656 66.858 40.2307 66.4434 40.4724 65.9851C40.5182 65.8944 40.5182 65.8944 40.5649 65.8018C40.6958 65.5469 40.8118 65.3405 41.0156 65.1367Z" fill="#FF9F1C"/>
<path d="M17.6758 64.5509C17.8711 64.7462 17.8711 64.7462 17.8848 64.9732C17.7072 65.3899 17.3608 65.5093 16.9678 65.7045C16.8931 65.7442 16.8185 65.7839 16.7416 65.8248C16.0324 66.1892 16.0324 66.1892 15.625 66.1134C15.4297 65.9181 15.4297 65.9181 15.4175 65.6617C15.4215 65.5852 15.4255 65.5087 15.4297 65.4298C15.6931 65.2813 15.9579 65.1356 16.2231 64.9904C16.2974 64.9484 16.3717 64.9065 16.4482 64.8633C16.8678 64.6355 17.1846 64.4733 17.6758 64.5509Z" fill="#FF9F1C"/>
<path d="M23.9258 61.5235C24.1212 61.7188 24.1212 61.7188 24.1334 61.9751C24.1293 62.0517 24.1253 62.1282 24.1212 62.207C23.8578 62.3556 23.5929 62.5012 23.3277 62.6465C23.2534 62.6884 23.1792 62.7303 23.1026 62.7735C22.6831 63.0014 22.3662 63.1636 21.8751 63.086C21.6797 62.8906 21.6797 62.8906 21.666 62.6637C21.8436 62.247 22.1901 62.1276 22.5831 61.9324C22.6577 61.8927 22.7324 61.853 22.8093 61.812C23.5185 61.4476 23.5185 61.4476 23.9258 61.5235Z" fill="#FF9F1C"/>
<path d="M83.8556 50.8533C83.9461 50.8531 84.0367 50.8528 84.13 50.8525C84.2723 50.8537 84.2723 50.8537 84.4175 50.8548C84.5592 50.8537 84.5592 50.8537 84.7038 50.8525C84.8398 50.8529 84.8398 50.8529 84.9786 50.8533C85.0618 50.8535 85.1449 50.8537 85.2306 50.854C85.449 50.8792 85.449 50.8792 85.7419 51.0746C85.7097 51.3001 85.6775 51.5257 85.6443 51.7581C85.274 51.7638 84.9038 51.7673 84.5334 51.7704C84.3752 51.7728 84.3752 51.7728 84.2138 51.7753C84.1131 51.7759 84.0124 51.7766 83.9086 51.7772C83.769 51.7788 83.769 51.7788 83.6266 51.7803C83.3982 51.7581 83.3982 51.7581 83.2029 51.5628C83.1785 51.3187 83.1785 51.3187 83.2029 51.0746C83.4455 50.8319 83.5213 50.8542 83.8556 50.8533Z" fill="#FF9F1C"/>
<path d="M36.94 34.6621C37.3406 34.8178 37.52 35.1092 37.7685 35.4495C37.8636 35.5756 37.9587 35.7017 38.0539 35.8279C38.1289 35.9286 38.2039 36.0293 38.2812 36.1331C38.3134 36.1653 38.3457 36.1975 38.3789 36.2307C38.3972 36.4688 38.3972 36.4688 38.3789 36.719C38.1836 36.9143 38.1836 36.9143 37.9478 36.9468C37.6344 36.9065 37.5644 36.8305 37.3664 36.5897C37.3103 36.5214 37.2542 36.4531 37.1963 36.3827C37.1394 36.3104 37.0825 36.2381 37.0239 36.1636C36.9647 36.0931 36.9056 36.0227 36.8446 35.9501C36.7892 35.8812 36.7338 35.8123 36.6768 35.7413C36.6009 35.6469 36.6009 35.6469 36.5234 35.5507C36.392 35.2832 36.4313 35.1421 36.5234 34.8635C36.7187 34.6682 36.7187 34.6682 36.94 34.6621Z" fill="#FF9F1C"/>
<path d="M72.6562 31.8362C72.8516 32.0315 72.8516 32.0315 72.9107 32.2493C72.8128 32.6972 72.4603 32.8787 72.1008 33.1362C71.9952 33.2168 71.9952 33.2168 71.8874 33.2989C71.2773 33.7474 71.2773 33.7474 70.8008 33.6916C70.7363 33.6272 70.6719 33.5627 70.6055 33.4963C70.6119 33.1463 70.6839 33.0271 70.9339 32.7784C71.029 32.7051 71.124 32.6319 71.2219 32.5564C71.3162 32.4826 71.4105 32.4089 71.5076 32.3329C71.5966 32.2656 71.6856 32.1984 71.7773 32.1291C71.848 32.0726 71.9186 32.0161 71.9913 31.9579C72.2263 31.796 72.377 31.7994 72.6562 31.8362Z" fill="#FF9F1C"/>
<path d="M30.3038 26.5312C30.8032 26.59 31.0513 27.0674 31.3475 27.4411C31.401 27.5049 31.4545 27.5687 31.5096 27.6345C31.7216 27.9019 31.8387 28.0578 31.8236 28.4054C31.7381 28.6129 31.7381 28.6129 31.6405 28.7106C31.4146 28.7415 31.4146 28.7415 31.1522 28.7106C30.8486 28.457 30.6162 28.1411 30.3709 27.8317C30.3174 27.7679 30.2639 27.704 30.2088 27.6383C29.9968 27.3708 29.8797 27.215 29.8949 26.8673C30.0171 26.5705 30.0171 26.5705 30.3038 26.5312Z" fill="#FF9F1C"/>
<path d="M62.4023 60.8394C62.6359 60.9987 62.8445 61.1824 63.0554 61.3704C63.1121 61.4195 63.1688 61.4687 63.2273 61.5193C63.4467 61.7103 63.6615 61.9032 63.8672 62.1089C63.8129 62.5538 63.8129 62.5538 63.6719 62.6948C63.4096 62.7482 63.2451 62.7348 63.0187 62.5877C62.8341 62.4376 62.6574 62.2816 62.4817 62.1211C62.4203 62.0669 62.359 62.0126 62.2957 61.9567C62.0651 61.752 61.8392 61.5457 61.6211 61.3277C61.6455 61.0774 61.6455 61.0774 61.7188 60.8394C61.9957 60.7009 62.1074 60.7441 62.4023 60.8394Z" fill="#FF9F1C"/>
<path d="M80.9019 50.7631C81.0594 50.7613 81.0594 50.7613 81.2202 50.7595C81.3205 50.7593 81.4207 50.7591 81.524 50.7589C81.6627 50.7583 81.6627 50.7583 81.8042 50.7577C82.031 50.7814 82.031 50.7814 82.2263 50.9767C82.2507 51.2209 82.2507 51.2209 82.2263 51.465C81.94 51.7513 81.6907 51.6888 81.2992 51.6918C81.2043 51.6915 81.1094 51.6912 81.0117 51.6909C80.9172 51.6924 80.8228 51.694 80.7254 51.6956C80.6347 51.6957 80.544 51.6958 80.4506 51.6958C80.3674 51.6961 80.2843 51.6964 80.1986 51.6967C79.9328 51.6525 79.846 51.582 79.6873 51.3674C79.6628 51.111 79.6628 51.111 79.6873 50.8791C79.9291 50.6373 80.5768 50.7633 80.9019 50.7631Z" fill="#FF9F1C"/>
<path d="M73.9136 50.4636C74.063 50.4606 74.063 50.4606 74.2154 50.4575C74.3109 50.457 74.4065 50.4565 74.5049 50.4559C74.5928 50.455 74.6806 50.4541 74.7711 50.4532C75.0001 50.488 75.0001 50.488 75.179 50.6205C75.293 50.781 75.293 50.781 75.2686 51.0373C75.1954 51.2692 75.1954 51.2692 75.0977 51.3669C74.7423 51.3915 74.3857 51.385 74.0296 51.3852C73.9292 51.3864 73.8288 51.3876 73.7254 51.3888C73.5816 51.3891 73.5816 51.3891 73.4349 51.3894C73.3023 51.39 73.3023 51.39 73.1671 51.3906C72.9493 51.3669 72.9493 51.3669 72.754 51.1716C72.7357 50.8725 72.7357 50.8725 72.754 50.5856C72.9904 50.3492 73.5961 50.4652 73.9136 50.4636Z" fill="#FF9F1C"/>
<path d="M19.9513 43.1621C20.7079 43.2141 21.3627 43.3825 22.0703 43.6523C22.0745 43.8476 22.0743 44.043 22.0703 44.2382C21.9727 44.3359 21.9727 44.3359 21.6065 44.3603C20.9789 44.3532 20.1504 44.2905 19.6389 43.9022C19.5313 43.75 19.5313 43.75 19.5557 43.4936C19.6596 43.1646 19.6596 43.1646 19.9513 43.1621Z" fill="#FF9F1C"/>
<path d="M16.6012 42.375C18.2393 42.5558 18.2393 42.5558 18.6524 42.9689C18.6768 43.2131 18.6768 43.2131 18.6524 43.4572C18.5879 43.5217 18.5235 43.5861 18.457 43.6525C17.7651 43.6191 16.7811 43.5582 16.2243 43.1181C16.1133 42.9689 16.1133 42.9689 16.1316 42.7675C16.2378 42.5142 16.3158 42.3867 16.6012 42.375Z" fill="#FF9F1C"/>
<path d="M67.0898 36.0349C67.2852 36.2303 67.2852 36.2303 67.3443 36.4481C67.2464 36.896 66.8939 37.0775 66.5344 37.335C66.4288 37.4155 66.4288 37.4155 66.321 37.4977C65.7109 37.9462 65.7109 37.9462 65.2344 37.8904C65.1699 37.826 65.1055 37.7615 65.0391 37.6951C65.0571 37.4027 65.0998 37.2493 65.2931 37.0268C65.5002 36.8572 65.7072 36.6882 65.918 36.5232C65.9795 36.473 66.0411 36.4228 66.1045 36.371C66.4337 36.1157 66.6678 35.9505 67.0898 36.0349Z" fill="#FF9F1C"/>
<path d="M34.6942 31.9316C35.0809 32.0766 35.2643 32.3361 35.5162 32.6541C35.5873 32.7406 35.5873 32.7406 35.6599 32.8289C35.8627 33.0773 36.0524 33.3271 36.2303 33.5941C36.1776 34.0375 36.1776 34.0375 36.035 34.18C35.8195 34.2247 35.8195 34.2247 35.5467 34.18C35.3384 33.978 35.1682 33.79 34.9913 33.5636C34.9439 33.5055 34.8965 33.4474 34.8477 33.3875C34.2268 32.621 34.2268 32.621 34.2772 32.1292C34.4725 31.9339 34.4725 31.9339 34.6942 31.9316Z" fill="#FF9F1C"/>
<path d="M75.3176 29.6999C75.4885 29.7854 75.4885 29.7854 75.6838 29.9807C75.6945 30.1981 75.6945 30.1981 75.5861 30.469C75.355 30.7057 75.096 30.8967 74.8293 31.0915C74.7593 31.146 74.6893 31.2006 74.6172 31.2567C74.0983 31.643 74.0983 31.643 73.7353 31.6325C73.5354 31.5432 73.5354 31.5432 73.4377 31.4455C73.4003 31.2231 73.4003 31.2231 73.4377 30.9573C73.6521 30.731 73.6521 30.731 73.9382 30.5117C74.0363 30.4363 74.1343 30.3609 74.2354 30.2832C74.3266 30.2156 74.4179 30.148 74.5119 30.0784C74.605 30.0057 74.605 30.0057 74.7 29.9315C74.9152 29.7719 75.0453 29.6848 75.3176 29.6999Z" fill="#FF9F1C"/>
<path d="M67.1875 65.2344C67.7651 65.2526 68.0772 65.5253 68.4937 65.8875C68.5562 65.938 68.6188 65.9885 68.6832 66.0406C69.1309 66.4238 69.1309 66.4238 69.1811 66.8354C69.1677 66.9194 69.1544 67.0033 69.1406 67.0898C68.8335 67.1673 68.8335 67.1673 68.457 67.1875C68.169 66.9971 68.169 66.9971 67.9016 66.7297C67.7681 66.5993 67.7681 66.5993 67.6319 66.4661C67.5497 66.3819 67.4675 66.2977 67.3828 66.2109C67.2695 66.1063 67.2695 66.1063 67.1539 65.9996C67.1006 65.9404 67.0472 65.8813 66.9922 65.8203C67.0215 65.4004 67.0215 65.4004 67.1875 65.2344Z" fill="#FF9F1C"/>
<path d="M33.3985 57.0313C33.5938 57.2266 33.5938 57.2266 33.6075 57.5051C33.4837 57.8468 33.4446 57.8767 33.1406 58.0406C32.9916 58.1093 32.8415 58.1756 32.6905 58.2398C32.5785 58.2917 32.5785 58.2917 32.4643 58.3447C31.7538 58.6625 31.7538 58.6625 31.3477 58.5938C31.1524 58.3985 31.1524 58.3985 31.1387 58.1715C31.3163 57.7548 31.6627 57.6354 32.0557 57.4402C32.1304 57.4005 32.205 57.3608 32.2819 57.3198C32.9911 56.9555 32.9911 56.9555 33.3985 57.0313Z" fill="#FF9F1C"/>
<path d="M69.3358 50.3903C69.7061 50.3847 70.0764 50.3812 70.4467 50.3781C70.5522 50.3765 70.6576 50.3749 70.7663 50.3732C70.867 50.3725 70.9677 50.3719 71.0715 50.3713C71.2111 50.3697 71.2111 50.3697 71.3536 50.3682C71.5819 50.3903 71.5819 50.3903 71.7772 50.5856C71.8016 50.8298 71.8016 50.8298 71.7772 51.0739C71.491 51.3602 71.2416 51.2977 70.8501 51.3007C70.7552 51.3004 70.6604 51.3001 70.5626 51.2998C70.4682 51.3013 70.3737 51.3029 70.2763 51.3045C70.1856 51.3046 70.0949 51.3047 70.0015 51.3047C69.9183 51.305 69.8352 51.3053 69.7495 51.3056C69.5311 51.2692 69.5311 51.2692 69.3533 51.14C69.2382 50.9763 69.2382 50.9763 69.2687 50.665C69.2908 50.5744 69.313 50.4837 69.3358 50.3903Z" fill="#FF9F1C"/>
<path d="M54.1018 31.2503C54.134 31.2825 54.1662 31.3148 54.1994 31.348C54.1937 32.046 54.1098 33.0151 53.6684 33.5777C53.5158 33.6917 53.5158 33.6917 53.2595 33.6673C53.0275 33.5941 53.0275 33.5941 52.9299 33.4964C52.8918 32.9471 52.9933 32.5091 53.1618 31.9949C53.1835 31.9243 53.2051 31.8537 53.2274 31.7809C53.2845 31.6019 53.3507 31.4257 53.4182 31.2503C53.6802 31.1193 53.8237 31.179 54.1018 31.2503Z" fill="#FF9F1C"/>
<path d="M57.3668 17.6572C57.617 17.6755 57.617 17.6755 57.8123 17.8708C57.8561 18.604 57.6039 19.3519 57.324 20.0193C57.2596 20.0837 57.1951 20.1482 57.1287 20.2146C56.6838 20.1603 56.6838 20.1603 56.5428 20.0193C56.5038 19.4678 56.6088 19.0326 56.7808 18.5178C56.8033 18.4472 56.8258 18.3766 56.8489 18.3038C57.0503 17.6816 57.0503 17.6816 57.3668 17.6572Z" fill="#FF9F1C"/>
<path d="M64.5507 62.9883C65.0801 63.001 65.3213 63.2077 65.6921 63.5681C65.958 63.8238 66.1966 64.053 66.5038 64.2578C66.5343 64.502 66.5343 64.502 66.5038 64.7461C66.3085 64.9414 66.3085 64.9414 66.0999 64.9914C65.6558 64.912 65.3882 64.6307 65.0573 64.3372C64.9558 64.2525 64.9558 64.2525 64.8523 64.1661C64.3706 63.7461 64.3706 63.7461 64.2993 63.3984C64.3554 63.1836 64.3554 63.1836 64.5507 62.9883Z" fill="#FF9F1C"/>
<path d="M27.1484 60.0587C27.2461 60.1564 27.2461 60.1564 27.2522 60.4555C27.2502 60.5501 27.2482 60.6448 27.2461 60.7423C26.9984 60.8715 26.7501 60.9995 26.5015 61.1268C26.397 61.1815 26.397 61.1815 26.2905 61.2373C25.8968 61.4378 25.5475 61.6003 25.0977 61.6212C24.9023 61.4259 24.9023 61.4259 24.8413 61.2001C24.9147 60.8844 24.9736 60.8577 25.238 60.6874C25.385 60.6052 25.5336 60.5259 25.6836 60.4494C25.7585 60.4106 25.8334 60.3718 25.9106 60.3319C26.334 60.1277 26.6683 59.9987 27.1484 60.0587Z" fill="#FF9F1C"/>
<path d="M23.1445 43.9453C25.0113 43.9566 25.0113 43.9566 25.4883 44.4336C25.5066 44.6716 25.5066 44.6716 25.4883 44.9219C25.293 45.1172 25.293 45.1172 24.9866 45.1408C24.5898 45.116 24.2273 45.041 23.8464 44.9341C23.7813 44.9171 23.7161 44.9001 23.649 44.8826C23.3532 44.802 23.1695 44.7515 22.9492 44.5312C23.0035 44.0864 23.0035 44.0864 23.1445 43.9453Z" fill="#FF9F1C"/>
<path d="M32.4901 29.248C32.9053 29.3104 32.9967 29.4534 33.241 29.7777C33.2869 29.8425 33.3328 29.9073 33.3801 29.974C33.4279 30.0384 33.4756 30.1028 33.5249 30.1691C33.6465 30.3332 33.7667 30.4984 33.8867 30.6637C33.9189 30.6959 33.9511 30.7281 33.9843 30.7613C34.0026 30.9994 34.0026 30.9994 33.9843 31.2496C33.789 31.4449 33.789 31.4449 33.5532 31.4774C33.2399 31.4371 33.1699 31.3611 32.9719 31.1203C32.9158 31.052 32.8596 30.9837 32.8018 30.9134C32.7449 30.841 32.688 30.7687 32.6294 30.6942C32.5702 30.6238 32.511 30.5533 32.4501 30.4808C32.3947 30.4118 32.3393 30.3429 32.2822 30.2719C32.2063 30.1776 32.2063 30.1776 32.1289 30.0813C31.9988 29.8164 32.0424 29.6706 32.1289 29.3941C32.2265 29.2965 32.2265 29.2965 32.4901 29.248Z" fill="#FF9F1C"/>
<path d="M58.1055 14.2578C58.5503 14.3121 58.5503 14.3121 58.6914 14.4531C58.685 15.2369 58.5439 16.1392 58.1055 16.7969C57.8613 16.8274 57.8613 16.8274 57.6172 16.7969C57.5527 16.7324 57.4883 16.668 57.4219 16.6016C57.4459 15.8682 57.5717 14.7916 58.1055 14.2578Z" fill="#FF9F1C"/>
<path d="M36.3281 74.6095C36.5234 74.6053 36.7188 74.6055 36.9141 74.6095C37.0117 74.7072 37.0117 74.7072 37.0453 74.9521C36.9991 75.4214 36.8015 75.7536 36.5723 76.1598C36.5303 76.2363 36.4884 76.3129 36.4452 76.3917C36.3422 76.5795 36.238 76.7666 36.1328 76.9532C35.9009 76.9655 35.9009 76.9655 35.6445 76.9532C35.5801 76.8888 35.5156 76.8243 35.4492 76.7579C35.4713 76.1877 35.6688 75.7828 35.9436 75.2992C35.9804 75.2324 36.0172 75.1656 36.0552 75.0968C36.1452 74.9339 36.2365 74.7716 36.3281 74.6095Z" fill="#FF9F1C"/>
<path d="M27.9298 23.8281C28.263 23.8393 28.3964 23.906 28.6443 24.1318C28.7167 24.2169 28.7891 24.302 28.8637 24.3896C28.9363 24.4737 29.0089 24.5578 29.0838 24.6445C29.1542 24.7296 29.2245 24.8147 29.297 24.9023C29.3708 24.9879 29.4446 25.0735 29.5206 25.1617C29.6877 25.3906 29.6877 25.3906 29.6693 25.6592C29.59 25.8789 29.59 25.8789 29.4923 25.9766C29.2322 26.0265 29.2322 26.0265 28.9064 25.9766C28.6592 25.7732 28.4758 25.5294 28.2838 25.2747C28.2306 25.2089 28.1773 25.1431 28.1225 25.0753C27.9008 24.7906 27.7479 24.592 27.688 24.2321C27.7345 24.0234 27.7345 24.0234 27.9298 23.8281Z" fill="#FF9F1C"/>
<path d="M56.5491 21.014C56.7384 21.0933 56.7384 21.0933 56.9337 21.2886C56.8886 21.9954 56.7308 22.9985 56.2501 23.5347C55.9937 23.5713 55.9937 23.5713 55.7618 23.5347C55.6641 23.4371 55.6641 23.4371 55.647 23.1365C55.6648 22.7382 55.7359 22.3787 55.8411 21.9966C55.8573 21.9323 55.8735 21.868 55.8902 21.8017C56.1125 20.9743 56.1125 20.9743 56.5491 21.014Z" fill="#FF9F1C"/>
</g>
<defs>
<clipPath id="clip0_11_174">
<rect width="100" height="100" fill="white"/>
</clipPath>
</defs>
</svg>
