<svg width="300" height="518" viewBox="0 0 300 518" fill="none" xmlns="http://www.w3.org/2000/svg">
<g clip-path="url(#clip0_97_2)">
<path  id="MC" d="M68.971 486.39L68.1679 485.62L65.9799 484.906L65.2519 486.667L64.9629 487.694L65.4433 487.71L65.9199 487.873L66.4978 488.262L66.738 488.353L67.0758 488.329L67.331 488.162L68.074 487.5L68.2279 487.302L68.4418 486.933L68.971 486.39Z" fill="#FF9F1C"/>
<path id="MP" d="M77.8993 489.67L78.0907 488.698L78.1094 488.329L77.3138 488.71L76.2968 489.404L75.6475 490.3L75.9703 491.272L76.1692 490.503L76.1617 490.368L76.5332 490.292L76.6345 490.439L76.6496 490.665L76.7584 490.82L77.0811 491.01L77.1712 491.145L77.2425 491.113L77.509 490.82L77.599 490.618L77.8993 489.67ZM60.3244 518L63.6157 517.901L67.2598 517.786L71.2191 517.663L75.5837 517.524L75.4937 517.207L75.2497 516.719L75.1972 516.382L75.5199 515.462L75.5837 515.129L75.7564 512.487L75.5837 511.119L75.6513 510.726L75.9102 509.973L76.293 507.45L76.6083 498.189L77.3326 492.863L77.3138 491.974L76.2105 492.49L75.8652 492.763L75.6325 493.16L75.3736 494.695L75.0508 495.758L74.9007 496.642L74.9345 497.519L75.1972 498.574L74.7769 498.613L74.4466 498.808L74.1539 498.943L73.8349 498.78L73.287 498.272L72.8816 497.606L72.5176 496.848L71.9096 496.055L71.4931 495.714L70.7988 495.274L70.082 495.111L69.5941 495.603L69.4215 494.889L68.9111 493.469L68.7459 492.454L68.5921 492.264L68.3744 492.097L68.1305 491.855L67.9278 491.486L67.6764 490.729L67.4775 490.368L67.1847 490.098L66.5805 489.852L66.3028 489.67L66.1714 489.464L65.965 488.912L65.8224 488.658L65.5897 488.535L65.1619 488.389L64.7416 488.313L64.5502 488.432L64.5202 489.507L64.5502 489.67L64.2499 489.824L63.9535 489.464L63.8409 488.845L64.0773 488.21L64.4976 487.857L64.963 487.695L65.252 486.667L65.98 484.906L68.168 485.62L68.9711 486.39L69.7705 485.573L69.9356 485.2L70.0519 484.795L70.127 484.347L70.157 483.875L70.2584 483.526L70.4835 483.316L70.7425 483.13L70.9414 482.86H71.114L71.2304 483.161L71.2867 483.391L71.2641 483.582L71.3955 483.288L71.1891 481.646L71.5831 480.936L72.0973 478.814L72.7428 477.434L74.2177 475.205L75.0095 474.253L82.324 468.816L82.2752 467.348L82.2977 467.166L82.4215 466.638L82.5379 465.889L82.5416 465.686L82.4628 465.076L82.414 464.893L82.2827 464.56L82.0425 464.112L81.9074 463.945L81.7085 463.775L81.3107 463.549L80.8341 463.378L78.83 463.14L78.7099 463.097L78.6161 462.807L78.571 462.502L78.5748 462.347L78.5936 462.236L78.7099 461.808L78.7324 461.625L78.5861 460.622L78.5973 460.047L78.5523 459.745L78.5072 459.598L78.4922 459.471L78.5223 459.329L78.571 458.98L78.5448 458.789L78.4284 458.599L78.2295 458.432L77.813 458.23L77.5352 458.155L76.9085 458.087L76.7434 458.028L76.6083 457.897L76.5407 457.556L76.3493 454.093L76.3906 453.951L76.4657 453.816L76.5595 453.709L76.6571 453.578L76.7359 453.443L76.7246 453.217L76.6383 452.9L76.3681 452.348L76.3456 451.848L76.3906 451.353L76.8597 449.544L76.8109 449.151L76.5707 448.914L75.1296 448.279L74.7506 448.021L74.3115 447.636L74.0976 447.398L73.9662 447.184L73.8349 446.371L73.7298 446.01L73.5872 445.689L71.8458 442.857L70.765 441.497L70.6862 441.346L70.6224 441.183L70.5736 440.997L70.4347 437.757L70.461 437.257L70.446 437.114L70.3897 436.952L70.2921 436.797L70.1233 436.638L69.9581 436.551L69.2526 436.301L68.9111 436.099L68.7872 436.004L68.6521 435.928L68.4757 435.873L68.2468 435.857L67.6801 435.984L67.0008 436.246L66.8207 436.293L66.6255 436.317L66.3703 436.297L66.0889 436.226L65.6648 436.031L64.8767 435.504L64.0323 435.155L63.8747 435.036L62.351 433.219L62.122 433.009L61.8706 432.835L61.424 432.644L58.1139 432.137L57.4272 431.76L57.187 431.692L56.275 431.522L55.7646 431.336L55.6408 431.24L55.288 431.014L53.6405 430.745L52.965 430.522L52.706 430.471L52.4921 430.459L52.2819 430.471L48.7542 432.303L48.3113 432.601L49.2984 434.877L50.0077 437.388L50.1615 439.922L49.9288 442.175L49.9551 446.744L49.9814 452.277L50.0002 456.203L50.0264 461.439L50.0715 468.598L49.5873 470.212L49.4747 471.049L49.441 472.135L49.5461 473.167L49.8388 473.849L50.0039 474.539L50.2666 476.613L50.2704 477.331L50.1503 477.771L49.9589 477.974L49.6849 478.148L49.3246 478.517L49.1032 478.918L47.9023 482.241L47.7334 483.157L47.8497 484.149L48.9568 487.968L49.6924 488.706L50.503 489.17L52.3795 489.682L52.008 490.721L52.1581 491.915L52.4921 493.144L52.6872 494.294L52.5822 495.179L51.6514 497.808L51.5126 498.776L51.8653 502.207L52.0755 503.139L53.4078 505.987L53.7005 508.719L53.6029 517.322L54.4286 517.512L55.8622 517.334L56.6803 517.365L58.7332 517.722L60.3244 518Z" fill="#FF9F1C" fill-opacity="0.57"/>
<path id="IB" d="M147.868 351.75L148.867 347.273L149.039 344.956L148.998 344.183L148.844 343.695L148.593 343.671L148.27 344.298L147.366 348.272L147.058 350.711L147.073 351.346L147.29 351.798L147.868 351.75ZM138.058 326.688L138.22 326.363L138.411 325.657L138.062 325.586L138.066 325.431L138.197 325.225V325.221V325.217H138.032L137.548 325.272L136.955 325.736L136.58 325.851L134.384 326.208L131.494 327.485L131.19 327.692L131.063 327.953L130.879 328.195L129.355 329.306L128.89 330.071L128.286 330.769L127.385 330.908L127.096 330.758L125.861 329.699L125.606 329.687L125.332 329.766L124.979 329.818L124.507 329.988L123.148 331.126L119.875 332.197L119.084 332.871L117.856 334.966L117.042 336.04L116.16 336.623H115.665L115.214 336.421L114.359 335.624L113.687 335.311L113.116 335.62L112.328 336.623L111.668 337.02L111.199 336.889L110.835 336.568L110.489 336.386L107.254 336.691L105.84 336.826L105.355 337.131L104.778 337.821L103.993 339.011L103.896 339.265L103.824 339.554L103.712 339.788L103.509 339.884L103.411 339.967L103.111 340.118L102.792 340.181L102.642 340.003L102.391 339.495L101.79 339.309L101.085 339.332L99.5009 339.626L94.6071 339.392L93.4775 339.527L92.4905 339.896L90.5653 341.522L89.9685 341.91L88.8202 342.188L87.7693 342.751L87.1801 342.946L86.5121 342.914L86.4145 342.874L86.2494 343.564L86.1218 343.893L85.983 344.179L85.1461 345.274L84.6995 346.103L84.5156 346.352L84.3167 346.582L83.8776 347.003L83.2921 347.717L83.0745 348.133L82.9881 348.26L82.8418 348.538L82.7892 348.696L82.7517 348.871L82.7292 349.057L82.7217 349.256L82.7329 349.462L83.1157 351.136L83.1608 351.504L83.1458 351.762L83.0444 352.095L82.9769 352.448L82.9731 352.841L83.0257 353.067L83.1458 353.289L86.0242 357.148L87.9532 358.771L88.0058 358.866L88.0433 359.036L88.0396 359.837L88.0846 360.317L88.2009 360.809L89.0979 362.277L89.1504 362.638L89.1654 362.891L89.0754 363.692L88.6363 365.775L88.6438 365.981L88.7789 366.762L88.8126 367.365L88.7751 367.948L88.8014 368.361L89.1129 369.662L89.1767 370.28L89.1579 370.471L89.1129 370.637L89.0078 370.748L88.8652 370.832L88.0508 371.125L87.7994 371.308L87.698 371.419L87.6267 371.561L87.5892 371.732L87.5329 372.942L87.5066 373.12L87.2064 374.1L86.9362 375.932L86.94 376.138L86.9587 376.349L87.0375 376.757L87.3303 377.53L89.0191 380.35L89.1992 380.549L89.3606 380.695L89.7359 380.965L89.8447 381.072L90.0361 381.31L90.3776 381.838L90.614 382.29L91.1319 383.083L91.6611 383.642L92.498 384.265L92.6894 384.356L92.9296 384.507L93.5976 385.13L94.1118 385.467L94.3369 385.677L94.5283 385.927L94.6897 386.212L94.8736 386.466L94.9899 386.569L95.6204 387.006L95.8381 387.224L96.2134 387.727L96.6637 388.608L97.6583 390.095L97.8459 390.734L97.9172 391.321L97.9059 391.9L97.951 392.098L98.1349 392.32L98.2887 392.455L98.4389 392.558L98.5552 392.657L98.8367 393.042L98.9418 393.153L99.1819 393.343L99.5197 393.736L99.8199 394.161L100.038 394.323L100.244 394.422L100.394 394.478L100.537 394.589L100.867 394.978L101.021 395.108L101.19 395.331L101.366 395.608L102.004 396.857L102.094 396.984L102.196 397.103L102.387 397.361L102.451 397.528L102.5 397.718V398.226L102.537 398.496L102.627 398.781L103.002 399.463L103.111 399.745L103.156 400.161V401.058L103.213 401.292L103.314 401.51L103.554 401.795L103.73 401.942L104.031 402.129L104.132 402.248L104.196 402.382L104.166 402.589L104.083 402.731L103.948 402.831L103.134 403.104L102.811 403.112L102.661 403.144L102.552 403.235L102.492 403.382L102.473 403.568L102.481 403.767L102.522 403.993L102.601 404.235L102.909 404.798L102.95 405.063L102.946 405.25L102.961 405.432L103.032 405.603L103.321 405.877L103.445 406.055L103.535 406.293L103.622 406.741L103.704 407.011L103.828 407.201L103.877 407.261L103.918 407.289L104.072 407.344L104.23 407.364L104.605 407.356L104.804 407.463L104.984 407.685L105.363 408.478L105.419 408.72L105.348 408.927L105.247 409.073L105.142 409.2L105.074 409.335L105.063 409.506L105.134 409.696L105.303 409.95L105.389 410.132L105.355 410.362L105.254 410.497L105.119 410.608L104.976 410.687L104.849 410.779L104.774 410.918L104.725 411.084L104.597 411.382L104.507 411.516L104.413 411.631L103.937 412.044L103.862 412.179L103.809 412.341L103.821 412.516L103.888 412.659L104.079 412.73L104.241 412.702L104.402 412.639L104.68 412.472L104.826 412.413L104.98 412.397L105.115 412.456L105.239 412.615L105.663 413.464L105.731 413.69L105.716 413.928L105.641 414.087L105.442 414.336L105.367 414.475L105.344 414.852L105.314 415.007L104.984 415.534L104.928 415.697L104.901 416.514L104.826 417.081L104.845 417.597L104.74 417.961L104.714 418.199L104.744 418.521L104.864 419.127L104.849 419.429L104.804 419.659L104.759 419.818L104.74 420.004L104.931 422.229L104.856 422.836L104.894 423.173L104.856 423.371L104.815 423.502L104.785 423.546L104.747 423.609L104.545 424.093L104.451 424.422L104.432 424.617L104.444 424.811L104.657 425.771L104.672 426.013L104.669 426.314L104.699 426.397L104.766 426.382L104.961 426.167L105.153 426.084L105.344 426.052L105.506 426.092L105.659 426.152L105.941 426.298L106.084 426.358L106.241 426.378L106.519 426.322L106.594 426.378L106.725 433.41L106.789 433.909L106.909 434.429L110.373 440.818L110.58 441.092L110.782 441.171L111.946 440.747L113.139 440.489L113.473 440.37L113.762 440.208L113.886 440.104L114.122 439.958L114.179 439.934L114.235 439.918L114.561 439.863L114.719 439.811L114.865 439.732L115.241 439.442L115.406 439.383L115.597 439.359L115.961 439.351L116.126 439.307L116.524 439.049L116.701 439.006L117.267 438.978L117.447 438.946L117.605 438.887L118.337 438.51L118.502 438.486L118.656 438.526L118.798 438.593L118.885 438.72L118.888 438.903L118.686 439.244L117.834 440.156L117.609 440.477L117.474 440.878L117.736 441.362L119.864 443.662L119.969 443.892L119.823 444.067L115.804 446.292L115.451 446.546L115.207 446.819L115.252 447.188L115.357 447.676L115.41 448.14L115.522 448.6L115.687 448.957L115.942 449.282L116.434 449.413L118.641 449.492L119.489 449.853L120.356 451.464L120.427 451.432L125.118 450.167L129.727 447.823L138.025 443.119L140.119 440.914L140.265 440.624L140.325 440.299L140.336 439.874L140.415 439.549L143.609 435.837L147.966 428.999L148.296 428.388L148.446 427.742L148.536 427.571L148.743 427.389L148.946 427.167L149.039 426.865L148.983 426.501L148.717 425.834L148.657 425.41L148.724 424.748L150.345 419.096L150.293 418.929L150.116 418.83L150.03 418.58L149.899 417.132L149.602 416.768L148.446 416.462V416.704L148.563 417.069L148.353 419.357L148.172 419.647L147.838 419.643L147.305 419.373L146.566 418.659L146.161 418.402L145.748 418.485L145.459 418.985L145.504 419.584L145.958 420.71L144.648 422.372L144.397 422.4L144.465 422.047L144.723 421.428L144.784 421.055L144.754 420.666L144.63 420.036L144.611 419.837L144.682 419.508L144.9 419.056L144.997 418.723L145.042 418.322L144.997 417.251L145.057 416.577L145.32 415.3L145.38 414.681L145.358 414.324L145.189 413.571L145.024 413.503L144.716 413.265L144.622 413.004L145.091 412.885L145.789 413.051L145.898 413.48L145.774 414.063L145.748 414.681L146.037 415.34L146.285 415.054L146.469 414.34L146.532 413.682V410.882L146.986 406.642L148.627 401.335L148.829 399.975L148.784 399.309L148.506 398.115L148.446 397.433L148.521 396.778L148.72 396.263L149.231 395.299L150.327 392.411L150.95 391.452L151.974 389.223L152.12 388.287L151.546 388.001V388.203L151.76 388.517L151.531 388.687L151.07 388.679L150.578 388.445L150.552 388.735L150.473 388.925L150.195 389.33L149.715 388.057L148.829 381.017L148.923 376.975L150.319 371.978L150.39 371.288L150.195 369.17V368.519L150.578 364.537H150.39L150.304 365.081L150.056 365.854L149.948 367.655L149.839 368.21L149.617 368.761L149.039 363.328L149.141 362.562L149.152 362.185L149.039 361.884L148.814 361.753L148.491 361.717L148.202 361.856L148.075 362.233L148.019 362.308L147.876 362.407L147.711 362.503L147.591 362.542L147.474 362.622V362.816L147.508 363.038L147.482 363.224L146.87 364.153L146.728 364.537L146.986 364.72L147.692 366.076L147.32 366.588L147.058 366.37L146.728 365.418L146.544 365.584L146.435 365.791L146.42 366.029L146.532 366.322L146.048 367.516L146.056 369.094L146.439 370.669L147.095 371.839L146.45 372.255L146.243 372.731L146.326 374.143L146.138 374.484L145.733 374.005L145.189 372.942L144.716 372.664L144.209 372.454L143.812 372.077L143.646 371.288L143.654 369.915L144.495 361.642L144.243 358.953L143.954 357.43L143.819 355.387L143.706 354.86L142.862 352.885L142.599 351.501L142.738 348.716L142.667 347.348L141.792 345.159L141.421 344.925L141.012 344.373L139.301 341.248L138.411 338.793L138.178 335.989L138.445 335.065L138.644 332.994L138.602 332.439L137.762 336.231L137.06 337.024L137.135 335.66L137.06 335.299L136.779 335.025L136.475 334.938L136.362 334.811L136.658 334.422L136.989 334.244L137.323 334.164L137.522 333.994L137.447 333.55L137.214 333.34L136.887 333.228L136.7 333.058L136.869 332.677L136.587 332.463L136.523 332.237L136.535 331.951L136.486 331.586L136.546 331.606L136.621 331.483L136.677 331.293L136.658 331.126L136.557 330.976L136.456 330.944L136.339 330.924L135.919 330.623L135.653 330.5L135.488 330.282L135.521 329.818L135.724 329.441L135.96 329.484L136.189 329.691L136.381 329.818L136.876 329.73L137.244 329.449L137.443 328.965L137.439 328.068L137.473 327.811L137.447 327.616L137.345 327.581L137.15 327.585L136.955 327.533L136.869 327.299L136.97 326.906L137.214 326.736L137.525 326.772L137.833 326.982L138.058 326.688Z" fill="#FF9F1C" fill-opacity="0.57"/>
<path id="ZB" d="M202.304 145.292L202.147 145.252L201.982 145.054L201.888 144.888L201.753 144.578L201.659 144.463L200.728 143.983L200.514 143.809L200.383 143.634L199.816 141.96L199.674 141.691L199.482 141.469L199.396 141.346L199.332 141.207L199.261 140.874L199.208 140.719L199.144 140.58L198.976 140.334L198.596 139.886L198.176 139.478L197.703 139.105L197.508 138.891L183.397 138.661L183.431 139.946L183.318 140.414L182.166 142.306L181.971 142.512L181.768 142.647L181.573 142.809L181.446 143.039L181.307 143.452L181.183 143.65L180.8 143.983L179.235 145.843L178.338 146.418L178.196 146.482L178.034 146.514L177.678 146.537L177.528 146.565L177.325 146.652L176.319 147.41L176.192 147.481L175.843 147.537L175.662 147.584L175.19 147.878L175.047 147.934L174.882 147.953L174.713 147.949L174.214 147.819L174.041 147.807L173.831 147.866L173.715 147.981L173.617 148.12L172.833 149.742L172.229 150.583L172.165 150.726L172.116 150.88L172.108 151.051L172.12 151.221L172.157 151.392L172.187 151.761L172.146 152.38L172.06 152.661L171.906 152.978L171.561 153.546L171.32 153.74L171.106 153.811L170.949 153.76L170.671 153.609L170.427 153.435L170.281 153.367L170.127 153.308L169.954 153.268L169.804 153.209L169.677 153.121L169.354 152.796L169.226 152.713L169.046 152.649L168.795 152.614L159.375 152.697H158.654L158.651 152.725L158.493 155.176L158.241 159.043L158.065 161.787L157.78 166.245L157.495 167.403L157.299 168.193L157.311 168.684L157.468 169.628L157.438 170.116L157.172 170.787L156.748 171.298L154.702 172.809L154.406 172.972L154.147 172.996L153.61 172.889L153.321 172.904L150.631 173.769L149.948 173.84L149.805 174.027L149.722 174.507L149.538 174.792L149.186 174.776L148.81 174.582L148.566 174.344L148.364 173.825L147.898 173.491L147.317 173.321L146.761 173.289L146.12 173.464L145.59 173.848L143.624 175.744L143.463 175.95L142.84 176.736L142.322 177.902L142.13 179.342L142.194 179.667L142.532 180.539L142.423 180.857L141.755 181.709L141.714 181.864L141.605 182.284L141.612 183.522L141.458 184.077L141.072 184.513L139.102 185.906L138.745 186.171L139.207 187.555L139.661 188.325L139.777 188.646L139.939 188.904L140.254 189.015L140.513 189.063L141.132 189.316L141.312 189.424L141.44 189.57L141.586 189.892L141.699 190.062L141.785 190.122L142.025 190.233L142.104 190.292L142.783 191.085L142.87 191.248L142.952 193.306L143.065 193.925L143.631 195.139L143.774 195.912L143.068 196.551L143.001 197.209L143.065 198.391L142.975 198.534L142.802 198.673L142.667 198.831L142.678 199.03L142.81 199.172L143.721 199.751L143.89 200.017L143.748 200.422L143.448 200.993L143.414 201.496L143.661 202.67L143.699 203.301L143.624 203.821L143.47 204.249L143.26 204.602L143.252 204.606L143.365 205.078L143.508 208.691L143.654 209.286L144.318 210.682L144.521 211.808L144.51 212.062L144.161 212.641L144.082 212.86L144.044 213.117L144.018 213.871L144.029 214.006L144.348 215.779L144.322 221.847L144.052 223.176L144.404 223.413L144.716 223.695L145.654 224.94L146.03 225.17L146.195 225.472L146.683 225.924L146.81 226.166L146.964 226.206L147.129 226.717L147.306 227.84L147.448 228.351L147.685 228.692L148.717 229.295L149.062 229.624L149.298 229.981L149.636 230.83L149.869 231.199L150.184 231.413L150.541 231.58L150.897 231.806L151.764 232.714L152.147 232.885H152.507L153.224 232.686L153.494 232.651L153.903 232.778L154.575 233.198L155.464 233.424L156.039 233.765L157.067 234.693L158.47 235.383L159.03 235.887L158.729 236.522L159.469 237.319L159.675 237.596L160.103 238.437L160.287 238.667L160.212 239.472L160.782 240.091L162.509 241.015L163.721 241.491L164.017 241.709L164.4 242.253L164.7 242.566L165.304 242.879L165.714 243.395L165.995 243.982L166.243 244.708L166.404 245.473L166.539 245.854L166.731 246.017L166.746 246.27L167.136 247.468L167.32 247.841L167.451 248.198L167.414 249.646L167.549 250.082L167.691 250.419L167.624 250.641L167.125 250.72L166.588 251.153L166.475 252.128L166.61 253.16L166.817 253.747L166.288 254.008L166.397 254.322L166.914 254.457L167.609 254.175L168.1 254.948L168.603 255.531L168.648 255.722L168.149 256.527L167.819 256.864L167.432 257.106L167.031 257.205L166.993 257.237H166.986V257.344L166.873 257.637L166.817 257.871L166.952 259.688L167.372 260.136L168.371 260.021L169.2 259.751L170.127 259.589L170.517 259.783L170.765 259.831L170.874 259.692L170.832 259.402L170.724 259.18L170.54 259.03L170.296 258.95L170.686 257.923L170.529 256.793L169.913 254.607L169.951 253.636L170.915 255.662L171.568 256.344L172.086 256.531L172.72 256.884L173.358 257.098L173.887 256.884L174.259 256.678L174.728 256.491L174.976 256.182L174.608 255.46L174.604 255.155L174.57 255.059L174.484 254.996L174.289 254.909L174.184 254.845L174.233 255.091L173.97 255.222L173.741 255.135L173.985 254.465L174.075 253.778L174.184 253.532L174.413 253.394L174.563 253.485L174.623 253.763L174.57 254.179L175.013 253.465L176.113 250.954L176.619 250.3L176.762 249.931L176.589 249.546L176.574 249.301L176.965 249.193L177.483 249.178L177.843 249.213L177.745 248.999L177.652 248.376L178.241 248.666L178.421 248.809L178.601 248.357L178.807 247.087L179.738 246.865L181.055 245.568L183.705 242.28L184.85 241.253L186.809 238.703L187.143 238.041L186.749 238.255L185.923 238.901L185.39 239.112L185.833 238.148L186.118 237.696L186.55 237.398L187.086 237.446L187.732 237.672L188.268 237.763L188.49 237.382L188.58 236.815L188.82 236.371L189.552 235.558L189.939 235.026L190.802 233.293L190.415 233.031L190.104 232.75L189.777 232.528L188.835 232.282L188.625 231.881L188.49 230.723L188.268 229.716L187.878 228.669L187.263 228.161L186.355 228.8L186.726 227.998L187.469 227.796L188.284 228.105L188.861 228.8L188.952 229.283L188.948 229.716L189.049 230.104L189.447 230.434L189.818 230.64L190.107 230.874L190.355 231.175L190.61 231.58L190.802 231.366L190.982 231.976L190.997 232.218L191.826 231.378L193.883 227.729L195.861 225.884L196.667 224.802L196.791 223.647L197.437 223.846L198.278 223.576L199.002 223.072L199.317 222.569L199.426 222.14L199.715 221.958L200.469 221.938L200.867 221.843L201.148 221.593L201.625 220.871L201.914 221.137L202.323 221.022L202.747 220.697L203.502 219.892L207.127 217.607L207.825 216.774L208.801 216.925L209.927 216.112L210.97 215.148L211.675 214.835L211.597 215.239L211.882 215.192L215.53 212.538L217.083 211.654L220.78 210.801L222.611 210.044L223.264 209.504L222.705 209.096L223.313 208.576L222.99 207.886L222.33 207.156L221.936 206.518L222.247 206.708L222.589 206.843L222.949 206.867L223.283 206.728L223.092 206.089L223.501 206.7L223.542 208.802L224.056 209.52L224.533 209.54L224.931 209.242L225.576 208.453L225.944 208.168L233.915 204.792L233.784 204.535L233.773 204.269L233.881 204.031L234.107 203.833L234.294 203.892L234.512 204.13L234.82 204.36L235.259 204.368L236.576 202.944L236.456 203.515L237.428 203.345L238.467 202.92L238.978 202.258L238.359 201.366L238.824 201.512L239.492 202.258L239.92 202.432L244.356 201.992L245.403 201.627L247.035 200.453L247.97 200.358L248.957 200.422L249.97 200.303L250.42 200.065L250.829 199.664L251.145 199.16L251.317 198.601V197.994L251.062 197.99L250.642 198.133L250.146 197.943L250.702 197.776L251.194 197.51L251.505 197.082L251.509 196.574L251.467 196.535L251.437 196.229L251.501 195.452L251.494 195.262L251.475 195.083L251.4 194.929L251.171 194.607L251.085 194.453L250.901 193.993L250.18 193.049L250.049 192.751L249.97 192.489L249.951 192.319L249.692 191.752L249.46 191.359L249.167 190.621L249.013 190.356L248.867 190.217L248.664 190.066L247.876 189.693L247.76 189.602L247.621 189.455L247.444 189.138L247.362 188.912L247.309 188.694L247.279 188.325L247.324 187.294L247.362 187.111L247.422 186.957L247.501 186.826L247.598 186.707L247.7 186.619L247.996 186.461L248.293 186.366L248.735 186.286L248.912 186.219L249.047 186.128L249.133 186.005L249.193 185.85L249.212 185.672L249.231 185.283L249.197 184.862L249.156 184.64L249.152 184.553L249.062 183.891L248.893 183.232L248.784 182.931L248.638 182.665L248.296 182.173L248.225 182.035L248.172 181.884L248.007 181.027L247.872 180.627L247.831 180.539L247.516 180.047L247.302 179.437L247.167 179.155L246.851 178.643L246.502 178.179L246.36 177.906L246.266 177.585L245.999 177.029L245.639 175.95L245.598 175.788L245.602 175.597L245.658 175.221L245.669 175.022L245.647 174.657L245.665 174.471L245.703 174.305L245.996 173.737L246.048 173.579L246.093 173.408L246.116 173.039L246.09 172.861L246.048 172.702L245.5 171.187L244.9 170.132L244.326 169.375L244.161 169.097L244.097 168.938L244.074 168.772L244.078 168.581L244.149 168.22L244.161 168.022L244.157 167.84L244.123 167.669L244.063 167.526L243.932 167.348L243.444 166.785L243.357 166.559L243.331 166.368L243.35 166.214L243.301 166.027L243.192 165.833L242.963 165.555L242.858 165.345L242.795 165.151L242.652 164.476L242.603 164.326L242.536 164.183L241.961 163.306L241.781 162.866L241.642 162.6L241.436 162.418L239.939 161.355L239.848 161.236L239.755 161.121L239.387 160.847L239.278 160.744L239.184 160.629L239.057 160.344L238.944 159.848L238.891 159.697L238.711 159.546L238.434 159.412L237.049 159.055L235.754 158.436L235.386 158.202L235.169 157.996L235.116 157.841L235.026 157.325L234.868 156.865L234.797 156.726L234.609 156.5L234.501 156.401L234.26 156.219L234.065 156.147L233.36 156.005L233.078 155.894L232.658 155.572L232.151 155.255L232.054 155.108L231.982 154.95L231.896 154.628L231.795 154.486L231.652 154.351L231.386 154.204L231.127 154.022L231.093 153.978L230.999 153.839L230.815 153.629L230.477 153.367L230.279 153.181L230.17 153.101L229.325 152.633L229.179 152.582L228.965 152.614L228.323 152.796L227.986 152.848L227.809 152.856L226.308 152.618L226.027 152.518L225.572 152.272L225.16 151.991L224.784 151.527L224.634 151.269L224.375 150.706L224.3 150.575L224.176 150.456L223.767 150.182L223.673 150.024L223.662 149.853L223.7 149.694L223.718 149.528L223.681 149.381L223.565 149.242L223.08 148.953L222.758 148.711L222.394 148.556L222.078 148.485L221.684 148.14L221.392 147.949L219.988 147.354L219.602 147.12L219.369 146.914L219.305 146.771L219.234 146.637L219.14 146.522L218.817 146.22L218.72 146.109L218.569 145.867L218.434 145.772L218.243 145.693L217.226 145.673L216.903 145.816L216.742 145.839L216.539 145.796L216.291 145.649L216.126 145.53L216.01 145.403L215.826 145.169L215.428 144.535L215.334 144.423L215.177 144.328L214.959 144.273L214.561 144.281L214.332 144.328L214.16 144.4L213.927 144.582L213.672 144.733L213.529 144.784L213.357 144.816L212.929 144.844L212.76 144.895L212.636 144.991L212.355 145.344L212.25 145.443L211.491 145.903L211.199 146.006L211.037 146.034L210.823 146.018L210.587 145.943L210.276 145.752L209.99 145.455L209.84 145.371L209.641 145.32L209.307 145.292L209.101 145.209L208.913 144.983L208.804 144.582L208.666 144.435L208.425 144.301L207.956 144.118L207.742 143.963L207.596 143.817L207.532 143.674L207.224 143.162L207.108 143.031L206.935 142.916L206.47 142.655L206.252 142.583L205.892 142.603L205.697 142.651L205.558 142.71L205.16 143.027L204.965 143.253L204.417 144.217L204.245 144.455L204.132 144.554L204.008 144.63L203.866 144.693L203.719 144.741L203.224 144.832L203.077 144.884L202.439 145.256L202.304 145.292Z" fill="#FF9F1C" fill-opacity="0.57"/>
<path id="SF" d="M144.052 223.176L143.725 222.958L143.087 222.414L141.275 221.435L140.911 221.153L140.708 220.82L140.438 220.689L139.71 219.979L138.828 219.329L138.374 218.817L138.002 218.293L137.871 218.008L137.833 217.813V217.223L137.803 217.044L137.439 215.93L137.293 215.692L136.854 215.176L136.73 214.926L136.482 213.593L135.66 211.432L135.364 211.004L135.308 210.853L135.202 210.417L134.745 209.619L134.636 209.334L134.482 209.298L134.426 208.671L134.095 207.474L133.559 206.169L132.429 204.146L131.735 201.041L131.333 200.097L131.097 199.783L128.552 197.507L127.896 197.162L125.749 196.511L123.629 195.282L121.943 197.348L121.411 198.625L121.084 199.169L120.765 199.529L120.195 200.049L120.011 200.188L117.943 201.223L116.528 201.6L116.292 201.699L115.447 202.183L115.008 202.54L114.828 202.782L113.154 206.466L113.087 206.708L113.057 206.922L113.045 207.133L113.139 208.898L113.064 209.485L112.85 210.139L112.344 211.317L111.942 212.642L111.721 214.216L111.728 215.85L111.623 216.263L110.486 219.178L110.418 219.578L110.448 220.019L111.27 223.35L111.323 223.779L110.944 226.817L110.936 227.221L111.004 227.578L111.274 227.804L113.605 228.744L113.762 228.879L113.867 229.01L113.946 229.153L114.303 229.605L114.441 229.744L114.663 229.894L114.764 230.097L114.82 230.418L114.667 231.782L114.682 231.874L114.854 232.306L114.843 233.186L114.715 234.452L114.044 237.196L113.68 238.168L113.222 238.648L112.032 238.473L111.66 238.533L111.353 238.806L110.493 240.068L110.437 240.111L110.392 240.131L110.302 240.183L110.084 240.23L109.945 240.206L109.656 240.119L109.371 239.996L108.977 239.73L108.703 239.421L108.587 239.326L108.223 239.076L108.11 238.977L107.919 238.747L107.848 238.604L107.799 238.434L107.739 238.037L107.637 237.692L107.352 237.113L107.262 236.99L106.872 236.585L106.8 236.522L106.714 236.466L106.444 236.367L105.607 236.228L105.446 236.169L105.134 236.125L104.954 236.554L104.778 237.537L104.706 237.739L104.616 237.898L104.316 238.219L103.963 238.505L103.288 238.894L102.826 239.282L102.732 239.393L102.406 239.905L101.621 240.797L101.58 241.004L101.603 241.178L101.663 241.333L102.327 242.622L102.447 242.935L102.496 243.106L102.511 243.3L102.507 243.49L102.455 243.843L102.166 244.795L102.143 244.966L102.158 245.128L102.222 245.243L102.507 245.299L102.65 245.351L102.714 245.497L102.777 245.882L102.826 246.056L102.897 246.207L103.063 246.469L103.138 246.643L103.19 246.834L103.186 247.143L103.085 247.345L102.608 248.032L102.458 248.139L102.308 248.159L102.151 248.206L101.978 248.329L101.76 248.682L101.464 249.027L101.22 249.202L101.081 249.352L100.931 249.555L100.473 250.34L99.6287 251.252L99.2196 251.803L99.0695 252.141L98.788 253.259L98.7467 253.64L99.0582 254.389L99.9627 254.453L100.36 254.556L101.336 255.21L102.338 255.54L102.624 255.762L102.815 256.099L102.924 256.436L103.059 256.753L103.348 257.019L103.671 257.158L103.971 257.241L104.256 257.368L104.522 257.63L104.699 257.967L104.89 258.689L105.037 259.046L105.292 259.367L105.57 259.49L106.241 259.617L106.579 259.827L106.763 260.105L106.921 260.414L107.183 260.711L107.525 260.85L107.742 260.822L107.589 261.834L104.759 273.003L104.748 280.907L104.684 281.431L104.492 281.617L104.158 281.704L103.434 281.728L103.134 281.768L102.897 281.851L102.612 282.053L102.526 282.252L102.496 282.458L102.563 282.811L102.612 282.977L102.68 283.14L103.374 284.334L103.408 284.738L103.404 285.381L103.235 286.908L103.246 287.523L103.288 287.848L103.479 287.864L104.083 287.856L104.245 287.899L104.376 287.979L104.477 288.082L104.669 288.526L104.763 288.645L104.89 288.748L105.037 288.808L105.209 288.824L105.551 288.82L105.701 288.871L105.832 288.947L105.952 289.054L106.196 289.359L106.264 289.43L106.365 289.506L106.823 289.724L106.894 289.767L106.778 289.843L106.298 290.053L106.005 290.109L105.652 290.12L105.581 290.136L105.536 290.168L105.382 290.394L105.292 290.473L104.59 290.906L104.455 291.053L104.342 291.235L104.117 291.715L104.027 291.846L103.937 291.937L103.697 292.127L102.766 292.504L102.552 292.627L102.395 292.742L102.079 293.059L102.027 293.099L101.937 293.159L101.749 293.234L101.059 293.369L100.676 293.547L100.616 293.587L100.582 293.623L99.8426 294.971L99.76 295.039L99.6437 295.023L99.3172 295.011L99.1896 294.983L99.1183 294.939L99.0883 294.916L98.5516 294.289L98.3264 294.091L98.1988 294.011L97.9211 293.884L97.7973 293.797L97.7259 293.65L97.6021 293.091L97.5233 292.956L97.422 292.849L97.2831 292.798L97.1367 292.802L96.9904 292.853L96.3411 293.278L96.1835 293.333L96.0109 293.365L95.4629 293.353L95.2753 293.369L94.9525 293.472L94.8174 293.551L94.6974 293.65L94.4046 293.991L94.277 294.075L93.9881 294.218L93.6653 294.329L93.5189 294.4L93.3838 294.483L93.2675 294.578L92.986 294.868L92.8472 295.086L90.2427 297.383L90.1413 297.565L90.1226 297.759L90.8281 300.425L90.9069 300.559L91.0158 300.663L91.7438 300.956L91.9802 301.142L92.0666 301.273L92.1229 301.432L92.1641 301.622L92.2204 302.257L92.303 302.626L92.3818 302.777L92.7308 303.288L92.8847 303.59L92.9447 303.764L92.9785 303.986L92.9522 304.165L92.3893 305.763L92.303 306.203L92.2955 306.521L92.3368 306.723L92.3518 307.012L92.3293 307.401L92.3518 307.821L92.4456 308.238L99.5123 316.091L99.9064 316.321L103.265 317.606L103.569 317.876L103.689 318.252L103.738 318.673L103.866 325.229L103.956 325.558L104.185 325.697L104.537 325.764L106.819 325.967L107.104 326.066L109.945 328.406L110.129 328.628L110.257 328.834L110.343 329.159L110.347 329.389L110.317 329.584L110.156 330.052L110.081 330.191L109.994 330.318L109.893 330.433L109.656 330.627L109.094 330.936L108.786 331.067L108.628 331.186L108.489 331.373L108.324 331.718L108.283 332.007L108.29 332.301L108.347 332.662L108.335 332.896L108.283 333.078L108.178 333.189L107.754 333.435L107.622 333.574L107.476 334.03L107.405 334.446L107.255 336.691L110.49 336.386L110.835 336.568L111.199 336.889L111.668 337.02L112.329 336.624L113.117 335.62L113.687 335.311L114.359 335.624L115.215 336.421L115.665 336.624H116.16L117.042 336.041L117.857 334.966L119.084 332.872L119.876 332.197L123.148 331.127L124.507 329.988L124.98 329.818L125.332 329.766L125.606 329.687L125.862 329.699L127.096 330.758L127.385 330.908L128.286 330.77L128.89 330.072L129.355 329.306L130.879 328.196L131.063 327.954L131.191 327.692L131.495 327.486L134.384 326.209L136.58 325.852L136.955 325.737L137.548 325.273L138.032 325.217H138.197L138.22 325.003L138.1 324.701L138.073 324.586L138.025 324.511L137.833 324.329L137.274 323.976L136.873 324.079L136.084 324.765L136.069 324.281L136.144 323.829L136.295 323.404L136.486 323.024L136.156 322.572L135.293 321.715L135.12 321.16L135.21 320.823L135.604 320.39L135.698 320.168L135.642 319.771L135.476 319.557L135.233 319.537L134.925 319.732L134.966 318.883L134.947 318.431L134.835 318.122L133.915 317.297L133.769 317.031L132.425 316.924L132.091 317.003L131.81 317.122L131.585 317.305L131.423 317.578L131.299 316.983L131.618 316.642L131.994 316.341L132.02 315.837L131.648 315.603L130.842 316.23L130.691 315.936L130.643 315.27L130.511 314.766L130.297 314.358L130.005 313.965L129.487 313.525L128.999 313.303L128.624 313.001L128.391 312.335L127.959 312.704L127.757 312.39L127.685 311.566L127.243 311.399L126.653 311.55L125.666 312.097L125.801 311.708L126.916 310.701L127.055 310.269L127.021 309.737L126.905 309.273L126.819 309.059L126.53 308.908L125.925 308.789L125.558 308.516L125.325 308.198L125.126 307.782L124.976 307.314L124.874 306.846L125.344 307.167L125.719 307.238L126.087 307.096L126.522 306.755L126.657 306.413L125.993 305.922L126.143 305.454L126.721 304.775L126.849 304.446L127.149 303.379L127.336 302.931L127.55 302.546L127.783 302.289V302.09L125.734 300.889L125.299 300.353L125.325 300.127L125.329 299.945L125.299 299.707L125.539 300.206L125.858 300.222L126.256 300.028L126.725 299.901L127.607 300.456L128.155 300.627L128.391 300.246L128.444 300.028L128.672 299.73L128.747 299.465L128.729 299.187L128.59 298.719L128.5 298.239L128.252 297.775L128.166 297.537L128.128 297.228L128.166 296.534L128.102 296.276L127.989 296.022L127.937 295.748L128.072 295.447L128.218 295.261L128.308 295.114L128.361 294.943L128.391 294.682L128.368 294.273L128.185 293.25L128.166 292.734L128.387 291.83L128.282 291.576L127.783 291.413L127.494 291.536L127.156 291.762H126.89L126.819 291.219L127.55 291.314L128.185 290.747L128.616 289.875L128.747 289.034L128.635 288.752L127.974 287.951L127.723 287.443L127.547 287.189L127.291 287.086L126.788 286.979L126.503 286.868L126.331 286.749L124.833 284.425L124.589 283.941L124.394 282.962L124.128 282.593L123.726 282.383L123.231 282.311L122.754 282.438L122.217 282.946L121.775 282.977V282.739L122.124 282.545L122.42 281.665L122.852 281.462L123.272 281.526L123.767 281.684L124.218 281.891L124.492 282.093L124.657 282.545L124.762 283.124L124.95 283.612L125.374 283.822L125.61 284.1L126.725 285.885L127.044 286.123L128.391 286.654L129.584 287.784L129.821 287.951L130.031 288.137L130.155 288.578L130.305 289.486L130.508 289.966L130.748 290.196L131.637 290.569L133.176 289.486L133.945 288.51L134.264 288.272L134.523 288.601L135.375 287.907L136.914 286.214L137.623 286.008L138.599 285.551L141.301 282.545L144.611 279.717L147.482 276.457L148.934 274.399L149.092 274.105L149.171 273.792L149.276 273.542L149.52 273.435L149.846 273.375L150.053 273.221L151.31 271.678L151.546 271.242H150.968L152.346 269.762L153.093 269.124L153.873 268.656V268.441L153.468 268.501L153.307 268.545L153.104 268.656L153.704 267.466L154.095 267.049L154.451 267.145L154.74 266.875L155.175 266.185L155.431 265.871L159.495 262.909L159.668 262.409L159.476 262.385L159.221 262.54L159.011 262.599L158.917 262.29L158.985 261.981L159.154 261.739L159.394 261.58L159.668 261.509L160.028 261.679L160.287 262.052L160.625 262.322L161.229 262.171L161.563 261.798L161.732 261.259L161.848 260.692L162.013 260.236L162.359 259.898L162.636 259.922L162.749 260.263L162.576 260.906L163.503 260.775L164.096 260.299L165.447 258.161L166.295 257.154L166.457 257.039L166.727 256.991L166.986 257.098V257.237H166.993L167.031 257.205L167.432 257.106L167.819 256.864L168.149 256.527L168.648 255.722L168.603 255.532L168.1 254.949L167.609 254.175L166.915 254.457L166.397 254.322L166.288 254.009L166.817 253.747L166.611 253.16L166.475 252.129L166.588 251.153L167.125 250.721L167.624 250.641L167.691 250.419L167.549 250.082L167.414 249.646L167.451 248.198L167.32 247.841L167.136 247.468L166.746 246.271L166.731 246.017L166.539 245.854L166.404 245.473L166.243 244.708L165.995 243.982L165.714 243.395L165.305 242.88L164.7 242.566L164.4 242.253L164.017 241.71L163.721 241.491L162.509 241.015L160.782 240.091L160.212 239.473L160.287 238.668L160.103 238.437L159.675 237.597L159.469 237.319L158.729 236.522L159.03 235.887L158.471 235.384L157.067 234.693L156.039 233.765L155.464 233.424L154.575 233.198L153.903 232.778L153.494 232.651L153.224 232.687L152.507 232.885H152.147L151.764 232.714L150.897 231.806L150.541 231.58L150.184 231.413L149.869 231.199L149.636 230.83L149.298 229.982L149.062 229.625L148.717 229.296L147.685 228.693L147.448 228.352L147.306 227.84L147.129 226.718L146.964 226.206L146.81 226.166L146.683 225.924L146.195 225.472L146.03 225.171L145.654 224.941L144.716 223.695L144.405 223.414L144.052 223.176Z" fill="#FF9F1C" fill-opacity="0.57"/>
<path id="GZ" d="M63.0036 336.758L61.9153 336.013L60.9095 337.214L59.5434 338.825L58.0685 340.566L56.5861 342.307L55.1075 344.048L53.6288 345.789L52.1502 347.534L50.6715 349.283L49.1929 351.029L47.7143 352.774L46.2319 354.519L44.7532 356.268L43.2746 358.017L41.7997 359.766L40.321 361.515L38.8424 363.264L37.36 365.017L35.8813 366.766L34.4139 368.499L32.5788 369.884L30.327 371.569L30.0493 372.148L31.299 376.265L32.7552 381.068L34.2038 385.871L35.3672 389.718L37.3074 396.136L37.4801 397.115L36.8871 404.528L37.0597 405.869L37.5889 407.023L40.2948 410.128L40.8539 411.306L41.9423 415.376L43.0869 418.235L43.481 418.917L44.0139 419.453L45.8378 420.877L46.1681 421.293L46.3219 421.813L46.3407 422.348L46.5246 427.524L46.7047 428.908L48.311 432.601L48.7538 432.303L52.2815 430.471L52.4917 430.459L52.7056 430.471L52.9646 430.522L53.6401 430.744L55.2876 431.014L55.6404 431.24L55.7642 431.335L56.2746 431.522L57.1866 431.692L57.4268 431.76L58.1136 432.137L61.4236 432.644L61.8702 432.835L62.1217 433.009L62.3506 433.219L63.8743 435.036L64.0319 435.155L64.8763 435.504L65.6644 436.031L66.0885 436.226L66.37 436.297L66.6252 436.317L66.8203 436.293L67.0005 436.245L67.6797 435.984L68.2464 435.857L68.4753 435.873L68.6517 435.928L68.7868 436.004L68.9107 436.099L69.2522 436.301L69.9577 436.551L70.1229 436.638L70.2918 436.797L70.3893 436.951L70.4456 437.114L70.4606 437.257L70.4344 437.757L70.5732 440.997L70.622 441.183L70.6858 441.346L70.7646 441.497L71.8455 442.857L73.5868 445.689L73.7294 446.01L73.8345 446.371L73.9658 447.184L74.0972 447.398L74.3111 447.636L74.7502 448.021L75.1293 448.279L76.5704 448.913L76.8106 449.151L76.8593 449.544L76.3902 451.353L76.3452 451.848L76.3677 452.348L76.6379 452.899L76.7242 453.217L76.7355 453.443L76.6567 453.578L76.5591 453.708L76.4653 453.815L76.3902 453.95L76.3489 454.093L76.5403 457.556L76.6079 457.897L76.743 458.028L76.9081 458.087L77.5349 458.154L77.8126 458.23L78.2292 458.432L78.4281 458.599L78.5444 458.789L78.5707 458.979L78.5219 459.328L78.4919 459.471L78.5069 459.598L78.5519 459.745L78.5969 460.046L78.5857 460.621L78.732 461.625L78.7095 461.807L78.5932 462.236L78.5744 462.347L78.5707 462.501L78.6157 462.807L78.7095 463.096L78.8296 463.14L80.8337 463.378L81.3103 463.548L81.7081 463.775L81.907 463.945L82.0421 464.112L82.2823 464.56L82.4136 464.893L82.4624 465.075L82.5412 465.686L82.5375 465.888L82.4211 466.638L82.2973 467.166L82.2748 467.348L82.3236 468.816L82.9165 468.375L84.3652 467.697L85.0107 467.257L85.4235 466.527L85.0107 466.686L84.8455 466.801L84.6541 466.115L85.172 465.9L85.8663 465.821L86.2116 465.547L86.4593 465.238L87.6039 464.635L87.9792 464.504L87.7428 464.925L87.345 465.317L86.8796 465.654L86.418 465.873V466.099L87.5589 465.777L91.7096 463.342L95.1097 462.069L99.1704 459.781L104.946 457.516L111.225 455.037L112.797 454.767L115.931 453.367L116.666 453.137L120.356 451.464L119.489 449.853L118.64 449.492L116.434 449.413L115.942 449.282L115.687 448.957L115.522 448.6L115.409 448.14L115.357 447.676L115.252 447.188L115.207 446.819L115.45 446.546L115.803 446.292L119.823 444.067L119.969 443.892L119.864 443.662L117.736 441.362L117.473 440.878L117.608 440.477L117.834 440.156L118.686 439.244L118.888 438.903L118.884 438.72L118.798 438.593L118.655 438.526L118.502 438.486L118.336 438.51L117.605 438.887L117.447 438.946L117.267 438.978L116.7 439.006L116.524 439.049L116.126 439.307L115.961 439.351L115.597 439.359L115.405 439.383L115.24 439.442L114.865 439.732L114.719 439.811L114.561 439.863L114.235 439.918L114.178 439.934L114.122 439.958L113.886 440.105L113.762 440.208L113.473 440.37L113.139 440.489L111.945 440.747L110.782 441.171L110.579 441.092L110.373 440.818L106.909 434.429L106.789 433.909L106.725 433.41L106.594 426.378L106.519 426.322L106.241 426.378L106.083 426.358L105.941 426.298L105.659 426.152L105.505 426.092L105.344 426.052L105.153 426.084L104.961 426.167L104.766 426.382L104.698 426.397L104.668 426.314L104.672 426.013L104.657 425.771L104.443 424.811L104.432 424.617L104.451 424.422L104.545 424.093L104.747 423.609L104.785 423.546L104.815 423.502L104.856 423.371L104.894 423.173L104.856 422.836L104.931 422.229L104.74 420.004L104.758 419.818L104.803 419.659L104.849 419.429L104.864 419.127L104.743 418.521L104.713 418.199L104.74 417.961L104.845 417.597L104.826 417.081L104.901 416.514L104.927 415.697L104.984 415.534L105.314 415.007L105.344 414.852L105.366 414.475L105.441 414.336L105.64 414.087L105.715 413.928L105.73 413.69L105.663 413.464L105.239 412.615L105.115 412.456L104.98 412.397L104.826 412.413L104.68 412.472L104.402 412.639L104.241 412.702L104.079 412.73L103.888 412.659L103.82 412.516L103.809 412.341L103.862 412.179L103.937 412.044L104.413 411.631L104.507 411.516L104.597 411.382L104.725 411.084L104.773 410.918L104.849 410.779L104.976 410.687L105.119 410.608L105.254 410.497L105.355 410.362L105.389 410.132L105.303 409.95L105.134 409.696L105.062 409.506L105.074 409.335L105.141 409.2L105.246 409.073L105.348 408.927L105.419 408.72L105.363 408.478L104.984 407.685L104.803 407.463L104.605 407.356L104.229 407.364L104.072 407.344L103.918 407.289L103.877 407.261L103.828 407.201L103.704 407.011L103.621 406.741L103.535 406.293L103.445 406.055L103.321 405.877L103.032 405.603L102.961 405.432L102.946 405.25L102.95 405.063L102.908 404.798L102.601 404.235L102.522 403.993L102.48 403.767L102.473 403.568L102.492 403.382L102.552 403.235L102.661 403.144L102.811 403.112L103.133 403.104L103.948 402.831L104.083 402.731L104.166 402.589L104.196 402.382L104.132 402.248L104.03 402.129L103.73 401.942L103.554 401.795L103.314 401.51L103.212 401.292L103.156 401.058V400.161L103.111 399.745L103.002 399.463L102.627 398.781L102.537 398.496L102.499 398.226V397.718L102.45 397.528L102.387 397.361L102.195 397.103L102.094 396.984L102.004 396.858L101.366 395.608L101.189 395.331L101.021 395.108L100.867 394.978L100.536 394.589L100.394 394.478L100.244 394.422L100.037 394.323L99.8196 394.161L99.5194 393.736L99.1816 393.343L98.9415 393.153L98.8364 393.042L98.5549 392.657L98.4386 392.558L98.2884 392.455L98.1346 392.32L97.9507 392.098L97.9057 391.9L97.9169 391.321L97.8456 390.734L97.658 390.095L96.6634 388.608L96.2131 387.727L95.8378 387.224L95.6201 387.006L94.9896 386.569L94.8733 386.466L94.6894 386.212L94.528 385.927L94.3366 385.677L94.1115 385.467L93.5973 385.13L92.9293 384.507L92.6891 384.356L92.4977 384.265L91.6608 383.642L91.1317 383.083L90.6138 382.29L90.3773 381.838L90.0358 381.31L89.8444 381.072L89.7356 380.965L89.3603 380.695L89.1989 380.549L89.0188 380.35L87.33 377.53L87.0372 376.757L86.9584 376.349L86.9397 376.138L86.9359 375.932L87.2061 374.1L87.5063 373.12L87.5326 372.942L87.5889 371.732L87.6264 371.561L87.6977 371.419L87.7991 371.308L88.0505 371.125L88.8649 370.832L89.0075 370.748L89.1126 370.637L89.1576 370.471L89.1764 370.28L89.1126 369.662L88.8011 368.361L88.7748 367.948L88.8124 367.365L88.7786 366.762L88.6435 365.981L88.636 365.775L89.0751 363.692L89.1651 362.891L89.1501 362.638L89.0976 362.277L88.2006 360.809L88.0843 360.317L88.0393 359.837L88.043 359.036L88.0055 358.866L87.9529 358.771L86.0239 357.148L83.1455 353.289L83.0254 353.067L82.9728 352.841L82.9766 352.448L83.0441 352.095L83.1455 351.762L83.1605 351.505L83.1154 351.136L82.7326 349.462L82.7214 349.256L82.7289 349.057L82.7514 348.871L82.7889 348.696L82.8415 348.538L82.9878 348.26L83.0742 348.133L83.2918 347.717L83.8773 347.003L84.3164 346.582L84.5153 346.352L84.6992 346.103L85.1458 345.274L85.9827 344.179L86.1215 343.893L86.2491 343.564L86.4142 342.874L85.3972 342.43L84.7555 342.311L84.2451 342.406L82.5412 343.203L82.0233 343.564L81.4604 344.112L81.0101 344.726L80.8262 345.274L80.5747 345.813L80.0343 345.639L79.4939 345.198L79.265 344.956L78.6157 344.905L78.1916 344.929L77.9702 344.659L77.8989 343.723L77.7113 343.239L77.2647 342.803L76.7505 342.474L76.3602 342.311L75.9361 342.299L74.3186 342.529L73.7782 342.474L73.3053 342.327L72.8813 342.121L69.7025 339.515L68.6029 339.011L68.0363 338.928L66.2123 339.011L65.7695 338.809L64.182 337.742L62.9661 336.608L63.0036 336.758Z" fill="#FF9F1C" fill-opacity="0.57"/>
<path id="NP" d="M273.35 182.197L273.504 181.761L273.452 181.214L273.684 180.31L274.435 179.485L274.566 178.854L274.488 178.144L273.527 178.037L272.153 178.366L271.35 178.779L271.039 179.326L270.937 180.532L271.35 181.599L272.026 182.201L272.649 182.419L273.35 182.197ZM282.053 91.8999L281.667 91.6421L281.393 91.3645L281.04 91.1344L280.001 90.9599L279.843 90.829L279.7 90.8013L279.34 91.0392L278.653 91.8523L278.379 92.0863L277.19 92.5027L276.668 92.7685L276.285 93.5895L275.895 93.9187L275.084 94.3906L274.326 95.1482L272.735 97.2304L271.812 97.7619H271.466L270.57 97.5517H269.395L268.794 97.7341L267.173 99.0191L266.629 99.2294L266.104 99.3563L264.948 99.4356L264.666 99.5189L264.449 99.7053L264.261 99.9155L264.073 100.066L263.784 100.153L262.899 100.296L262.459 100.479L261.953 100.76L261.533 101.093L261.356 101.438L261.146 101.998L260.639 102.529L260.009 102.962L259.431 103.231L258.361 103.441L258.106 103.537L257.821 103.969L257.592 104.068L257.014 104.187L256.384 104.477L255.385 105.135L254.402 106.008L253.734 106.313L252.698 105.853L251.97 105.809L250.728 105.956L250.109 106.218L249.561 106.65L249.163 107.237L249.013 107.967L248.735 108.121L247.05 108.51L245.842 109.422L244.952 109.74L243.391 111.009L242.862 111.191L240.967 111.449L240.55 111.584L239.608 112.163L238.944 112.27L235.401 112.373L234.305 112.06L233.239 111.608L232.38 111.465L231.517 111.639L230.646 112.06L229.543 112.401L227.096 112.702L225.989 113.317L225.013 114.384L224.443 114.832L219.695 115.784L219.421 115.974L219.241 116.284L218.809 116.669L218.295 116.998L217.864 117.121L216.839 116.577L216.25 115.614L215.597 114.82L214.377 114.808L213.874 115.15L213.139 116.089L212.741 116.28L210.523 116.07L209.968 116.125L209.352 116.371L209.011 116.815L209.273 117.454L209.281 118.013L208.812 118.779L208.166 119.485L207.637 119.869H205.412L204.987 120.111L203.888 121.317L202.882 122.792L202.075 123.748L201.092 124.621L198.21 126.314L197.662 126.425L197.493 126.354L196.949 126.049L196.603 125.985L196.258 126.033L196.097 126.128L195.999 126.267L194.16 127.889L193.62 128.107L193.278 128.174L193.027 128.337L192.558 128.738L192.265 128.872L191.665 129.035L191.387 129.162L191.038 129.463L190.201 130.431L190.036 130.74L189.859 130.943L188.347 131.593L187.596 132.652L187.154 133.588L187.037 133.909L186.775 134.508L185.521 135.893L185.311 136.281L185.243 136.503L184.864 137.114L183.397 138.661L197.508 138.891L197.703 139.105L198.176 139.478L198.596 139.886L198.975 140.335L199.144 140.581L199.208 140.719L199.261 140.874L199.332 141.207L199.396 141.346L199.482 141.469L199.673 141.691L199.816 141.961L200.383 143.634L200.514 143.809L200.728 143.983L201.659 144.463L201.752 144.578L201.888 144.888L201.981 145.054L202.147 145.253L202.304 145.292L202.439 145.257L203.077 144.884L203.224 144.832L203.719 144.741L203.865 144.693L204.008 144.63L204.132 144.555L204.244 144.455L204.417 144.217L204.965 143.254L205.16 143.028L205.558 142.71L205.697 142.651L205.892 142.603L206.252 142.583L206.47 142.655L206.935 142.917L207.108 143.032L207.224 143.162L207.532 143.674L207.596 143.817L207.742 143.964L207.956 144.118L208.425 144.301L208.665 144.436L208.804 144.582L208.913 144.983L209.101 145.209L209.307 145.292L209.641 145.32L209.84 145.372L209.99 145.455L210.275 145.752L210.587 145.943L210.823 146.018L211.037 146.034L211.199 146.006L211.491 145.903L212.249 145.443L212.354 145.344L212.636 144.991L212.76 144.896L212.929 144.844L213.356 144.816L213.529 144.785L213.672 144.733L213.927 144.582L214.16 144.4L214.332 144.329L214.561 144.281L214.959 144.273L215.177 144.329L215.334 144.424L215.428 144.535L215.826 145.169L216.01 145.403L216.126 145.53L216.291 145.649L216.539 145.796L216.742 145.84L216.903 145.816L217.226 145.673L218.243 145.693L218.434 145.772L218.569 145.867L218.719 146.109L218.817 146.22L219.14 146.522L219.233 146.637L219.305 146.772L219.369 146.914L219.601 147.121L219.988 147.355L221.391 147.95L221.684 148.14L222.078 148.485L222.393 148.556L222.757 148.711L223.08 148.953L223.564 149.243L223.681 149.381L223.718 149.528L223.699 149.695L223.662 149.853L223.673 150.024L223.767 150.183L224.176 150.456L224.3 150.575L224.375 150.706L224.634 151.269L224.784 151.527L225.159 151.991L225.572 152.273L226.026 152.519L226.308 152.618L227.809 152.856L227.985 152.848L228.323 152.796L228.965 152.614L229.179 152.582L229.325 152.634L230.169 153.102L230.278 153.181L230.477 153.367L230.815 153.629L230.999 153.839L231.093 153.978L231.126 154.022L231.385 154.204L231.652 154.351L231.794 154.486L231.896 154.629L231.982 154.95L232.053 155.109L232.151 155.255L232.658 155.573L233.078 155.894L233.359 156.005L234.065 156.148L234.26 156.219L234.5 156.402L234.609 156.501L234.797 156.727L234.868 156.866L235.026 157.326L235.116 157.841L235.168 157.996L235.386 158.202L235.754 158.436L237.049 159.055L238.433 159.412L238.711 159.547L238.891 159.697L238.944 159.848L239.056 160.344L239.184 160.629L239.278 160.744L239.387 160.848L239.754 161.121L239.848 161.236L239.938 161.355L241.436 162.418L241.642 162.601L241.781 162.866L241.961 163.307L242.535 164.183L242.603 164.326L242.652 164.477L242.794 165.151L242.858 165.345L242.963 165.555L243.192 165.833L243.301 166.027L243.35 166.214L243.331 166.368L243.357 166.559L243.444 166.785L243.931 167.348L244.063 167.527L244.123 167.669L244.157 167.84L244.16 168.022L244.149 168.221L244.078 168.582L244.074 168.772L244.097 168.939L244.16 169.097L244.325 169.375L244.9 170.132L245.5 171.187L246.048 172.702L246.089 172.861L246.116 173.04L246.093 173.408L246.048 173.579L245.995 173.738L245.703 174.305L245.665 174.471L245.646 174.658L245.669 175.023L245.658 175.221L245.601 175.598L245.598 175.788L245.639 175.951L245.999 177.029L246.266 177.585L246.36 177.906L246.502 178.18L246.851 178.644L247.166 179.155L247.302 179.437L247.515 180.048L247.831 180.54L247.872 180.627L248.007 181.027L248.172 181.884L248.225 182.035L248.296 182.174L248.638 182.665L248.784 182.931L248.893 183.233L249.062 183.891L249.152 184.553L249.155 184.641L249.197 184.863L249.23 185.283L249.212 185.672L249.193 185.85L249.133 186.005L249.047 186.128L248.912 186.219L248.735 186.287L248.292 186.366L247.996 186.461L247.699 186.62L247.598 186.707L247.5 186.826L247.422 186.957L247.362 187.111L247.324 187.294L247.279 188.325L247.309 188.694L247.362 188.912L247.444 189.138L247.621 189.455L247.759 189.602L247.876 189.693L248.664 190.066L248.866 190.217L249.013 190.356L249.167 190.622L249.459 191.359L249.692 191.752L249.951 192.319L249.97 192.49L250.049 192.751L250.18 193.049L250.901 193.993L251.084 194.453L251.171 194.608L251.4 194.929L251.475 195.083L251.494 195.262L251.501 195.452L251.437 196.23L251.467 196.535L251.509 196.575L251.512 196.452L252.026 196.725L252.42 196.452L253.156 195.302L253.633 194.869L257.915 191.97L262.891 189.229L263.604 188.452L263.874 188.25L265.011 187.861L265.852 187.127L267.004 186.437L267.567 186.001L268.04 185.469L268.175 185.228L268.198 184.978L268.168 184.783L268.13 184.728L268.434 184.355L268.719 184.165L269.477 183.875L269.327 183.728L269.061 183.383L268.915 183.24L269.215 183.264L269.504 183.24L269.785 183.165L270.052 183.026L270.085 183.248L270.228 183.657L270.262 183.875L270.735 183.685L272.014 182.82L271.482 182.531L271.02 182.102L270.66 181.551L270.453 180.908L270.431 180.54L270.472 179.774L270.453 179.405L270.138 179.362L269.943 179.251L269.898 178.981L269.965 178.846L270.813 178.073L272.559 177.073L273.08 176.914L274.885 176.879L275.861 176.379L276.623 175.217L277.794 172.829L278.702 171.941L279.032 171.461L279.16 170.692L279.329 170.105L279.655 169.601L279.881 169.058L279.719 168.344L278.717 169.411L278.109 169.771L277.794 169.422L277.91 169.141L278.229 168.935L278.593 168.812L278.856 168.768L279.175 168.613L279.291 168.268L279.351 167.876L279.528 167.602L280.721 166.86L286.335 160.633L288.092 157.544L288.512 157L289.642 156.124L290.07 155.581L290.156 154.771L290.869 154.966L291.124 154.942L291.503 154.771L291.927 154.478L292.25 154.141L292.49 153.744L292.678 153.296L292.333 153.324L292.235 153.003L292.336 152.535L292.573 152.122L292.674 151.892L292.629 151.392L292.678 151.158L292.821 150.964L293.361 150.428L293.522 150.222L293.669 149.96L293.755 149.699L293.706 149.211L293.834 149.009L294.892 147.779L294.96 147.39L294.603 146.922L295.192 146.593L295.309 145.733L295.099 144.745L294.708 144.063L294.006 143.619L293.278 143.515L292.708 143.876L292.468 144.812L292.047 144.511L291.548 144.325L290.543 144.158L290.741 143.698L290.974 142.579L291.12 142.262L291.515 142.147L292.085 142.187L292.655 142.326L293.064 142.492L293.631 141.564L294.408 141.243L295.286 141.12L296.164 140.787L295.11 139.264L294.753 138.375L295.005 137.816L296.566 138.256L296.934 138.177L297.204 138.058L297.493 138.09L297.913 138.467L297.924 137.991L297.718 137.312L297.418 136.622L297.125 136.13L296.795 136.206H295.455L295.005 136.13L294.521 135.71L294.363 135.187L294.329 134.604L294.22 134.024L294.543 134.373L294.858 135.309L295.095 135.496L295.59 135.452L296.101 135.302L296.566 135.044L296.934 134.655L297.947 133.541L298.086 133.275L298.296 133.041L299.647 132.438L299.778 132.311L299.846 132.144V131.97L299.745 131.792L299.568 131.565L299.557 131.415L299.61 131.244L300 129.436L299.936 128.948L299.876 128.738V128.313L299.842 128.111L299.696 127.857L299.519 127.683L299.354 127.56L299.261 127.456L299.02 126.929L298.968 126.6L299.557 124.839L299.598 124.311L299.456 123.883L299.103 123.649L298.821 123.804L298.566 124.109L298.281 124.327L297.849 124.343L297.545 124.196L297.519 123.927L297.894 123.578L298.322 123.407L299.185 123.197L299.549 122.939L299.846 122.027L299.448 121.095L298.686 120.373L297.894 120.079L297.542 120.155L295.842 121.027L295.62 121.265L294.847 123.855L294.431 124.569L293.834 125.164L293.815 124.68L294.029 123.252L293.958 123.268L293.826 123.169L293.699 123.003L293.642 122.832L294.22 122.201L293.868 121.924L293.841 121.575L294.1 121.38L294.603 121.555L294.029 118.192L294.461 118.303L295.001 118.905L295.391 119.028L295.692 118.894L296.356 118.326L296.742 118.192L296.671 117.692L296.679 117.089L296.814 116.51L297.125 116.07L296.652 115.776L296.506 115.431L296.566 114.495L296.412 114.035L296.067 113.603L295.722 113.349L294.337 113.968L293.635 114.543L293.642 115.439L293.35 115.677L293.057 115.828L292.764 115.836L292.468 115.649L292.64 115.562L293.064 115.229L292.727 114.959L292.776 114.646L292.862 114.336L292.667 114.075L292.415 114.091L292.1 114.681L291.713 114.812L291.879 113.944L291.466 113.313L291.274 112.794L292.1 112.27L292.911 112.139L293.278 112L293.556 111.647L293.616 111.223L293.47 110.858L293.196 110.569L292.869 110.362L293.973 109.914L294.295 109.541L294.431 108.72L294.378 108.086L294.093 106.741L294.029 105.976L293.961 105.726L293.808 105.436L293.62 105.179L293.181 104.73L293.125 104.393L293.106 104.056L292.738 103.231L292.299 99.5863L292.16 99.031L291.387 97.2661L291.297 96.576L291.608 95.9731L292.535 95.0609L292.903 94.5929L292.869 94.3906L292.288 94.1884L291.852 93.7085L291.439 93.1492L290.948 92.7169L290.329 93.0223L289.559 93.0065L288.899 92.6614L288.621 91.9951L288.43 91.3169L287.938 91.0472L286.606 91.0392L285.536 91.2613L283.202 92.0228L282.053 91.8999Z" fill="#FF9F1C" fill-opacity="0.57"/>
<path id="NS" d="M224.364 24.7369L224.03 24.6378L223.474 24.2094L223.2 24.1103L223.11 24.0508L222.96 23.7692L222.911 23.6938L222.739 23.6978L222.596 23.7692L222.51 23.8604V23.908L222.288 23.9001L221.654 23.8882L220.04 24.1777L219.774 24.4791L219.522 24.5466L218.374 24.6219L217.909 24.7409L216.137 25.8118L215.942 26.0735L215.871 26.5217L215.436 27.894L215.173 28.2668L215.21 28.8102L214.535 30.0913L214.388 30.7734L214.501 31.178L214.67 31.5548L214.723 31.9276L214.49 32.3321L214.137 32.6653L213.552 33.1055L211.499 34.0653L210.245 35.1322L209.72 35.4495L209.116 35.5646L208.219 35.5725L207.607 35.6994L206.586 36.2705L205.997 36.4054L205.655 36.568L205.438 36.9448L205.276 37.3652L205.119 37.6706L204.886 37.8848L204.695 37.9918L204.158 38.087H203.513L202.116 37.6706L201.888 37.5476L201.385 36.9844L201.058 36.8179L200.795 36.8377L200.574 36.9527L200.353 37.1034L200.079 37.2343L199.069 37.3493L197.838 37.2105L195.44 36.6315L194.449 36.1238L193.462 35.2433L192.697 34.224L192.359 33.288L191.916 33.5616L191.665 33.7639L191.398 33.8869L188.79 34.1367L188.373 34.0495L187.672 33.5696L187.116 33.526L186.846 33.3792L186.369 33.5497L185.093 35.156L184.309 36.3776L184.054 36.6315L183.731 36.8139L182.691 37.2343L182.417 37.4723L182.264 37.6706L182.057 37.8094L181.307 37.8967L180.886 38.0513L179.115 38.3528L178.627 38.2933L177.921 37.9205L177.764 37.857L177.584 37.6983L177.415 36.9844L177.193 36.8179H173.898L173.763 36.8853L173.621 37.0281L173.425 37.1669L172.536 37.3097L171.512 37.623L171.099 37.6706L170.806 37.5794L170.367 37.2978L170.029 37.2343L168.866 37.4445L168.543 37.2065L168.288 36.6552L168.205 36.0286L168.385 35.5725L168.198 34.9657L168.13 34.2756L167.973 33.7084L167.518 33.4744L167.263 33.4109L167.072 33.2563L166.888 33.05L166.651 32.8517L166.378 32.7288L165.755 32.5582L165.477 32.4392L164.449 31.765L163.859 31.4834L163.454 31.5111L162.91 31.6817L162.381 31.3882L162.129 30.8131L162.396 30.1309L161.908 29.5082L161.533 29.3099L160.47 29.3218L160.29 29.2663L159.491 28.9054L158.335 28.6793L157.964 28.949L157.082 30.1309L156.582 30.5474L155.164 30.821L154.646 31.1463L154.864 31.8165L154.526 32.0505L154.211 32.4551L153.974 32.8795L153.779 33.5022L153.494 33.6965L151.974 34.1209L151.94 34.1169L151.28 34.5135L150.814 34.3866L150.36 34.1962L150.052 34.22L150.015 34.7436L149.696 34.6325L149.568 34.462L149.493 34.2518L149.343 34.0217L149.092 33.8194L148.96 33.8036L148.851 33.871L148.668 33.9265L148.66 33.9583L148.285 34.1169L148.161 34.1288L147.467 34.0931L147.204 34.0019L147.02 33.8075L146.971 33.641L145.793 33.6767L134.024 33.5497L125.182 33.4427L124.21 33.6965L123.94 34.0852V34.6404L124.131 35.9612L124.075 37.1907L123.861 38.3924L122.716 41.3869L120.566 44.8335L117.533 49.7039L116.933 51.2467L116.798 52.619L116.843 52.7896L117.541 55.4191L119.2 61.642L120.761 67.5199L121.129 70.9427L121.59 75.2301L121.981 78.8948L122.307 81.9488L122.123 84.5426L122.195 87.0532L123.122 89.2782L123.155 89.3377L123.253 89.4369L123.729 89.9445L124.06 90.4244L124.634 91.5072L124.765 91.8483L124.799 92.0307L124.882 92.1577L125.186 92.3242L125.64 92.4194L129.25 92.356L130.215 92.5146L131.16 92.8755L131.183 92.8914L132.042 93.4585L134.924 96.2547L137.394 98.6582L139.848 101.772L142.884 105.615L145.463 108.883L147.879 111.949L149.771 115.816L152.214 119.1L155.179 123.078L156.196 124.45L157.22 125.826L158.594 127.306L158.924 127.754L159.086 128.277L159.375 134.73L159.562 135.004L159.926 135.064L160.534 135.044L159.476 137.705L158.699 139.656L157.333 143.067L157.145 143.841L157.153 144.562L157.269 145.062L157.93 147.95L158.733 151.424L158.654 152.697H159.375L168.794 152.614L169.046 152.649L169.226 152.713L169.354 152.796L169.676 153.121L169.804 153.209L169.954 153.268L170.127 153.308L170.281 153.367L170.427 153.435L170.671 153.609L170.949 153.76L171.106 153.812L171.32 153.74L171.56 153.546L171.906 152.979L172.059 152.661L172.146 152.38L172.187 151.761L172.157 151.392L172.119 151.222L172.108 151.051L172.116 150.881L172.165 150.726L172.228 150.583L172.833 149.742L173.617 148.12L173.714 147.981L173.831 147.866L174.041 147.807L174.214 147.819L174.713 147.95L174.882 147.954L175.047 147.934L175.189 147.878L175.662 147.585L175.842 147.537L176.191 147.482L176.319 147.41L177.325 146.653L177.527 146.565L177.678 146.538L178.034 146.514L178.195 146.482L178.338 146.419L179.235 145.844L180.8 143.983L181.183 143.65L181.307 143.452L181.445 143.039L181.573 142.809L181.768 142.647L181.971 142.512L182.166 142.306L183.318 140.414L183.431 139.946L183.397 138.661L184.864 137.114L185.243 136.503L185.311 136.281L185.521 135.892L186.775 134.508L187.037 133.909L187.154 133.588L187.596 132.652L188.347 131.593L189.859 130.943L190.036 130.74L190.201 130.431L191.038 129.463L191.387 129.162L191.665 129.035L192.265 128.872L192.558 128.738L193.027 128.337L193.278 128.174L193.62 128.107L194.16 127.889L195.999 126.267L196.097 126.128L196.258 126.033L196.603 125.985L196.949 126.048L197.493 126.354L197.662 126.425L198.21 126.314L201.092 124.621L202.075 123.748L202.882 122.792L203.888 121.317L204.987 120.111L205.412 119.869H207.637L208.166 119.484L208.812 118.779L209.281 118.013L209.273 117.454L209.011 116.815L209.352 116.371L209.968 116.125L210.523 116.07L212.741 116.28L213.139 116.089L213.874 115.149L214.377 114.808L215.597 114.82L216.25 115.614L216.839 116.577L217.864 117.121L218.295 116.998L218.809 116.669L219.241 116.284L219.421 115.974L219.695 115.784L224.443 114.832L225.013 114.384L225.989 113.317L227.096 112.702L229.543 112.401L230.646 112.06L231.517 111.639L229.824 110.081L229.426 109.529L229.348 109.204L229.224 108.923L227.55 106.297L227.37 105.658L227.235 105.452L226.998 105.175L226.904 104.968L226.874 104.77L226.882 104.588L226.863 104.417L226.814 104.262L226.45 103.422L226.323 103.203L226.165 103.017L225.76 102.616L225.625 102.382L224.739 100.007L224.698 99.8203L224.578 99.4078L224.536 99.2134L224.525 99.0151L224.563 98.6344L224.548 98.3488L224.484 98.0077L224.307 97.4128L224.165 97.0678L223.767 96.3578L223.347 95.7629L223.249 95.5487L223.208 95.3345L223.204 95.1442L223.392 94.0019L223.399 93.7679L223.365 93.4308L223.189 93.0897L223.013 92.5979L222.829 91.8642L222.709 91.65L222.555 91.535L222.401 91.5389L222.255 91.5826L222.119 91.646L221.996 91.7214L221.876 91.8086L221.722 91.8443L221.553 91.8324L221.294 91.65L221.181 91.4755L221.106 91.2454L220.87 89.9326V89.7542L220.9 89.5876L220.937 89.4527L220.986 89.3615L221.046 89.2663L221.508 88.719L222.086 88.2629L222.611 87.7671L222.975 87.5212L223.185 87.3269L223.681 86.7875L223.763 86.6606L223.827 86.5138L223.917 86.1688L223.973 86.0061L224.052 85.8753L224.139 85.7563L224.443 85.4429L224.525 85.316L224.69 84.8361L224.773 84.7092L224.957 84.4752L225.013 84.3285L225.035 84.15L225.013 83.801L225.028 83.6304L225.084 83.4916L225.242 83.2457L225.268 83.091L225.264 82.746L225.291 82.5913L225.347 82.4485L225.628 82.1114L225.692 81.9646L225.715 81.7108L225.677 80.866L225.591 80.6241L225.475 80.517L225.144 80.5011L224.81 80.5447L224.675 80.5923L224.544 80.6598L223.531 81.3697L223.41 81.4054L223.309 81.3856L223.005 81.2904L222.656 81.215L222.341 81.1079L222.202 81.0365L222.078 80.9572L221.876 80.7431L221.707 80.509L221.605 80.402L221.489 80.3068L221.354 80.2314L220.738 80.0133L219.29 79.7198L219.11 79.6325L218.941 79.4382L218.926 79.2795L218.963 79.1249L219.586 78.288L219.736 78.0064L219.785 77.8121L219.815 77.6019L219.826 77.0307L219.898 76.7809L219.935 76.531L219.954 76.1978L219.898 75.1825L219.905 74.889L219.988 74.536L220.01 74.3258L220.022 74.0839L219.984 73.7507V73.5048L220.085 72.7473L220.04 72.1524L220.074 71.847L220.138 71.6328L220.326 71.4067L220.397 71.2679L220.449 71.1053L220.479 70.9189L220.498 70.7245L220.423 69.8123L220.438 69.6338L220.479 69.4673L220.832 68.7573L220.859 68.5551L220.806 67.151L220.723 66.8893L220.585 66.5958L220.524 66.3935L220.506 66.1833L220.795 64.7237L220.892 64.3985L220.979 63.871L220.997 63.3633L220.971 63.0857L220.922 62.8715L220.75 62.5582L220.502 61.9355L220.498 61.7095L220.555 61.5468L220.671 61.4636L221.065 61.2296L221.53 60.8726L221.733 60.6624L221.902 60.4165L222.052 60.1468L222.225 59.9088L223.024 59.064L223.542 58.3382L223.857 58.0447L224.352 57.7433L224.484 57.5688L224.6 57.2991L224.822 55.4112L224.945 54.8837L225.366 53.8168L225.501 53.2734L225.565 53.0751L225.692 52.9839L225.962 52.8491L226.075 52.7578L226.443 52.3652L226.762 51.9131L226.856 51.8139L226.961 51.7266L227.081 51.6513L227.629 51.4054L227.985 51.1833L229.014 50.279L229.104 49.9855L229.175 49.5254L229.246 48.4784L229.325 48.0223L229.423 47.7327L229.535 47.6693L230.113 47.4313L230.237 47.3282L230.346 47.1933L230.601 46.5032L230.717 45.7893L230.781 45.6346L230.868 45.5315L231.213 45.2975L231.584 44.885L231.652 44.7621L231.697 44.6233L231.821 43.7904L231.87 43.6357L231.937 43.5088L232.023 43.1954L232.211 41.6645L232.222 41.1846L232.2 40.8554L232.068 40.5976L231.757 40.1098L231.491 39.7885L231.232 39.265L231.156 39.146L231.014 38.8287L230.845 38.1267L230.834 37.857L231.003 35.6994L231.205 34.8229L231.28 34.1883L231.344 33.871L231.419 33.6449L231.562 33.4149L231.637 33.2444L231.697 33.0143L231.798 32.3718L232.136 31.5032L232.29 30.6664L232.339 30.5196L232.395 30.3808L232.466 30.2539L233.528 28.7348L233.543 28.6793L233.528 28.6714L232.699 28.1597L230.462 27.5608L229.464 27.0175L227.906 25.2803L226.897 24.5347L225.591 24.3165L225.313 24.3998L224.686 24.6775L224.364 24.7369ZM122.682 45.8686L123.692 45.6426L124.514 46.1502L124.9 47.0823L124.634 48.1373L124.052 48.752L123.624 48.7322L123.272 48.3356L122.911 47.7883L122.161 46.884L122.097 46.3763L122.656 45.8845L122.682 45.8686ZM126.248 50.3345L125.685 50.1323L125.324 49.5016L125.313 48.8631L125.497 48.1492L126.019 46.8245L126.394 46.5508L126.998 46.5905L127.64 46.8284L128.087 47.1537L128.319 47.7684L128.229 48.5379L127.918 49.2954L127.475 49.8626L126.886 50.2235L126.248 50.3345Z" fill="#FF9F1C" fill-opacity="0.57"/>
<path id="CD" d="M288.884 0L288.403 0.174511L287.957 1.055L287.06 2.01084L286.047 2.78028L284.219 3.45849L283.149 4.30328L281.483 6.06029L280.954 6.79799L280.624 7.13908L279.836 7.44844L276.308 10.3794L275.771 10.6769L272.863 11.9976L270.037 14.064L269.324 14.3853L264.591 15.4878L262.414 15.6584L261.93 15.8289L261.484 16.0907L255.952 20.7946L255.295 21.1793L254.586 21.4054L253.835 21.3974L253.242 21.1634L252.094 20.4971L251.43 20.3583L250.559 20.7747L249.583 20.977H245.894L244.941 21.207L244.187 21.9091L243.691 22.2739L243.102 22.4326L242.727 22.6825L241.605 23.8207L241.09 24.1103L240.775 24.0984L240.167 23.9437L239.829 23.908L239.522 23.9675L238.951 24.2531L238.111 24.495L237.66 24.9035L237.026 25.7523L234.245 27.7552L233.543 28.6793L233.528 28.7348L232.466 30.2538L232.395 30.3808L232.339 30.5196L232.29 30.6663L232.136 31.5032L231.798 32.3718L231.697 33.0143L231.637 33.2443L231.562 33.4149L231.419 33.6449L231.344 33.871L231.28 34.1883L231.205 34.8229L231.003 35.6994L230.834 37.857L230.845 38.1267L231.014 38.8287L231.157 39.146L231.232 39.265L231.491 39.7885L231.757 40.1097L232.068 40.5976L232.2 40.8554L232.222 41.1846L232.211 41.6645L232.023 43.1954L231.937 43.5087L231.87 43.6357L231.821 43.7903L231.697 44.6232L231.652 44.7621L231.584 44.885L231.213 45.2975L230.868 45.5315L230.781 45.6346L230.717 45.7893L230.601 46.5032L230.346 47.1933L230.237 47.3282L230.113 47.4313L229.535 47.6692L229.423 47.7327L229.325 48.0222L229.246 48.4783L229.175 49.5254L229.104 49.9855L229.014 50.279L227.985 51.1833L227.629 51.4054L227.081 51.6513L226.961 51.7266L226.856 51.8139L226.762 51.913L226.443 52.3652L226.075 52.7578L225.962 52.849L225.692 52.9839L225.565 53.0751L225.501 53.2734L225.366 53.8168L224.945 54.8837L224.822 55.4112L224.6 57.2991L224.484 57.5688L224.352 57.7433L223.857 58.0447L223.542 58.3382L223.024 59.064L222.225 59.9088L222.052 60.1468L221.902 60.4165L221.733 60.6624L221.53 60.8726L221.065 61.2295L220.671 61.4635L220.555 61.5468L220.498 61.7094L220.502 61.9355L220.75 62.5582L220.922 62.8715L220.971 63.0857L220.997 63.3633L220.979 63.871L220.892 64.3985L220.795 64.7237L220.506 66.1833L220.525 66.3935L220.585 66.5958L220.723 66.8892L220.806 67.151L220.859 68.555L220.832 68.7573L220.479 69.4672L220.438 69.6338L220.423 69.8123L220.498 70.7245L220.479 70.9189L220.449 71.1053L220.397 71.2679L220.326 71.4067L220.138 71.6328L220.074 71.8469L220.04 72.1523L220.085 72.7473L219.984 73.5048V73.7507L220.022 74.0839L220.01 74.3258L219.988 74.536L219.905 74.889L219.898 75.1825L219.954 76.1978L219.935 76.531L219.898 76.7808L219.826 77.0307L219.815 77.6018L219.785 77.812L219.736 78.0064L219.586 78.288L218.963 79.1248L218.926 79.2795L218.941 79.4382L219.11 79.6325L219.29 79.7198L220.738 80.0133L221.354 80.2314L221.489 80.3068L221.605 80.4019L221.707 80.509L221.876 80.743L222.078 80.9572L222.202 81.0365L222.341 81.1079L222.656 81.215L223.005 81.2904L223.309 81.3855L223.411 81.4054L223.531 81.3697L224.544 80.6597L224.675 80.5923L224.81 80.5447L225.144 80.5011L225.475 80.517L225.591 80.624L225.677 80.866L225.715 81.7108L225.692 81.9646L225.628 82.1114L225.347 82.4485L225.291 82.5913L225.264 82.7459L225.268 83.091L225.242 83.2457L225.084 83.4916L225.028 83.6304L225.013 83.8009L225.036 84.15L225.013 84.3284L224.957 84.4752L224.773 84.7092L224.69 84.8361L224.525 85.316L224.443 85.4429L224.139 85.7563L224.052 85.8752L223.973 86.0061L223.917 86.1687L223.827 86.5138L223.763 86.6605L223.681 86.7875L223.185 87.3269L222.975 87.5212L222.611 87.7671L222.086 88.2629L221.508 88.719L221.046 89.2663L220.986 89.3615L220.937 89.4527L220.9 89.5876L220.87 89.7541V89.9326L221.106 91.2454L221.181 91.4755L221.294 91.65L221.553 91.8324L221.722 91.8443L221.876 91.8086L221.996 91.7214L222.12 91.646L222.255 91.5825L222.401 91.5389L222.555 91.5349L222.709 91.65L222.829 91.8641L223.013 92.5979L223.189 93.0897L223.365 93.4308L223.399 93.7679L223.392 94.0019L223.204 95.1442L223.208 95.3345L223.249 95.5487L223.347 95.7629L223.767 96.3578L224.165 97.0677L224.307 97.4128L224.484 98.0077L224.548 98.3488L224.563 98.6344L224.525 99.0151L224.536 99.2134L224.578 99.4078L224.698 99.8202L224.739 100.007L225.625 102.382L225.76 102.616L226.165 103.017L226.323 103.203L226.45 103.422L226.814 104.262L226.863 104.417L226.882 104.588L226.874 104.77L226.904 104.968L226.998 105.175L227.235 105.452L227.37 105.658L227.55 106.297L229.224 108.923L229.348 109.204L229.426 109.529L229.824 110.081L231.517 111.639L232.38 111.465L233.239 111.608L234.305 112.06L235.401 112.373L238.944 112.27L239.608 112.163L240.55 111.584L240.967 111.449L242.862 111.191L243.391 111.009L244.952 109.74L245.842 109.422L247.05 108.51L248.735 108.121L249.013 107.967L249.163 107.237L249.561 106.65L250.109 106.218L250.728 105.956L251.97 105.809L252.698 105.853L253.734 106.313L254.402 106.007L255.385 105.135L256.384 104.477L257.014 104.187L257.592 104.068L257.821 103.969L258.106 103.537L258.361 103.441L259.431 103.231L260.009 102.961L260.639 102.529L261.146 101.998L261.356 101.438L261.533 101.093L261.953 100.76L262.46 100.479L262.899 100.296L263.784 100.153L264.073 100.066L264.261 99.9154L264.449 99.7052L264.666 99.5188L264.948 99.4355L266.104 99.3562L266.629 99.2293L267.173 99.0191L268.794 97.7341L269.395 97.5516H270.57L271.466 97.7618H271.812L272.735 97.2303L274.326 95.1481L275.084 94.3906L275.895 93.9186L276.285 93.5894L276.668 92.7684L277.19 92.5027L278.379 92.0862L278.653 91.8522L279.34 91.0392L279.7 90.8012L279.843 90.829L280.001 90.9599L281.04 91.1344L281.393 91.3644L281.667 91.642L282.053 91.8998L283.202 92.0228L285.536 91.2613L286.606 91.0392L287.938 91.0471L288.43 91.3168L288.621 91.995L288.899 92.6613L289.559 93.0064L290.329 93.0223L290.948 92.7169V92.7129L291.278 92.2568L291.443 91.6182L291.503 90.3015L291.713 89.7898L292.569 88.8142L292.678 88.1161L292.547 88.1677L292.231 88.251L292.1 88.3025V85.7959L291.391 86.4226L291.019 86.5772L290.948 86.2084L291.184 85.784L291.578 85.4826L291.942 85.1256L292.1 84.5267L292.291 82.2224L292.235 81.687L291.976 80.6558L291.905 80.1084L292.036 79.0971L292.712 77.3242L292.869 76.3327L292.7 75.7893L292.303 75.7853L291.822 75.9241L291.417 75.8052L291.09 75.595L290.621 75.468L290.19 75.4879L289.965 75.702L290.077 76.1899L290.385 76.6103L290.535 77.0466L290.156 77.582L289.717 77.7486L289.289 77.5979L287.863 76.2176L287.72 75.8845L287.672 75.3054L287.87 74.8414L288.347 74.3337L288.925 73.9014L289.736 73.4453L289.908 73.3977L290.156 73.4215L290.475 73.5881L290.569 73.7943L290.543 74.0521L290.73 74.2147L290.798 74.3298L290.873 74.306L291.12 74.0521L291.293 73.8023L291.608 72.9892L291.721 72.3943L291.47 72.0373L291.12 71.7954L290.948 71.5376L291.087 71.3115L291.879 71.3869L292.291 71.1092L292.213 71.0656L292.126 70.8237L292.077 70.5183L292.1 70.2724L292.554 70.7364L293.158 70.907L293.766 70.7642L294.22 70.2724L294.325 69.9313V69.5942L294.175 69.3364L293.834 69.2293L293.699 69.0706L293.459 68.2734L293.256 67.9601L292.933 67.9323L292.622 68.1069L292.389 68.095L292.123 66.7504L292.104 66.3617L292.291 66.0643H292.599L293.083 66.6473L293.361 66.6037L293.56 66.2269L293.402 65.9731L292.584 65.5289L292.265 65.4416L292.014 65.2473L291.905 64.803L291.935 62.7089L291.789 62.5661L290.606 62.5066L290.261 62.4471L289.965 62.3083L289.571 61.8245L289.631 61.3128L290.366 60.2023L290.599 59.5558L290.783 59.2782L291.428 59.0997L291.657 58.9212L291.822 58.6674L291.905 58.3461L291.09 58.4572L290.7 58.3858L290.452 58.1399L290.366 57.6521L290.486 57.2673L290.666 56.8985L290.753 56.4741L290.569 55.7047L290.122 54.8996L289.503 54.4077L288.809 54.5783L288.876 53.9358L289.161 53.8564L289.559 54.0349L289.965 54.1658L290.351 53.9358L290.674 53.4003L290.888 52.7737L290.948 52.27L290.786 51.7782L290.269 50.9374L290.156 50.398L290.209 49.9696L290.543 48.5021L290.621 47.5185L290.801 47.2012L291.226 46.7213V46.4437L290.366 45.1507L289.987 44.2544L289.796 43.3461L289.987 42.4617L290.753 41.6328L290.359 41.4582L290.209 41.486L289.965 41.6328L289.604 41.1568L289.447 40.6333L289.394 39.1539L289.357 38.9596L289.267 38.797L288.745 38.2655L288.614 37.6666L288.535 36.679L288.445 36.3221L288.141 35.8818L288.193 35.6201L288.831 34.8506L289 34.5095L288.786 34.1367L288.351 33.7084L288.021 33.2364L288.141 32.7525L288.475 32.34L288.704 31.9236L289 30.9797L289.199 29.8017L289.375 28.7784L289.222 27.8186L288.403 28.0328L288.137 27.5965L287.754 27.1008L287.311 26.6526L286.883 26.3908L286.673 27.0135L286.452 26.7874L286.208 26.2084L285.919 25.7483L286.249 25.6928H286.925L287.285 25.5579L287.518 25.2525L287.931 24.1936L288.141 23.7969L290.021 22.3334L290.366 21.8059L290.351 21.5045L290.137 20.747L290.156 20.3543L290.321 20.0212L291.226 19.0019L291.65 18.3712L292.04 17.3995L292.047 16.5349L291.327 16.2057L291.06 16.404L290.689 17.1576L290.366 17.2449L290.137 16.9434L290.37 15.8924L290.073 14.77L290.419 13.9172L290.989 13.1359L291.503 12.6401L293.049 11.8628L293.579 11.2837L293.065 10.661L291.087 9.61L290.543 9.1182L290.456 9.38393L290.344 9.5981L290.186 9.78451L289.965 9.94712L289.769 8.89213L292.153 6.90508L293.065 6.63141L294.145 6.74247L294.554 6.61158L294.325 6.10788L293.89 5.87785L292.783 5.72713L292.378 5.4852L292.171 5.00132L292.107 3.96616L291.905 3.50608L291.47 3.27208L290.884 3.1531L290.37 2.95082L290.156 2.47092L290.37 2.13379L290.79 1.73321L291.09 1.22554L290.948 0.590957L290.479 0.265733L289.724 0.943946L289.192 0.813062L289.492 0.416447L289.323 0.107086L288.884 0Z" fill="#FF9F1C" fill-opacity="0.57"/>
<path id="MN" d="M107.757 189.126L107.303 189.011L107.085 188.678L106.984 188.246L106.845 187.877L106.511 187.718L106.02 187.679L105.682 187.571L104.972 187.179L104.432 186.699L103.576 185.235L102.616 183.97L101.809 182.602L101.295 181.967L101.223 182.07H100.165L99.816 182.15L98.5475 182.642L98.0859 182.693L95.2487 182.427L94.303 182.558L93.5449 182.872L92.8468 183.355L92.2501 183.982L91.3156 185.469L91.0867 185.656L91.1505 186.37L91.1393 186.592L91.0604 187.052L91.0792 187.222L91.2256 187.488L91.2706 187.635L91.2256 187.877L91.0905 188.166L89.473 190.336L89.3791 190.526L89.3341 190.768L89.2628 190.947L89.0977 191.085L88.7712 191.204L88.6398 191.272L88.2833 191.542L87.8029 192.117L87.7166 192.283L87.6528 192.497L87.6265 192.85L87.6528 193.291L87.6415 193.457L87.5214 193.969L87.5177 194.143L87.5402 194.306L87.4914 194.564L87.3563 194.889L86.4143 196.341L86.3243 196.547L85.3935 199.426L85.2434 200.148L85.2134 200.509L85.1534 200.636L85.0408 200.811L84.7931 201.048L84.6092 201.175L84.4291 201.247L83.4383 201.417L83.2844 201.477L83.1531 201.552L83.0517 201.663L82.8716 201.913L82.774 202.02L82.5376 202.195L82.2374 202.488L82.0159 202.782L81.6669 203.361L81.3291 204.321L81.2841 205.007L81.2316 205.261L81.0965 205.558L81.0402 205.804L81.0552 206.145L81.2916 206.887L81.2841 207.077L81.2203 207.335L80.1695 209.552L79.9331 209.933L79.6516 210.309L79.6216 210.48L79.7079 210.75L79.7867 210.936L79.8392 211.178L79.8618 211.357L79.6591 212.237L78.9273 212.554L78.5257 213.209L77.4186 215.505L77.2347 215.747L76.9908 215.918L76.8106 216.128L76.8144 216.473L77.1109 217.528L77.2347 217.79L77.7301 218.198L78.7884 218.714L79.175 219.261L79.2913 219.908L79.1787 220.51L78.7134 221.669L78.6045 222.87L78.6909 224.243L78.5745 225.389L77.854 225.9L77.3886 226.13L77.0771 226.654L76.897 227.304L76.8182 227.915L76.8632 228.526L77.1972 229.406L77.2497 229.958L77.1371 230.366L76.9195 230.577L76.6943 230.735L76.5517 230.981L76.5967 231.279L76.942 231.715L76.9157 231.984L76.7619 232.603L76.8257 233.309L77.8164 236.546L77.9103 237.581L77.8915 237.815L77.6363 238.489L77.4186 238.901L77.2535 239.143L77.2047 239.401L77.3285 239.873L77.7564 240.539L79.0774 241.674L79.584 242.277L79.8055 242.88L79.6741 243.225L78.8597 243.883L78.2668 244.799L78.188 244.779L78.2255 245.085L78.5858 245.537L78.6833 245.858L78.4995 246.497L77.9966 246.901L77.3773 247.211L76.8257 247.56L76.3228 247.845L75.7861 248.012L75.302 248.226L74.953 248.654L74.8817 249.182L74.9792 249.828L75.3395 250.959L76.1877 252.747L76.4091 253.604L76.349 254.647L76.1539 255.488L75.8499 256.166L75.362 256.587L74.6189 256.654L73.4631 256.559L72.6074 256.694L69.894 258.046L69.849 258.332L70.0442 260.029L70.228 260.493L70.5808 260.743L70.2806 260.985L69.9166 261.199L69.6426 261.465L69.6013 261.85L69.8152 262.556L69.8603 262.901L69.8152 263.301L69.8828 263.722L70.108 263.972L70.4269 264.091L70.8097 264.11L72.5624 263.829L73.0502 263.888L73.358 264.023L73.5193 264.166L73.6057 264.38L73.6695 264.749L73.8083 265.138L74.0335 265.38L74.2962 265.602L74.5326 265.911L74.7128 266.994L73.8946 270.908L73.8646 271.686L73.767 272.253L73.5419 272.78L73.129 273.478L72.0782 274.752L72.0107 275.061L72.0707 275.989L71.8906 277.27L71.9244 277.921L72.2208 278.297L72.7613 278.325L73.2754 278.254L73.6732 278.404L73.8646 279.091L73.8721 279.67L73.6732 281.958L73.6807 282.252L73.752 282.561L73.7933 282.973L73.6732 283.279L73.5081 283.552L73.418 283.874L73.5118 284.576L73.8346 284.921L74.345 285.044L74.9942 285.079L75.6285 284.893L76.4729 283.977L76.9983 283.786L77.4974 284.088L77.5387 284.726L77.306 285.956L77.5387 286.511L78.0078 287.019L78.6158 287.427L79.2425 287.705L79.524 288.058L79.4339 288.665L79.2463 289.41L79.2012 290.715L78.6571 292.583L78.552 294.927L78.7209 295.669L78.8034 295.915L77.2948 295.859L76.9082 296.216L76.7468 297.188L76.5254 297.644L76.0788 297.791L75.621 297.882L75.362 298.168L75.1556 299.715L75.013 300.206L74.6302 300.96L74.5664 301.269L74.6039 301.487L74.7916 301.916L74.8066 302.17L74.6039 303.141L74.4501 303.597L74.2324 304.002L72.9789 305.652L71.1475 308.059L70.2618 309.892L69.3386 311.803L68.6256 312.636L67.4171 312.85L66.0886 312.676L64.8651 312.847L63.9757 314.072L63.6792 315.425L63.6229 316.741L64.0282 320.164L64.4148 323.48L64.2422 324.697L63.5816 326.097L62.1555 328.037L59.9751 331.015L60.129 331.293L60.5418 331.571L60.7932 331.94L60.9208 331.959L61.0447 331.951L61.1272 332.019L61.1235 332.233L61.0184 332.435L60.9096 332.61L60.8758 332.737L62.9324 336.473L62.9662 336.608L64.1821 337.742L65.7696 338.809L66.2124 339.011L68.0363 338.928L68.603 339.011L69.7026 339.515L72.8813 342.121L73.3054 342.327L73.7783 342.474L74.3187 342.529L75.9362 342.299L76.3603 342.311L76.7506 342.474L77.2647 342.803L77.7113 343.239L77.899 343.723L77.9703 344.659L78.1917 344.929L78.6158 344.905L79.2651 344.957L79.494 345.198L80.0344 345.639L80.5748 345.813L80.8263 345.274L81.0102 344.726L81.4605 344.112L82.0234 343.564L82.5413 343.203L84.2452 342.406L84.7556 342.311L85.3973 342.43L86.4143 342.874L86.5119 342.914L87.1799 342.946L87.7691 342.751L88.82 342.188L89.9683 341.911L90.5651 341.522L92.4903 339.896L93.4773 339.527L94.6069 339.392L99.5007 339.626L101.084 339.333L101.79 339.309L102.39 339.495L102.642 340.003L102.792 340.181L103.111 340.118L103.411 339.967L103.509 339.884L103.711 339.789L103.824 339.555L103.895 339.265L103.993 339.011L104.777 337.821L105.355 337.131L105.839 336.826L107.254 336.691L107.404 334.446L107.476 334.03L107.622 333.574L107.753 333.435L108.177 333.189L108.283 333.078L108.335 332.895L108.346 332.661L108.29 332.301L108.283 332.007L108.324 331.717L108.489 331.372L108.628 331.186L108.785 331.067L109.093 330.936L109.656 330.627L109.893 330.432L109.994 330.317L110.08 330.191L110.155 330.052L110.317 329.584L110.347 329.389L110.343 329.159L110.257 328.834L110.129 328.628L109.945 328.406L107.104 326.066L106.819 325.967L104.537 325.764L104.184 325.697L103.955 325.558L103.865 325.229L103.738 318.673L103.689 318.252L103.569 317.876L103.265 317.606L99.906 316.321L99.512 316.091L92.4453 308.238L92.3514 307.821L92.3289 307.401L92.3514 307.012L92.3364 306.723L92.2951 306.52L92.3027 306.203L92.389 305.763L92.9519 304.165L92.9782 303.986L92.9444 303.764L92.8844 303.59L92.7305 303.288L92.3815 302.776L92.3027 302.626L92.2201 302.257L92.1638 301.622L92.1225 301.432L92.0662 301.273L91.9799 301.142L91.7435 300.956L91.0154 300.662L90.9066 300.559L90.8278 300.424L90.1222 297.759L90.141 297.565L90.2423 297.382L92.8468 295.086L92.9857 294.868L93.2672 294.578L93.3835 294.483L93.5186 294.4L93.665 294.329L93.9877 294.217L94.2767 294.075L94.4043 293.991L94.697 293.65L94.8171 293.551L94.9522 293.472L95.275 293.369L95.4626 293.353L96.0105 293.365L96.1832 293.333L96.3408 293.277L96.99 292.853L97.1364 292.802L97.2828 292.798L97.4216 292.849L97.5229 292.956L97.6018 293.091L97.7256 293.65L97.7969 293.797L97.9208 293.884L98.1985 294.011L98.3261 294.091L98.5512 294.289L99.0879 294.916L99.1179 294.939L99.1892 294.983L99.3168 295.011L99.6433 295.023L99.7597 295.038L99.8422 294.971L100.582 293.623L100.615 293.587L100.675 293.547L101.058 293.369L101.749 293.234L101.936 293.159L102.026 293.099L102.079 293.059L102.394 292.742L102.552 292.627L102.766 292.504L103.696 292.127L103.937 291.937L104.027 291.846L104.117 291.715L104.342 291.235L104.455 291.052L104.59 290.906L105.291 290.473L105.382 290.394L105.535 290.168L105.58 290.136L105.652 290.12L106.005 290.109L106.297 290.053L106.778 289.843L106.894 289.767L106.823 289.724L106.365 289.506L106.263 289.43L106.196 289.359L105.952 289.054L105.832 288.946L105.701 288.871L105.55 288.82L105.209 288.823L105.036 288.808L104.89 288.748L104.762 288.645L104.668 288.526L104.477 288.082L104.376 287.979L104.244 287.899L104.083 287.856L103.479 287.864L103.287 287.848L103.246 287.523L103.235 286.908L103.404 285.381L103.408 284.738L103.374 284.334L102.679 283.14L102.612 282.977L102.563 282.811L102.496 282.458L102.526 282.252L102.612 282.053L102.897 281.851L103.134 281.768L103.434 281.728L104.158 281.704L104.492 281.617L104.683 281.431L104.747 280.907L104.759 273.003L107.588 261.834L107.742 260.822L107.524 260.85L107.183 260.711L106.92 260.414L106.763 260.105L106.579 259.827L106.241 259.617L105.569 259.49L105.291 259.367L105.036 259.046L104.89 258.689L104.699 257.967L104.522 257.63L104.256 257.368L103.97 257.241L103.67 257.158L103.347 257.019L103.058 256.753L102.923 256.436L102.815 256.099L102.623 255.762L102.338 255.54L101.336 255.21L100.36 254.556L99.9623 254.453L99.0579 254.389L98.7464 253.64L98.7877 253.259L99.0691 252.141L99.2193 251.803L99.6283 251.252L100.473 250.34L100.931 249.555L101.081 249.352L101.22 249.202L101.463 249.027L101.76 248.682L101.978 248.329L102.15 248.206L102.308 248.158L102.458 248.139L102.608 248.032L103.085 247.345L103.186 247.143L103.19 246.834L103.137 246.643L103.062 246.469L102.897 246.207L102.826 246.056L102.777 245.882L102.713 245.497L102.649 245.35L102.507 245.299L102.222 245.243L102.158 245.128L102.143 244.966L102.165 244.795L102.454 243.843L102.507 243.49L102.511 243.3L102.496 243.106L102.447 242.935L102.327 242.622L101.662 241.333L101.602 241.178L101.58 241.004L101.621 240.797L102.405 239.905L102.732 239.393L102.826 239.282L103.287 238.894L103.963 238.505L104.316 238.219L104.616 237.898L104.706 237.739L104.777 237.537L104.954 236.554L105.134 236.125L105.445 236.169L105.607 236.228L106.444 236.367L106.714 236.466L106.8 236.522L106.871 236.585L107.262 236.99L107.352 237.113L107.637 237.692L107.738 238.037L107.798 238.433L107.847 238.604L107.919 238.747L108.11 238.977L108.222 239.076L108.587 239.326L108.703 239.421L108.977 239.73L109.371 239.996L109.656 240.119L109.945 240.206L110.084 240.23L110.302 240.183L110.392 240.131L110.437 240.111L110.493 240.068L111.352 238.806L111.66 238.533L112.032 238.473L113.221 238.648L113.679 238.168L114.043 237.196L114.715 234.451L114.843 233.186L114.854 232.306L114.681 231.873L114.666 231.782L114.82 230.418L114.764 230.097L114.662 229.894L114.441 229.744L114.302 229.605L113.946 229.153L113.867 229.01L113.762 228.879L113.604 228.744L111.274 227.804L111.003 227.578L110.936 227.221L110.943 226.817L111.322 223.779L111.27 223.35L110.448 220.019L110.418 219.578L110.485 219.178L111.623 216.263L111.728 215.85L111.72 214.216L111.942 212.642L112.343 211.317L112.85 210.139L113.064 209.484L113.139 208.898L113.045 207.133L113.056 206.922L113.086 206.708L113.154 206.466L114.828 202.782L115.008 202.54L115.447 202.183L116.291 201.699L116.528 201.6L117.943 201.223L120.01 200.188L120.194 200.049L120.765 199.529L121.084 199.169L121.41 198.625L121.943 197.348L123.628 195.282L118.318 192.196L116.79 191.68L114.918 191.3L113.026 191.189L112.527 190.986L112.077 190.669L110.647 189.384L110.425 189.253L110.129 189.15L109.513 189.019L109.217 188.904L108.759 188.857L107.757 189.126Z" fill="#FF9F1C" fill-opacity="0.57"/>
<path id="TT" d="M88.6737 114.828L88.5949 114.666L88.3923 114.467L88.1408 114.36L87.7392 114.083L87.5028 113.797L86.7973 112.564L86.6734 112.008L86.816 110.481L86.5045 109.609L85.8741 109.081L84.3166 108.165L82.2675 108.911L79.8094 109.803L76.2629 111.092L71.4028 112.853L66.6592 114.582L62.3921 116.133L59.4273 117.212L56.804 118.164L54.5373 118.608L53.4564 118.961L51.3285 120.004L48.4951 121L44.7835 122.304L40.7528 123.724L38.8126 124.807L36.1893 126.278L33.7687 127.234L30.8339 127.992L27.2011 128.928L24.2776 129.685L23.7747 129.725L19.7816 130.701L16.9782 131.387L13.0639 132.91L10.662 133.85L7.66344 135.016L5.04016 136.408L2.94979 137.515L0.480372 137.832L0.0150116 137.963V137.979L0 138.181L0.198904 139.101V140.481L0.337762 141.818L1.38858 145.677L2.09037 147.148L3.00608 147.787L3.41139 147.95L3.76792 148.354L4.0644 148.901L4.25955 149.477L4.37964 150.111L4.4547 152.126L4.54102 152.479L4.95759 153.094L5.04766 153.391L4.9726 153.7L4.4547 154.771L4.27081 155.454L4.33086 155.882L5.13773 156.79L5.2841 157.032L5.60685 157.944L5.54305 158.024L5.14524 158.194L5.18652 160.697L5.2278 163.648L5.28785 167.356L5.32162 169.514L8.48908 169.49L10.5156 169.474L15.1167 169.438L18.1528 169.418L19.41 169.696L20.5472 170.545L21.0013 171.06L21.4178 171.397L21.887 171.469L22.5175 171.179L22.8477 170.878L23.3694 170.247L23.7822 170.021L24.0224 170.085L24.2438 170.267L24.4577 170.279L24.6904 169.843L25.3959 169.379L26.6494 169.482L29.5129 170.204L30.0458 170.414L30.5074 170.767L30.9127 171.306L31.4419 172.353L31.7946 172.786L32.3426 173.103L32.624 173.313L32.7441 173.599L32.8342 173.888L33.0106 174.094L33.1157 174.114L33.3371 174.059L33.4497 174.043L33.5848 174.126L33.5773 174.269L33.5397 174.42L33.5923 174.511L34.1402 174.586L34.7519 174.594L35.3149 174.681L35.7352 174.999L36.8235 175.574L41.5334 175.907L42.2277 176.236L43.0008 176.918L44.7122 178.901L45.2563 179.393L46.4385 180.052L46.7763 180.353L47.0239 180.9L47.1628 182.09L47.4067 182.562L47.8571 182.792L50.7881 183.292L56.3612 183.141L58.5829 183.502L61.4952 184.748L65.9649 186.663L69.3387 188.107L69.6577 188.42L69.7966 188.868L69.8154 189.586L70.0968 190.812L70.8474 191.423L71.0088 191.494L71.02 191.498L71.2602 191.323L71.6543 191.161L72.0934 191.085L72.9753 191.141L74.7054 191.55L75.5911 191.613L76.0489 191.474L76.8933 190.907L77.3625 190.697L77.7115 190.653L77.5163 191.546L76.7207 194.83L76.2366 195.829L75.7937 196.448L73.7709 198.55L73.8084 198.748L75.4034 201.762L76.5818 203.983L77.3062 205.784L77.689 207.712L77.7265 208.874L77.7377 209.183L77.8428 209.865L78.1356 210.484L78.3832 210.702L79.0137 211.075L79.2089 211.353L79.2314 211.852L79.0588 212.34L78.9274 212.554L79.6592 212.237L79.8619 211.357L79.8394 211.178L79.7868 210.936L79.708 210.75L79.6217 210.48L79.6517 210.309L79.9332 209.933L80.1696 209.552L81.2204 207.335L81.2842 207.077L81.2917 206.887L81.0553 206.145L81.0403 205.804L81.0966 205.558L81.2317 205.261L81.2842 205.007L81.3293 204.321L81.667 203.361L82.0161 202.782L82.2375 202.488L82.5377 202.195L82.7741 202.02L82.8717 201.913L83.0519 201.663L83.1532 201.552L83.2845 201.477L83.4384 201.417L84.4292 201.247L84.6093 201.175L84.7932 201.048L85.0409 200.811L85.1535 200.636L85.2135 200.509L85.2436 200.148L85.3937 199.426L86.3244 196.547L86.4145 196.341L87.3565 194.889L87.4916 194.564L87.5403 194.306L87.5178 194.143L87.5216 193.969L87.6417 193.457L87.6529 193.291L87.6267 192.85L87.6529 192.497L87.7167 192.283L87.803 192.117L88.2834 191.542L88.6399 191.272L88.7713 191.204L89.0978 191.085L89.2629 190.947L89.3342 190.768L89.3793 190.526L89.4731 190.336L91.0906 188.166L91.2257 187.877L91.2707 187.635L91.2257 187.488L91.0793 187.222L91.0606 187.052L91.1394 186.592L91.1506 186.37L91.0868 185.656L91.3158 185.469L92.2502 183.982L92.847 183.355L93.545 182.872L94.3031 182.558L95.2488 182.427L98.086 182.693L98.5476 182.642L99.8161 182.15L100.165 182.07H101.223L101.295 181.967L101.809 182.602L102.616 183.97L103.577 185.235L104.432 186.699L104.973 187.179L105.682 187.571L106.02 187.679L106.511 187.718L106.845 187.877L106.984 188.246L107.085 188.678L107.303 189.011L107.757 189.126L108.759 188.857L109.217 188.904L109.514 189.019L110.129 189.15L110.426 189.253L110.647 189.384L112.077 190.669L112.527 190.986L113.026 191.189L114.918 191.3L116.791 191.68L118.318 192.196L123.628 195.282L125.749 196.511L127.895 197.162L128.552 197.507L131.097 199.783L131.333 200.097L131.735 201.041L132.429 204.146L133.559 206.169L134.095 207.474L134.425 208.671L134.482 209.298L134.636 209.334L134.744 209.619L135.202 210.417L135.307 210.853L135.364 211.004L135.66 211.432L136.482 213.593L136.73 214.926L136.854 215.176L137.293 215.692L137.439 215.929L137.803 217.044L137.833 217.222V217.813L137.871 218.008L138.002 218.293L138.373 218.817L138.828 219.328L139.71 219.979L140.438 220.689L140.708 220.82L140.91 221.153L141.274 221.435L143.087 222.414L143.725 222.958L144.052 223.176L144.322 221.847L144.348 215.779L144.029 214.006L144.018 213.871L144.044 213.118L144.082 212.86L144.16 212.642L144.509 212.062L144.521 211.809L144.318 210.682L143.654 209.286L143.507 208.691L143.365 205.078L143.252 204.606L141.646 204.793L138.801 204.689L137.315 204.44L136.884 203.995L136.97 203.19L136.054 201.691L136.276 200.715L136.887 200.176L137.6 199.803L138.223 199.331L138.554 198.478L138.636 197.475L138.617 196.345L138.358 195.381L137.724 194.877L136.794 194.849L135.953 194.937L135.15 194.794L134.317 194.092L133.799 193.35L133.559 193.073L133.172 192.771L132.981 192.696L132.549 192.612L132.358 192.497L132.226 192.259L132.136 191.661L132.016 191.403L131.825 191.252L131.566 191.05L131.07 190.828L130.639 190.554L130.361 190.078L130.158 189.404L129.929 188.975L128.62 187.794L128.331 187.377L127.828 186.338L127.464 185.91L125.677 184.898L125.463 184.815L125.287 184.672L124.942 183.748L124.792 183.463L124.604 183.24L123.692 182.507L123.339 182.138L123.035 181.654L122.243 179.504L121.613 178.81L120.363 178.616L119.391 178.576L118.843 177.977L117.68 175.261L117.793 174.206L118.348 172.199L118.224 171.33L117.748 170.624L115.394 167.991L114.985 167.721L114.047 167.249L113.694 166.92L113.39 166.059L113.338 164.952L113.48 163.87L113.784 163.092L114.584 162.172L115.087 161.76L115.563 161.518L116.149 161.327L116.453 161.133L116.464 161.117L118.209 158.531L118.543 157.548L118.633 156.318L118.378 154.45L118.382 153.407L118.735 152.887L119.241 152.61L119.797 151.662L120.363 151.289L120.551 150.908L120.69 150.123L120.821 149.742L121.144 149.286L121.489 149.032L121.857 148.822L122.236 148.521L122.754 147.72L122.866 146.91L122.585 144.717L122.281 142.353L122.345 141.826L122.608 141.489L122.532 141.136L122.356 140.751L122.292 140.315L122.457 139.878L123.032 139.03L123.238 138.574L123.291 138.054L123.088 137.586L122.776 137.122L122.525 136.63L122.36 136.015L122.292 135.496L122.281 133.219L122.123 132.248L121.823 131.339L121.35 130.348L121.08 129.293L121.463 127.456L121.429 126.429L120.967 125.45L119.496 123.903L118.843 123.046L117.92 121.035L117.545 120.46L117.308 120.103L116.517 119.651L116.269 119.699L116.059 119.845L115.852 120.02L115.638 120.171L115.413 120.218L114.959 120.167L114.749 120.194L111.957 121.257L109.904 121.317L108.999 121.725L108.793 122.039L108.463 122.816L108.241 122.971L105.277 122.546H104.451L103.678 122.757L102.038 123.819L101.238 124.129L100.439 124.046L98.9229 122.804L98.3262 123.002L97.8984 123.697L97.6582 124.593L97.6544 125.656L97.5644 126.207L97.2866 126.417L96.7913 126.255L96.4572 125.933L96.2171 125.525L96.0444 125.025L95.6466 123.859L95.4064 123.47L95.0837 123.201L94.3256 122.824L94.0028 122.554L93.7627 122.158L93.6163 121.773L93.4324 121.404L93.0571 121.055L91.8674 120.488L91.5034 120.175L90.9893 119.445L89.5632 116.367L89.0678 115.633L88.6737 114.828Z" fill="#FF9F1C" fill-opacity="0.57"/>
</g>
<defs>
<clipPath id="clip0_97_2">
<rect width="300" height="518" fill="white"/>
</clipPath>
</defs>
</svg>
