<svg width="139" height="117" viewBox="0 0 139 117" fill="none" xmlns="http://www.w3.org/2000/svg">
<g clip-path="url(#clip0_13_871)">
<path d="M6.70698 39.8704L0.00475162 36.2398C-0.0856542 32.3554 0.811206 28.5086 2.61746 25.0332C4.16269 31.7784 12.2947 34.9876 16.0467 40.877C17.2023 42.7225 17.9113 44.7944 18.1211 46.9392C18.3309 49.0841 18.0362 51.2468 17.2588 53.2672L17.6996 58.497C14.2356 57.4992 11.0378 55.7909 8.32636 53.49C5.61494 51.1891 3.45441 48.3502 1.99362 45.1689C1.19251 43.3764 0.629288 41.494 0.317256 39.5662C3.44213 39.886 6.70698 39.8704 6.70698 39.8704Z" fill="#F2F2F2"/>
<path d="M127.191 105.92L127.397 101.476C129.539 100.375 131.929 99.7929 134.358 99.7812C131.014 102.41 131.432 107.478 129.166 111.013C128.45 112.111 127.486 113.039 126.347 113.73C125.207 114.42 123.921 114.855 122.583 115.003L119.785 116.65C119.401 114.592 119.485 112.478 120.033 110.454C120.58 108.43 121.577 106.544 122.955 104.927C123.738 104.027 124.635 103.225 125.626 102.541C126.296 104.24 127.191 105.92 127.191 105.92Z" fill="#E6E6E6"/>
<path d="M119.982 114.363L117.448 114.363L116.243 104.965L119.982 104.965L119.982 114.363Z" fill="#7B6551"/>
<path d="M120.628 116.725L112.459 116.725V116.625C112.459 115.814 112.794 115.036 113.39 114.463C113.987 113.889 114.795 113.567 115.639 113.567H115.639L117.131 112.479L119.915 113.567L120.628 113.567L120.628 116.725Z" fill="#2F2E41"/>
<path d="M108.212 114.363L105.678 114.363L104.473 104.965L108.212 104.965L108.212 114.363Z" fill="#7B6551"/>
<path d="M108.858 116.725L100.689 116.725V116.625C100.69 115.814 101.025 115.036 101.621 114.463C102.217 113.889 103.026 113.567 103.869 113.567H103.869L105.361 112.479L108.145 113.567L108.858 113.567L108.858 116.725Z" fill="#2F2E41"/>
<path d="M107.115 62.9834L123.594 63.3796C126.724 65.0145 126.771 68.5528 125.746 72.7539C125.746 72.7539 126.092 75.2509 125.399 75.9168C124.707 76.5827 124.361 76.5827 124.707 77.7479C125.053 78.9132 123.224 80.8164 123.446 81.0301C123.669 81.2437 124.188 82.409 124.188 82.409L122.457 91.8976C122.457 91.8976 121.245 108.378 120.899 108.711C120.553 109.044 120.207 108.711 120.553 109.543C120.899 110.375 121.245 110.042 120.899 110.375C120.593 110.693 120.304 111.027 120.034 111.374H115.849C115.849 111.374 115.534 109.709 115.534 109.543C115.534 109.377 115.187 108.378 115.187 108.211C115.187 108.045 115.493 107.751 115.493 107.751C115.599 107.412 115.671 107.065 115.707 106.713C115.707 106.38 116.745 93.5622 116.745 93.5622L114.668 76.9156L109.649 93.2293C109.649 93.2293 109.649 107.545 109.302 107.878C108.956 108.211 108.956 108.045 109.129 108.711C109.302 109.377 109.995 109.21 109.476 109.709C108.956 110.209 108.783 109.377 108.956 110.209L109.129 111.041L103.937 111.113C103.937 111.113 103.244 109.709 103.591 109.21C103.937 108.711 103.916 108.847 103.494 108.03C103.071 107.212 102.898 107.046 103.071 106.88C103.244 106.713 103.244 105.828 103.244 105.828L104.11 89.9C104.11 89.9 104.283 73.0869 104.283 72.5875C104.296 72.3305 104.247 72.0741 104.139 71.8386V71.1607L104.802 68.7587L107.115 62.9834Z" fill="#69687F"/>
<path d="M117.014 30.029C119.842 30.029 122.134 27.8244 122.134 25.1048C122.134 22.3853 119.842 20.1807 117.014 20.1807C114.187 20.1807 111.895 22.3853 111.895 25.1048C111.895 27.8244 114.187 30.029 117.014 30.029Z" fill="#7B6551"/>
<path d="M114.454 33.2839C113.351 33.9146 112.691 35.0734 112.313 36.2526C111.611 38.4356 111.189 40.6927 111.056 42.974L110.655 49.8037L105.701 64.3461C109.995 67.8406 126.136 65.1403 126.136 65.1403C126.136 65.1403 126.631 64.9815 126.136 64.5049C125.64 64.0284 125.158 64.4506 125.654 63.974C126.149 63.4975 125.808 64.0284 125.642 63.5519C125.477 63.0753 125.642 63.393 125.808 63.2342C125.973 63.0753 124.529 61.6457 124.529 61.6457L125.85 53.2983L127.502 36.4608C125.52 34.0781 121.534 32.6736 121.534 32.6736L120.504 30.8906L115.355 31.2868L114.454 33.2839Z" fill="#FF9F1C"/>
<path d="M113.752 22.2156C113.95 22.2171 114.147 22.242 114.339 22.2897C114.717 22.3771 115.101 22.439 115.488 22.475C116.673 22.5823 117.787 23.0684 118.651 23.8558C119.516 24.6433 120.081 25.6865 120.256 26.819C120.554 26.5695 121.231 26.1106 121.786 26.5371C121.794 26.5439 121.799 26.5474 121.818 26.5385C122.187 26.3703 122.841 24.3009 122.861 22.4788C122.871 21.5117 122.713 20.2767 121.9 19.8856L121.857 19.865L121.846 19.8203C121.791 19.6027 121.184 19.2314 120.129 18.9423C118.212 18.4171 115.354 17.3939 113.744 18.8997C113.622 19.4073 113.226 20.4937 112.826 20.6168C112.383 20.7531 112 20.8707 111.94 21.3937C111.889 22.1378 111.893 22.8845 111.95 23.6281C112.101 23.1731 112.396 22.7748 112.793 22.4893C113.076 22.3061 113.411 22.2106 113.752 22.2156Z" fill="#2F2E41"/>
<path d="M104.222 49.4236L112.586 44.2722L108.373 38.8867L104.214 43.8076L91.2537 44.5721C90.9128 44.248 90.4813 44.0263 90.0117 43.9341C89.542 43.8418 89.0547 43.883 88.6089 44.0525C88.1632 44.222 87.7784 44.5126 87.5015 44.8889C87.2245 45.2651 87.0673 45.7107 87.0491 46.1713C87.031 46.632 87.1525 47.0878 87.399 47.4831C87.6455 47.8785 88.0063 48.1963 88.4373 48.3979C88.8684 48.5995 89.3511 48.676 89.8267 48.6183C90.3022 48.5606 90.75 48.371 91.1154 48.0727L104.222 49.4236Z" fill="#7B6551"/>
<path d="M120.348 37.082C120.834 39.9073 111.667 45.3024 111.667 45.3024C111.667 44.6393 106.196 49.6456 105.949 49.0956C105.247 47.5325 104.754 43.8302 103.773 43.2376C103.212 42.8987 107.151 39.7152 107.151 39.7152C107.151 39.7152 109.213 37.7175 111.918 35.1978C112.67 34.4718 113.599 33.9404 114.622 33.653C115.644 33.3656 116.725 33.3317 117.765 33.5543C117.765 33.5543 119.863 34.2567 120.348 37.082Z" fill="#FF9F1C"/>
<path d="M137.587 50.7755L132.055 42.8428L126.545 47.0072L131.749 50.9026L132.818 63.348C132.488 63.6827 132.267 64.1023 132.181 64.5558C132.095 65.0093 132.148 65.4771 132.334 65.9021C132.52 66.3271 132.83 66.6909 133.227 66.9492C133.624 67.2076 134.09 67.3493 134.57 67.357C135.049 67.3647 135.52 67.2382 135.926 66.9928C136.332 66.7474 136.654 66.3938 136.855 65.9751C137.055 65.5563 137.124 65.0905 137.054 64.6345C136.984 64.1785 136.778 63.7519 136.46 63.4068L137.587 50.7755Z" fill="#7B6551"/>
<path d="M124.416 35.5308C127.343 35.0042 133.145 43.7041 133.145 43.7041C132.456 43.7182 137.776 48.8729 137.209 49.122C135.599 49.83 131.761 50.3829 131.166 51.3385C130.825 51.885 127.433 48.165 127.433 48.165C127.433 48.165 125.312 46.2248 122.636 43.6766C121.865 42.9697 121.293 42.0867 120.973 41.1099C120.652 40.1332 120.594 39.0943 120.803 38.0901C120.803 38.0901 121.489 36.0573 124.416 35.5308Z" fill="#FF9F1C"/>
<path d="M139 116.764C139 116.795 138.994 116.826 138.982 116.854C138.969 116.883 138.951 116.909 138.929 116.931C138.906 116.953 138.879 116.97 138.849 116.982C138.819 116.994 138.787 117 138.755 117H81.0205C80.9555 117 80.8931 116.975 80.8472 116.931C80.8012 116.887 80.7754 116.827 80.7754 116.764C80.7754 116.702 80.8012 116.642 80.8472 116.597C80.8931 116.553 80.9555 116.528 81.0205 116.528H138.755C138.787 116.528 138.819 116.534 138.849 116.546C138.879 116.558 138.906 116.575 138.929 116.597C138.951 116.619 138.969 116.645 138.982 116.674C138.994 116.702 139 116.733 139 116.764Z" fill="#FF9F1C"/>
<path d="M85.5157 45.3242H15.4469C14.3522 45.3254 13.3027 45.7442 12.5286 46.4887C11.7545 47.2331 11.3191 48.2425 11.3179 49.2954V91.2515C11.3191 92.3043 11.7545 93.3137 12.5286 94.0582C13.3027 94.8026 14.3522 95.2214 15.4469 95.2226H85.5156C86.6103 95.2215 87.6599 94.8027 88.434 94.0582C89.208 93.3137 89.6435 92.3043 89.6447 91.2515V49.2954C89.6435 48.2425 89.2081 47.2331 88.434 46.4886C87.6599 45.7442 86.6104 45.3254 85.5157 45.3242Z" fill="#FCA34D"/>
<path d="M85.5157 45.3242H15.4469C14.3522 45.3254 13.3027 45.7442 12.5286 46.4887C11.7545 47.2331 11.3191 48.2425 11.3179 49.2954V91.2515C11.3191 92.3043 11.7545 93.3137 12.5286 94.0582C13.3027 94.8027 14.3522 95.2214 15.4469 95.2226H85.5156C86.6103 95.2215 87.6599 94.8027 88.434 94.0582C89.208 93.3137 89.6435 92.3043 89.6447 91.2515V49.2954C89.6435 48.2425 89.2081 47.2331 88.434 46.4886C87.6599 45.7442 86.6104 45.3254 85.5157 45.3242ZM86.8707 75.4618C86.854 79.7332 85.0972 83.8281 81.9773 86.8681C78.8575 89.9081 74.623 91.651 70.1824 91.7229C63.0726 91.8119 74.1162 91.8466 65.5413 91.8466C45.9334 91.8466 25.4877 91.6664 17.8592 91.5496C16.8555 91.5297 15.8997 91.1332 15.1958 90.4448C14.4919 89.7564 14.0958 88.8306 14.0919 87.8651V49.2985C14.0923 48.9527 14.235 48.6212 14.4889 48.3764C14.7428 48.1317 15.0872 47.9936 15.4466 47.9923H85.5128C85.8722 47.9927 86.2169 48.13 86.4713 48.3741C86.7258 48.6182 86.8694 48.9493 86.8707 49.295V75.4618Z" fill="#0081AF"/>
<path d="M76.8903 21.165H23.5054C23.033 21.1657 22.5724 21.3065 22.1864 21.5683C21.8004 21.8301 21.5078 22.2001 21.3485 22.6278L13.1036 44.8749C12.9805 45.2069 12.9422 45.5625 12.9917 45.9118C13.0412 46.2611 13.1772 46.5938 13.3883 46.8821C13.5993 47.1703 13.8792 47.4056 14.2044 47.5682C14.5296 47.7308 14.8907 47.8159 15.2572 47.8164L86.8552 47.9387H86.8584C87.2373 47.9386 87.6103 47.8482 87.9439 47.6754C88.2775 47.5026 88.5613 47.253 88.7699 46.9487C88.9785 46.6445 89.1053 46.2952 89.139 45.9323C89.1727 45.5693 89.1122 45.2039 88.963 44.869L78.9949 22.4997C78.8187 22.1034 78.5253 21.7656 78.1511 21.5283C77.7769 21.291 77.3385 21.1647 76.8903 21.165Z" fill="#0081AF"/>
<path d="M89.1485 45.3523C89.1483 45.6506 89.0852 45.9458 88.9631 46.22L78.9957 63.4392C78.8182 63.8347 78.5244 64.1716 78.1503 64.4085C77.7763 64.6454 77.3384 64.7719 76.8905 64.7725H23.5063C23.0338 64.772 22.573 64.6314 22.1866 64.3697C21.8003 64.1081 21.5073 63.7382 21.3476 63.3105L13.1043 46.2141C13.0032 45.9417 12.959 45.6529 12.9741 45.364C12.9892 45.0752 13.0633 44.7921 13.1922 44.5308C13.3212 44.2696 13.5024 44.0353 13.7255 43.8414C13.9486 43.6476 14.2093 43.4979 14.4926 43.401C14.7376 43.3159 14.9962 43.2723 15.2568 43.2722L24.0027 43.2564L27.5724 43.2504L74.5444 43.1712L78.1161 43.1653L86.8559 43.1494H86.858C87.4654 43.1495 88.048 43.3816 88.4775 43.7947C88.907 44.2078 89.1484 44.7681 89.1485 45.3523Z" fill="#0081AF"/>
<path d="M20.7 76.7969C21.7586 76.7969 36.2957 77.6513 36.2957 78.6695C36.2957 79.6876 21.7586 80.4838 20.7 80.4838C20.1916 80.4838 19.7041 80.2896 19.3446 79.9439C18.9851 79.5982 18.7832 79.1293 18.7832 78.6404C18.7832 78.1514 18.9851 77.6825 19.3446 77.3368C19.7041 76.9911 20.1916 76.7969 20.7 76.7969Z" fill="#FF9F1C"/>
<path d="M66.542 60.3662H35.5747C35.3071 60.3662 35.0503 60.4685 34.8611 60.6505C34.6718 60.8326 34.5654 61.0795 34.5654 61.3369C34.5654 61.5944 34.6718 61.8413 34.8611 62.0233C35.0503 62.2054 35.3071 62.3076 35.5747 62.3076H66.542C66.8097 62.3076 67.0664 62.2054 67.2557 62.0233C67.445 61.8413 67.5513 61.5944 67.5513 61.3369C67.5513 61.0795 67.445 60.8326 67.2557 60.6505C67.0664 60.4685 66.8097 60.3662 66.542 60.3662Z" fill="#E4E4E4"/>
<path d="M50.7443 75.8918C50.5715 75.8919 50.4003 75.8594 50.2403 75.796L21.8555 64.3684V28.5983C21.8558 28.282 21.9855 27.9788 22.216 27.7551C22.4465 27.5315 22.7591 27.4056 23.0851 27.4053H77.5392C77.8652 27.4056 78.1778 27.5315 78.4083 27.7551C78.6388 27.9788 78.7685 28.282 78.7689 28.5983V64.3934L78.7155 64.4155L51.2635 75.7904C51.0991 75.8574 50.9226 75.8919 50.7443 75.8918Z" fill="white"/>
<path d="M50.7042 64.2179C58.4293 64.2179 64.6916 58.1132 64.6916 50.5826C64.6916 43.052 58.4293 36.9473 50.7042 36.9473C42.9792 36.9473 36.7168 43.052 36.7168 50.5826C36.7168 58.1132 42.9792 64.2179 50.7042 64.2179Z" fill="#FCA34D"/>
<path d="M48.8726 58.0605C48.6406 58.0605 48.4117 58.0062 48.2042 57.9017C47.9967 57.7973 47.8163 57.6456 47.6771 57.4588L44.0118 52.5401C43.8934 52.3821 43.8071 52.2022 43.758 52.0106C43.7088 51.819 43.6976 51.6196 43.7252 51.4237C43.7527 51.2277 43.8184 51.0392 43.9185 50.8689C44.0185 50.6986 44.151 50.5498 44.3083 50.4311C44.4656 50.3124 44.6446 50.226 44.8351 50.1771C45.0255 50.1281 45.2237 50.1174 45.4183 50.1457C45.6129 50.174 45.8001 50.2406 45.969 50.3418C46.138 50.4429 46.2854 50.5766 46.403 50.7353L48.8009 53.9529L54.9599 44.6551C55.1797 44.3232 55.5216 44.0928 55.9103 44.0146C56.2989 43.9363 56.7026 44.0167 57.0324 44.238C57.3622 44.4593 57.5911 44.8033 57.6688 45.1945C57.7466 45.5857 57.6667 45.9919 57.4469 46.3238L50.1162 57.3907C49.9836 57.5909 49.8052 57.7561 49.5961 57.8726C49.3869 57.989 49.1531 58.0533 48.9142 58.0601C48.9003 58.0603 48.8865 58.0605 48.8726 58.0605Z" fill="white"/>
</g>
<defs>
<clipPath id="clip0_13_871">
<rect width="139" height="117" fill="white"/>
</clipPath>
</defs>
</svg>
