<svg width="34" height="44" viewBox="0 0 34 44" fill="none" xmlns="http://www.w3.org/2000/svg">
<path d="M0.503906 6C0.503906 2.68629 3.1902 0 6.50391 0H21L33.5009 13V38C33.5009 41.3137 30.8146 44 27.5009 44H6.5039C3.1902 44 0.503906 41.3137 0.503906 38V6Z" fill="#FF464B"/>
<path d="M21 13V0L33.5 13H21Z" fill="#FF8689"/>
<path d="M10.2422 26.8613C11.1471 26.8613 11.8242 27.0583 12.2734 27.4521C12.7259 27.846 12.9521 28.4059 12.9521 29.1318C12.9521 29.4574 12.9049 29.7699 12.8105 30.0693C12.7194 30.3688 12.568 30.6357 12.3564 30.8701C12.1481 31.1045 11.8698 31.29 11.5215 31.4268C11.1764 31.5635 10.75 31.6318 10.2422 31.6318H9.7002V34H7.77148V26.8613H10.2422ZM10.1982 28.4189H9.7002V30.0596H10.0811C10.2471 30.0596 10.4017 30.0319 10.5449 29.9766C10.6882 29.918 10.8021 29.8252 10.8867 29.6982C10.9746 29.568 11.0186 29.3955 11.0186 29.1807C11.0186 28.9561 10.9518 28.7738 10.8184 28.6338C10.6849 28.4906 10.4782 28.4189 10.1982 28.4189ZM19.9494 30.2793C19.9494 31.1094 19.7948 31.7995 19.4855 32.3496C19.1763 32.8997 18.7401 33.3132 18.177 33.5898C17.6171 33.8633 16.9579 34 16.1994 34H13.8898V26.8613H16.3605C17.1288 26.8613 17.7798 26.9932 18.3137 27.2568C18.8475 27.5205 19.2528 27.9062 19.5295 28.4141C19.8094 28.9219 19.9494 29.5436 19.9494 30.2793ZM17.9475 30.3477C17.9475 29.9147 17.8889 29.5566 17.7717 29.2734C17.6577 28.987 17.4852 28.7738 17.2541 28.6338C17.023 28.4906 16.7316 28.4189 16.3801 28.4189H15.8186V32.418H16.2482C16.8342 32.418 17.2639 32.2487 17.5373 31.9102C17.8107 31.5684 17.9475 31.0475 17.9475 30.3477ZM22.933 34H21.0336V26.8613H25.2523V28.4092H22.933V29.7715H25.0717V31.3193H22.933V34Z" fill="white"/>
</svg>
