<svg width="84" height="84" viewBox="0 0 84 84" fill="none" xmlns="http://www.w3.org/2000/svg">
<rect width="84" height="84" rx="42" fill="#00ABE7"/>
<path d="M70 41.5C70 56.683 57.6915 69 42.4945 69C27.3085 68.9891 15 56.683 15 41.5C15 26.317 27.3085 14 42.5055 14C57.6915 14 70 26.3061 70 41.5Z" fill="#EE3124"/>
<path d="M42.7241 56.8247C35.1639 56.8466 27.3083 50.4037 27.2755 40.0447C27.2536 33.197 30.9516 26.6119 35.6672 22.6958C40.2733 18.8782 46.5862 16.4389 52.3083 16.417C53.0413 16.417 53.8182 16.4717 54.2886 16.6358C49.2886 17.6749 45.3061 22.3349 45.3171 27.6073C45.3171 27.7823 45.3389 27.9683 45.3499 28.0558C53.7197 30.0904 57.5271 35.1441 57.549 42.134C57.5709 49.1348 52.0457 56.7919 42.7241 56.8247Z" fill="white"/>
</svg>
